<?xml version="1.0" encoding="utf-8"?>
<!-- Generator: Adobe Illustrator 24.2.1, SVG Export Plug-In . SVG Version: 6.00 Build 0)  -->
<svg version="1.1" id="Layer_1" xmlns="http://www.w3.org/2000/svg" xmlns:xlink="http://www.w3.org/1999/xlink" x="0px" y="0px"
	 viewBox="0 0 320 298.7" style="enable-background:new 0 0 320 298.7;" xml:space="preserve">
<style type="text/css">
	.st0{fill:#FFFFFF;}
</style>
<g>
	<path class="st0" d="M74.8,87.4c7.9,0,13.8,2,17.9,6.1c4,4,6.1,9.7,6.1,17c0,7.3-2,13-6.1,17.1c-4,4.1-10,6.1-17.9,6H50.9v31.9
		H40.5V87.4H74.8z M71.3,124.8c5.9,0.1,10.2-1.1,13-3.6c2.7-2.5,4.1-6,4.1-10.7c0-4.7-1.4-8.2-4.1-10.7c-2.7-2.4-7.1-3.7-13-3.7
		H50.9v28.6H71.3z"/>
	<path class="st0" d="M141.1,161.9c-4.2,3.2-9.5,4.8-16,4.8c-4.5,0-8.4-0.7-11.8-2.2c-3.3-1.5-6.1-3.5-8.4-6.1
		c-2.3-2.6-4-5.8-5.1-9.4c-1.1-3.6-1.8-7.6-1.9-11.9c0-4.3,0.7-8.2,2-11.8c1.3-3.6,3.2-6.7,5.5-9.3c2.4-2.6,5.2-4.7,8.4-6.1
		c3.2-1.5,6.8-2.2,10.7-2.2c5,0,9.2,1,12.5,3.1c3.3,2.1,6,4.7,8,7.9c2,3.2,3.4,6.7,4.2,10.5c0.8,3.8,1.1,7.4,0.9,10.8h-42.3
		c-0.1,2.5,0.2,4.8,0.9,7.1c0.7,2.2,1.7,4.2,3.2,5.9c1.5,1.7,3.3,3.1,5.6,4.1c2.3,1,4.9,1.5,8,1.5c3.9,0,7.2-0.9,9.7-2.7
		c2.5-1.8,4.2-4.6,5-8.3h9.2C148.1,153.9,145.3,158.7,141.1,161.9z M138.9,125.6c-0.8-2-2-3.7-3.4-5.1c-1.4-1.4-3.1-2.6-5-3.4
		c-1.9-0.8-4.1-1.3-6.4-1.3c-2.4,0-4.6,0.4-6.5,1.3c-1.9,0.8-3.6,2-5,3.4c-1.4,1.5-2.5,3.2-3.3,5.1c-0.8,1.9-1.3,4-1.4,6.2h32.5
		C140.2,129.6,139.7,127.6,138.9,125.6z"/>
	<path class="st0" d="M196.5,161.9c-4.2,3.2-9.5,4.8-16,4.8c-4.5,0-8.4-0.7-11.8-2.2c-3.3-1.5-6.1-3.5-8.4-6.1
		c-2.3-2.6-4-5.8-5.1-9.4c-1.1-3.6-1.8-7.6-1.9-11.9c0-4.3,0.7-8.2,2-11.8c1.3-3.6,3.2-6.7,5.5-9.3c2.4-2.6,5.2-4.7,8.4-6.1
		c3.2-1.5,6.8-2.2,10.7-2.2c5,0,9.2,1,12.5,3.1c3.3,2.1,6,4.7,8,7.9c2,3.2,3.4,6.7,4.2,10.5c0.8,3.8,1.1,7.4,0.9,10.8h-42.3
		c-0.1,2.5,0.2,4.8,0.9,7.1c0.7,2.2,1.7,4.2,3.2,5.9c1.5,1.7,3.3,3.1,5.6,4.1c2.3,1,4.9,1.5,8,1.5c3.9,0,7.2-0.9,9.7-2.7
		c2.5-1.8,4.2-4.6,5-8.3h9.2C203.5,153.9,200.8,158.7,196.5,161.9z M194.3,125.6c-0.8-2-2-3.7-3.4-5.1c-1.4-1.4-3.1-2.6-5-3.4
		c-1.9-0.8-4.1-1.3-6.4-1.3c-2.4,0-4.6,0.4-6.5,1.3c-1.9,0.8-3.6,2-5,3.4c-1.4,1.5-2.5,3.2-3.3,5.1c-0.8,1.9-1.3,4-1.4,6.2h32.5
		C195.6,129.6,195.1,127.6,194.3,125.6z"/>
	<path class="st0" d="M218.7,109v11.9h0.2c2.3-4.6,5-8,8.3-10.2c3.3-2.2,7.4-3.2,12.5-3.1v9.8c-3.7,0-6.9,0.5-9.5,1.5
		c-2.6,1-4.7,2.5-6.3,4.5c-1.6,2-2.8,4.4-3.5,7.2c-0.7,2.8-1.1,6-1.1,9.7v25.1H210V109H218.7z"/>
	<path class="st0" d="M278.4,87.4v57.7c0,3.3-0.4,6.3-1.1,9c-0.8,2.7-2,5-3.7,7c-1.7,2-3.9,3.5-6.6,4.5c-2.7,1.1-6.1,1.6-10,1.6
		c-3.7,0-6.9-0.5-9.5-1.6c-2.6-1.1-4.8-2.5-6.5-4.4c-1.7-1.9-2.9-4.1-3.7-6.7c-0.8-2.6-1.1-5.4-1.1-8.5v-4.7h2.2v4.7
		c0,6.4,1.6,11.2,4.7,14.4c3.1,3.2,7.8,4.8,13.9,4.8c3.1,0,5.9-0.4,8.3-1.1c2.4-0.7,4.4-1.9,6-3.6c1.6-1.7,2.9-3.9,3.7-6.7
		c0.8-2.8,1.3-6.2,1.3-10.3V87.4H278.4z"/>
</g>
<g>
	<path class="st0" d="M44.3,183.2v19.4h11.5v2.4H41.4v-21.8H44.3z"/>
	<path class="st0" d="M57.2,186.3v-3.2h2.6v3.2H57.2z M59.8,189.2V205h-2.6v-15.8H59.8z"/>
	<path class="st0" d="M61.3,191.5v-2.3H64v-2.4c0-1.3,0.4-2.3,1.1-2.9c0.7-0.7,1.8-1,3.3-1c0.2,0,0.5,0,0.8,0.1
		c0.3,0,0.6,0.1,0.8,0.2v2.3c-0.2-0.1-0.5-0.1-0.7-0.2c-0.3,0-0.5,0-0.7,0c-0.6,0-1.1,0.1-1.5,0.4c-0.3,0.2-0.5,0.7-0.5,1.4v2.2h3.1
		v2.3h-3.1V205H64v-13.5H61.3z"/>
	<path class="st0" d="M82.2,204c-1.2,0.9-2.7,1.3-4.5,1.3c-1.3,0-2.4-0.2-3.3-0.6c-0.9-0.4-1.7-1-2.3-1.7c-0.6-0.7-1.1-1.6-1.4-2.6
		c-0.3-1-0.5-2.1-0.5-3.3c0-1.2,0.2-2.3,0.5-3.3c0.4-1,0.9-1.9,1.5-2.6c0.7-0.7,1.4-1.3,2.4-1.7c0.9-0.4,1.9-0.6,3-0.6
		c1.4,0,2.6,0.3,3.5,0.9c0.9,0.6,1.7,1.3,2.2,2.2c0.6,0.9,0.9,1.9,1.2,2.9c0.2,1.1,0.3,2.1,0.3,3H72.9c0,0.7,0.1,1.3,0.2,2
		c0.2,0.6,0.5,1.2,0.9,1.6c0.4,0.5,0.9,0.9,1.6,1.1s1.4,0.4,2.2,0.4c1.1,0,2-0.3,2.7-0.8c0.7-0.5,1.2-1.3,1.4-2.3h2.6
		C84.2,201.7,83.4,203.1,82.2,204z M81.6,193.8c-0.2-0.5-0.5-1-0.9-1.4c-0.4-0.4-0.9-0.7-1.4-0.9c-0.5-0.2-1.1-0.4-1.8-0.4
		c-0.7,0-1.3,0.1-1.8,0.4c-0.5,0.2-1,0.6-1.4,1s-0.7,0.9-0.9,1.4c-0.2,0.5-0.4,1.1-0.4,1.7H82C82,195,81.8,194.4,81.6,193.8z"/>
	<path class="st0" d="M103.9,204.6c-1.1,0.5-2.3,0.8-3.5,0.8c-1.5,0-2.6-0.2-3.5-0.7c-0.9-0.4-1.6-1-2.1-1.6c-0.5-0.6-0.8-1.3-1-2
		c-0.2-0.7-0.2-1.2-0.2-1.7c0-0.9,0.1-1.6,0.4-2.3s0.6-1.2,1.1-1.8c0.5-0.5,1-1,1.6-1.4c0.6-0.4,1.3-0.8,2-1.2
		c-0.3-0.4-0.6-0.8-0.9-1.2c-0.3-0.4-0.5-0.8-0.8-1.2c-0.2-0.4-0.4-0.8-0.5-1.3c-0.1-0.4-0.2-0.9-0.2-1.5c0-0.6,0.1-1.2,0.3-1.7
		s0.5-1,0.9-1.4c0.4-0.4,0.9-0.7,1.5-1c0.6-0.2,1.3-0.4,2.1-0.4c0.7,0,1.3,0.1,2,0.3c0.6,0.2,1.2,0.5,1.7,0.8
		c0.5,0.4,0.9,0.8,1.2,1.4c0.3,0.6,0.4,1.2,0.4,1.9c0,0.7-0.1,1.3-0.3,1.8c-0.2,0.6-0.5,1.1-0.9,1.5c-0.4,0.5-0.8,0.9-1.3,1.3
		s-1,0.7-1.5,1l3.9,4.8c0.4-1.1,0.6-2.3,0.7-3.4h2.5c-0.1,0.7-0.1,1.2-0.2,1.7c-0.1,0.5-0.2,0.9-0.3,1.3s-0.2,0.8-0.4,1.1
		c-0.2,0.4-0.4,0.8-0.6,1.3l4.2,4.9h-3.4l-2.3-2.7C105.9,203.3,105.1,204,103.9,204.6z M98.7,195.3c-0.5,0.3-0.9,0.7-1.2,1
		s-0.6,0.8-0.8,1.3c-0.2,0.5-0.3,1-0.3,1.7c0,0.5,0.1,1.1,0.4,1.5c0.2,0.5,0.5,0.8,0.9,1.2c0.4,0.3,0.8,0.6,1.3,0.7s1,0.3,1.5,0.3
		c1,0,1.9-0.2,2.7-0.7c0.8-0.5,1.4-1.1,2-1.9l-5-6C99.6,194.7,99.2,195,98.7,195.3z M102,190.9c0.3-0.2,0.7-0.5,0.9-0.8
		c0.3-0.3,0.5-0.6,0.7-1c0.2-0.4,0.3-0.8,0.3-1.3c0-0.6-0.2-1.2-0.7-1.6c-0.4-0.5-1.1-0.7-1.8-0.7c-0.6,0-1.2,0.2-1.7,0.6
		c-0.5,0.4-0.8,1-0.8,1.8c0,0.3,0.1,0.7,0.2,1c0.1,0.3,0.3,0.6,0.5,1c0.2,0.3,0.4,0.6,0.7,0.9c0.2,0.3,0.5,0.6,0.7,0.9
		C101.3,191.4,101.6,191.1,102,190.9z"/>
	<path class="st0" d="M136.4,183.2v2.4h-12.2v6.9h11.3v2.4h-11.3v7.5h12.2v2.4h-15.2v-21.8H136.4z"/>
	<path class="st0" d="M141,189.2v2.5h0.1c1.1-1.9,2.8-2.9,5.1-2.9c1,0,1.9,0.1,2.6,0.4c0.7,0.3,1.3,0.7,1.7,1.2
		c0.4,0.5,0.7,1.1,0.9,1.8c0.2,0.7,0.3,1.5,0.3,2.3V205H149v-10.7c0-1-0.3-1.8-0.9-2.3c-0.6-0.6-1.4-0.9-2.4-0.9
		c-0.8,0-1.5,0.1-2.1,0.4c-0.6,0.2-1.1,0.6-1.5,1c-0.4,0.4-0.7,1-0.9,1.6c-0.2,0.6-0.3,1.3-0.3,2v8.9h-2.6v-15.8H141z"/>
	<path class="st0" d="M158.6,205l-5.9-15.8h2.9l4.4,13.2h0.1l4.3-13.2h2.7l-5.8,15.8H158.6z"/>
	<path class="st0" d="M168.8,186.3v-3.2h2.6v3.2H168.8z M171.4,189.2V205h-2.6v-15.8H171.4z"/>
	<path class="st0" d="M176.9,189.2v3.3h0.1c0.6-1.3,1.4-2.2,2.3-2.8c0.9-0.6,2.1-0.9,3.5-0.9v2.7c-1,0-1.9,0.1-2.7,0.4
		c-0.7,0.3-1.3,0.7-1.8,1.3c-0.4,0.5-0.8,1.2-1,2c-0.2,0.8-0.3,1.7-0.3,2.7v7h-2.6v-15.8H176.9z"/>
	<path class="st0" d="M183.4,193.8c0.3-1,0.8-1.9,1.5-2.6c0.7-0.7,1.5-1.3,2.4-1.8c1-0.4,2.1-0.6,3.3-0.6c1.3,0,2.4,0.2,3.3,0.6
		c0.9,0.4,1.7,1,2.4,1.8c0.7,0.7,1.1,1.6,1.5,2.6c0.3,1,0.5,2.1,0.5,3.3s-0.2,2.2-0.5,3.2c-0.3,1-0.8,1.9-1.5,2.6s-1.5,1.3-2.4,1.7
		c-0.9,0.4-2.1,0.6-3.3,0.6c-1.2,0-2.3-0.2-3.3-0.6s-1.8-1-2.4-1.7c-0.7-0.7-1.1-1.6-1.5-2.6c-0.3-1-0.5-2.1-0.5-3.2
		S183.1,194.9,183.4,193.8z M186,199.6c0.3,0.7,0.6,1.4,1.1,1.9s1,0.9,1.6,1.1s1.2,0.4,1.9,0.4s1.3-0.1,1.9-0.4s1.1-0.6,1.6-1.1
		c0.4-0.5,0.8-1.1,1.1-1.9c0.3-0.7,0.4-1.6,0.4-2.6c0-1-0.1-1.8-0.4-2.6c-0.3-0.7-0.6-1.4-1.1-1.9c-0.4-0.5-1-0.9-1.6-1.2
		s-1.2-0.4-1.9-0.4s-1.3,0.1-1.9,0.4s-1.1,0.7-1.6,1.2c-0.4,0.5-0.8,1.1-1.1,1.9s-0.4,1.6-0.4,2.6
		C185.6,198.1,185.8,198.9,186,199.6z"/>
	<path class="st0" d="M202.5,189.2v2.5h0.1c1.1-1.9,2.8-2.9,5.1-2.9c1,0,1.9,0.1,2.6,0.4s1.3,0.7,1.7,1.2c0.4,0.5,0.7,1.1,0.9,1.8
		c0.2,0.7,0.3,1.5,0.3,2.3V205h-2.6v-10.7c0-1-0.3-1.8-0.9-2.3c-0.6-0.6-1.4-0.9-2.4-0.9c-0.8,0-1.5,0.1-2.1,0.4
		c-0.6,0.2-1.1,0.6-1.5,1c-0.4,0.4-0.7,1-0.9,1.6c-0.2,0.6-0.3,1.3-0.3,2v8.9h-2.6v-15.8H202.5z"/>
	<path class="st0" d="M218,189.2v2.3h0.1c1.2-1.8,2.9-2.7,5.1-2.7c1,0,1.9,0.2,2.7,0.6c0.8,0.4,1.4,1.1,1.7,2.1
		c0.5-0.9,1.2-1.5,2.1-2c0.9-0.5,1.8-0.7,2.9-0.7c0.8,0,1.5,0.1,2.2,0.3s1.2,0.4,1.6,0.8c0.5,0.4,0.8,0.8,1.1,1.4
		c0.3,0.6,0.4,1.3,0.4,2.1V205h-2.6v-10.4c0-0.5,0-0.9-0.1-1.4s-0.2-0.8-0.5-1.1c-0.2-0.3-0.5-0.6-0.9-0.7c-0.4-0.2-0.9-0.3-1.5-0.3
		c-1.3,0-2.3,0.4-3,1.1c-0.7,0.7-1.1,1.7-1.1,2.9v9.8h-2.6v-10.4c0-0.5,0-1-0.1-1.4c-0.1-0.4-0.2-0.8-0.5-1.1
		c-0.2-0.3-0.5-0.6-0.9-0.7c-0.4-0.2-0.9-0.3-1.5-0.3c-0.8,0-1.4,0.2-1.9,0.5c-0.5,0.3-1,0.7-1.3,1.1s-0.6,0.9-0.7,1.3
		c-0.2,0.5-0.2,0.8-0.2,1.1v9.8h-2.6v-15.8H218z"/>
	<path class="st0" d="M251.5,204c-1.2,0.9-2.7,1.3-4.5,1.3c-1.3,0-2.4-0.2-3.3-0.6c-0.9-0.4-1.7-1-2.3-1.7c-0.6-0.7-1.1-1.6-1.4-2.6
		s-0.5-2.1-0.5-3.3c0-1.2,0.2-2.3,0.5-3.3c0.4-1,0.9-1.9,1.5-2.6c0.7-0.7,1.4-1.3,2.4-1.7c0.9-0.4,1.9-0.6,3-0.6
		c1.4,0,2.6,0.3,3.5,0.9c0.9,0.6,1.7,1.3,2.2,2.2c0.6,0.9,0.9,1.9,1.2,2.9c0.2,1.1,0.3,2.1,0.3,3h-11.8c0,0.7,0.1,1.3,0.2,2
		c0.2,0.6,0.5,1.2,0.9,1.6s0.9,0.9,1.6,1.1c0.6,0.3,1.4,0.4,2.2,0.4c1.1,0,2-0.3,2.7-0.8c0.7-0.5,1.2-1.3,1.4-2.3h2.6
		C253.5,201.7,252.7,203.1,251.5,204z M250.9,193.8c-0.2-0.5-0.5-1-0.9-1.4c-0.4-0.4-0.9-0.7-1.4-0.9c-0.5-0.2-1.1-0.4-1.8-0.4
		c-0.7,0-1.3,0.1-1.8,0.4c-0.5,0.2-1,0.6-1.4,1s-0.7,0.9-0.9,1.4c-0.2,0.5-0.4,1.1-0.4,1.7h9.1C251.3,195,251.1,194.4,250.9,193.8z"
		/>
	<path class="st0" d="M258.3,189.2v2.5h0.1c1.1-1.9,2.8-2.9,5.1-2.9c1,0,1.9,0.1,2.6,0.4s1.3,0.7,1.7,1.2c0.4,0.5,0.7,1.1,0.9,1.8
		c0.2,0.7,0.3,1.5,0.3,2.3V205h-2.6v-10.7c0-1-0.3-1.8-0.9-2.3c-0.6-0.6-1.4-0.9-2.4-0.9c-0.8,0-1.5,0.1-2.1,0.4
		c-0.6,0.2-1.1,0.6-1.5,1c-0.4,0.4-0.7,1-0.9,1.6c-0.2,0.6-0.3,1.3-0.3,2v8.9h-2.6v-15.8H258.3z"/>
	<path class="st0" d="M278.7,189.2v2.3h-3.1v9.8c0,0.3,0,0.5,0.1,0.7s0.1,0.3,0.3,0.4s0.3,0.2,0.6,0.2s0.6,0,1,0h1.2v2.3h-2
		c-0.7,0-1.2,0-1.7-0.1s-0.9-0.3-1.2-0.5c-0.3-0.2-0.5-0.6-0.7-1s-0.2-1-0.2-1.8v-10h-2.7v-2.3h2.7v-4.7h2.6v4.7H278.7z"/>
</g>
</svg>
