<?xml version="1.0" encoding="utf-8"?>
<!-- Generator: Adobe Illustrator 24.2.1, SVG Export Plug-In . SVG Version: 6.00 Build 0)  -->
<svg version="1.1" id="Layer_1" xmlns="http://www.w3.org/2000/svg" xmlns:xlink="http://www.w3.org/1999/xlink" x="0px" y="0px"
	 viewBox="0 0 320 298.7" style="enable-background:new 0 0 320 298.7;" xml:space="preserve">
<style type="text/css">
	.st0{fill:#02A7FC;}
	.st1{fill:#FFFFFF;}
	.st2{font-family:'HelveticaNeue';}
	.st3{font-size:109.3149px;}
	.st4{letter-spacing:-8;}
	.st5{letter-spacing:-3;}
	.st6{letter-spacing:-4;}
	.st7{letter-spacing:-5;}
	.st8{font-family:'HelveticaNeue-UltraLight';}
	.st9{font-size:30.5458px;}
	.st10{letter-spacing:-1;}
</style>
<path class="st0" d="M319,298.7H1c-0.6,0-1-0.4-1-1V1c0-0.6,0.4-1,1-1h318c0.5,0,1,0.4,1,1v296.7C320,298.3,319.5,298.7,319,298.7z"
	/>
<text transform="matrix(1 0 0 1 32.0123 165.4835)"><tspan x="0" y="0" class="st1 st2 st3 st4">P</tspan><tspan x="62.1" y="0" class="st1 st2 st3 st5">e</tspan><tspan x="117.5" y="0" class="st1 st2 st3 st6">e</tspan><tspan x="171.3" y="0" class="st1 st2 st3 st7">r</tspan><tspan x="202.2" y="0" class="st1 st8 st3">J</tspan></text>
<text transform="matrix(1 0 0 1 39.0322 204.9789)"><tspan x="0" y="0" class="st1 st2 st9">Life</tspan><tspan x="45.5" y="0" class="st1 st2 st9"> </tspan><tspan x="53.6" y="0" class="st1 st2 st9">&amp;</tspan><tspan x="71.9" y="0" class="st1 st2 st9"> </tspan><tspan x="79.9" y="0" class="st1 st2 st9 st10">E</tspan><tspan x="97.5" y="0" class="st1 st2 st9 st10">n</tspan><tspan x="113.3" y="0" class="st1 st2 st9">vir</tspan><tspan x="142.8" y="0" class="st1 st2 st9 st10">o</tspan><tspan x="159.1" y="0" class="st1 st2 st9 st10">n</tspan><tspan x="174.5" y="0" class="st1 st2 st9 st10">m</tspan><tspan x="199.4" y="0" class="st1 st2 st9">ent</tspan></text>
</svg>
