<svg id="Layer_1" data-name="Layer 1" xmlns="http://www.w3.org/2000/svg" width="100" height="93.36" viewBox="0 0 100 93.36">
  <g>
    <path d="M49.15,60.16a1.31,1.31,0,0,0-.5-.43,1.46,1.46,0,0,0-.71-.16,1.42,1.42,0,0,0-1.22.61,1.81,1.81,0,0,0-.28.63,3.36,3.36,0,0,0-.08.71,3,3,0,0,0,.09.73,1.81,1.81,0,0,0,.28.63,1.43,1.43,0,0,0,.51.43,1.54,1.54,0,0,0,.75.17,1.46,1.46,0,0,0,.73-.17,1.48,1.48,0,0,0,.48-.45,2.15,2.15,0,0,0,.26-.64,3.65,3.65,0,0,0,.08-.74,2.44,2.44,0,0,0-.1-.71A1.81,1.81,0,0,0,49.15,60.16Z"/>
    <path d="M34.08,57.77H32.22v2.62h1.86a1.75,1.75,0,0,0,1.18-.33,1.27,1.27,0,0,0,.38-1,1.24,1.24,0,0,0-.38-1A1.75,1.75,0,0,0,34.08,57.77Z"/>
    <path d="M43.53,60a1.49,1.49,0,0,0-.46-.31,1.36,1.36,0,0,0-.58-.11,1.46,1.46,0,0,0-.6.11,1.48,1.48,0,0,0-.75.78A1.58,1.58,0,0,0,41,61h3a1.83,1.83,0,0,0-.14-.57A1.38,1.38,0,0,0,43.53,60Z"/>
    <path d="M99,0H1A1,1,0,0,0,0,1V92.36a1,1,0,0,0,1,1H99a1,1,0,0,0,1-1V1A1,1,0,0,0,99,0ZM36,60.64a2.2,2.2,0,0,1-1.63.55H32.22v2.92h-.95V57H34.4a2.2,2.2,0,0,1,1.63.55,2.11,2.11,0,0,1,.56,1.56A2.14,2.14,0,0,1,36,60.64Zm4-.92a2.27,2.27,0,0,0-.87.14,1.3,1.3,0,0,0-.58.41,1.53,1.53,0,0,0-.32.65,3.41,3.41,0,0,0-.1.89v2.3h-.85V58.94h.8V60h0a2.25,2.25,0,0,1,.76-.93A1.86,1.86,0,0,1,40,58.82Zm1.09,2.7a1.44,1.44,0,0,0,.8.92,1.79,1.79,0,0,0,.73.14,1.5,1.5,0,0,0,.88-.25,1.25,1.25,0,0,0,.46-.76h.84a2.14,2.14,0,0,1-.75,1.31,2.39,2.39,0,0,1-1.46.44,2.74,2.74,0,0,1-1.08-.2,2.15,2.15,0,0,1-.76-.56,2.47,2.47,0,0,1-.47-.86,4.21,4.21,0,0,1-.17-1.09,3.06,3.06,0,0,1,.18-1.08,2.65,2.65,0,0,1,.5-.85,2.35,2.35,0,0,1,.77-.56,2.26,2.26,0,0,1,1-.2,2.09,2.09,0,0,1,1.14.28,2.13,2.13,0,0,1,.73.73,2.68,2.68,0,0,1,.38,1,4.24,4.24,0,0,1,.09,1H41A1.94,1.94,0,0,0,41.09,62.42Zm9.2.16a2.3,2.3,0,0,1-.44.85,2,2,0,0,1-.74.58,2.37,2.37,0,0,1-1,.21,3.62,3.62,0,0,1-.43,0,2.64,2.64,0,0,1-.46-.13,1.61,1.61,0,0,1-.44-.25,1.38,1.38,0,0,1-.34-.38h0v2.66h-.85V58.94h.85v.7h0a1.27,1.27,0,0,1,.66-.63,2.46,2.46,0,0,1,1-.19,2.25,2.25,0,0,1,1,.22,2,2,0,0,1,.74.59,2.57,2.57,0,0,1,.45.87,3.49,3.49,0,0,1,.15,1A3.58,3.58,0,0,1,50.29,62.58Zm3.47-2.86a2.27,2.27,0,0,0-.87.14,1.3,1.3,0,0,0-.58.41,1.53,1.53,0,0,0-.32.65,3.41,3.41,0,0,0-.1.89v2.3H51V58.94h.8V60h0a2.25,2.25,0,0,1,.76-.93,1.86,1.86,0,0,1,1.14-.28Zm1.39,4.39H54.3V58.94h.85Zm0-6.1H54.3V57h.85Zm5.2,6.1H59.5v-3.5a1,1,0,0,0-1-1,1.76,1.76,0,0,0-.68.12,1.17,1.17,0,0,0-.47.34,1.42,1.42,0,0,0-.29.51,2.22,2.22,0,0,0-.09.65v2.92h-.85V58.94h.8v.82h0a1.78,1.78,0,0,1,1.68-.94,2.13,2.13,0,0,1,.85.14,1.38,1.38,0,0,1,.55.39,1.31,1.31,0,0,1,.29.59,3.07,3.07,0,0,1,.09.77Zm3.19-4.42h-1V62.9a1.44,1.44,0,0,0,0,.24.28.28,0,0,0,.1.14.43.43,0,0,0,.19.06l.33,0h.39v.75h-.65a3.1,3.1,0,0,1-.57,0,.88.88,0,0,1-.38-.16.82.82,0,0,1-.21-.34,1.87,1.87,0,0,1-.07-.58V59.69h-.88v-.75h.88V57.39h.85v1.55h1Zm4.6,3.69a1.62,1.62,0,0,1-.51.5,2.22,2.22,0,0,1-.71.26,4.13,4.13,0,0,1-.78.08,3.62,3.62,0,0,1-.82-.09,2,2,0,0,1-.69-.3,1.48,1.48,0,0,1-.48-.54,1.79,1.79,0,0,1-.2-.81h.85a1,1,0,0,0,.13.47.92.92,0,0,0,.31.31,1.55,1.55,0,0,0,.44.17,2.94,2.94,0,0,0,.51,0l.42,0a1.56,1.56,0,0,0,.4-.11.83.83,0,0,0,.31-.24.61.61,0,0,0,.12-.39.55.55,0,0,0-.25-.5,2,2,0,0,0-.63-.28c-.25-.07-.52-.13-.81-.19a4.91,4.91,0,0,1-.82-.24,1.72,1.72,0,0,1-.62-.43,1.13,1.13,0,0,1-.25-.78,1.28,1.28,0,0,1,.17-.67,1.52,1.52,0,0,1,.45-.46,2.14,2.14,0,0,1,.62-.26,2.71,2.71,0,0,1,.69-.08,4.14,4.14,0,0,1,.81.07,1.89,1.89,0,0,1,.65.26,1.31,1.31,0,0,1,.46.5,2,2,0,0,1,.2.79h-.85a.87.87,0,0,0-.13-.42.77.77,0,0,0-.28-.26,1.16,1.16,0,0,0-.38-.15,1.84,1.84,0,0,0-.41,0,2.56,2.56,0,0,0-.39,0,1.29,1.29,0,0,0-.35.1.75.75,0,0,0-.26.2.48.48,0,0,0-.1.33.49.49,0,0,0,.15.36,1.22,1.22,0,0,0,.4.24,3.46,3.46,0,0,0,.54.16l.6.14a4.37,4.37,0,0,1,.62.17,1.7,1.7,0,0,1,.54.26,1.18,1.18,0,0,1,.38.42,1.16,1.16,0,0,1,.15.62A1.46,1.46,0,0,1,68.14,63.38Z"/>
  </g>
</svg>
