<svg id="Layer_1" data-name="Layer 1" xmlns="http://www.w3.org/2000/svg" width="100" height="93.36" viewBox="0 0 100 93.36">
  <g>
    <path d="M43.4,39.16a5.15,5.15,0,0,0-1.06-1.59,5,5,0,0,0-1.57-1,4.83,4.83,0,0,0-2-.4,4.9,4.9,0,0,0-2,.4,4.76,4.76,0,0,0-1.56,1.07,5.28,5.28,0,0,0-1,1.59,6.19,6.19,0,0,0-.45,1.93H43.86A6.17,6.17,0,0,0,43.4,39.16Z" style="fill: #902757"/>
    <path d="M44.43,60.23a1.23,1.23,0,0,0-.44-.3,1.51,1.51,0,0,0-1.13,0,1.23,1.23,0,0,0-.44.3,1.51,1.51,0,0,0-.29.45,1.94,1.94,0,0,0-.13.54h2.86a1.64,1.64,0,0,0-.13-.54A1.19,1.19,0,0,0,44.43,60.23Z" style="fill: #902757"/>
    <path d="M22.27,30H15.91v9h6.36a5.8,5.8,0,0,0,4.05-1.12,4.31,4.31,0,0,0,1.28-3.35,4.24,4.24,0,0,0-1.28-3.33A6,6,0,0,0,22.27,30Z" style="fill: #902757"/>
    <path d="M60.72,39.16a5.15,5.15,0,0,0-1.06-1.59,5,5,0,0,0-1.57-1,4.83,4.83,0,0,0-2-.4,4.9,4.9,0,0,0-2,.4,4.76,4.76,0,0,0-1.56,1.07,5.28,5.28,0,0,0-1,1.59A6.19,6.19,0,0,0,51,41.11H61.18A6.17,6.17,0,0,0,60.72,39.16Z" style="fill: #902757"/>
    <path d="M99,0H1A1,1,0,0,0,0,1V92.36a1,1,0,0,0,1,1H99a1,1,0,0,0,1-1V1A1,1,0,0,0,99,0ZM23.36,41.66H15.91v10H12.67V27.24H23.36A7.57,7.57,0,0,1,29,29.14a7.18,7.18,0,0,1,1.89,5.31A7.26,7.26,0,0,1,29,39.78,7.48,7.48,0,0,1,23.36,41.66Zm11.09,22a2.91,2.91,0,0,1-2.08.72A3.35,3.35,0,0,1,31,64.07a2.68,2.68,0,0,1-1-.76,3.31,3.31,0,0,1-.6-1.13,5,5,0,0,1-.19-1.41,4.62,4.62,0,0,1,.21-1.41A3.44,3.44,0,0,1,30,58.21a2.93,2.93,0,0,1,1-.77,3.27,3.27,0,0,1,1.4-.29,3.4,3.4,0,0,1,1,.15,3,3,0,0,1,.86.42,2.32,2.32,0,0,1,.62.7,2.48,2.48,0,0,1,.33,1h-.91a1.72,1.72,0,0,0-.68-1.1,2.17,2.17,0,0,0-1.25-.37,2.26,2.26,0,0,0-1,.23,2.13,2.13,0,0,0-.73.63,2.6,2.6,0,0,0-.41.89,3.94,3.94,0,0,0-.14,1,4.46,4.46,0,0,0,.14,1.12,2.61,2.61,0,0,0,.41.91,2.09,2.09,0,0,0,.73.62,2.33,2.33,0,0,0,1.06.23,2,2,0,0,0,.8-.15,1.73,1.73,0,0,0,.61-.41,2.05,2.05,0,0,0,.4-.63,2.53,2.53,0,0,0,.17-.79h.92A3.1,3.1,0,0,1,34.45,63.62ZM32.83,49.41a8,8,0,0,1-1.59-2.94,13.6,13.6,0,0,1-.6-3.72,10.66,10.66,0,0,1,.61-3.69A8.77,8.77,0,0,1,33,36.16a7.94,7.94,0,0,1,2.63-1.92,8.09,8.09,0,0,1,3.33-.68,7.22,7.22,0,0,1,3.91,1A7.79,7.79,0,0,1,45.35,37a9.74,9.74,0,0,1,1.29,3.28,14.3,14.3,0,0,1,.3,3.38H33.71A7,7,0,0,0,34,45.88a4.83,4.83,0,0,0,1,1.84A4.75,4.75,0,0,0,36.72,49a6,6,0,0,0,2.49.48,5.05,5.05,0,0,0,3-.85A4.16,4.16,0,0,0,43.79,46h2.87a7.11,7.11,0,0,1-2.56,4.48,8,8,0,0,1-5,1.5,9,9,0,0,1-3.67-.69A7.07,7.07,0,0,1,32.83,49.41Zm7.49,14.78H39.5V60.82a.93.93,0,0,0-1-1,1.64,1.64,0,0,0-.65.12,1.12,1.12,0,0,0-.45.32,1.3,1.3,0,0,0-.28.5,2,2,0,0,0-.09.62v2.81H36.2V57.32H37v2.62h0a.94.94,0,0,1,.27-.38,1.16,1.16,0,0,1,.39-.26,1.7,1.7,0,0,1,.45-.15,1.85,1.85,0,0,1,.46,0,2.17,2.17,0,0,1,.82.13,1.47,1.47,0,0,1,.53.38,1.52,1.52,0,0,1,.28.57,3.36,3.36,0,0,1,.08.74Zm1.76-1.62a1.46,1.46,0,0,0,.28.52,1.39,1.39,0,0,0,.49.36,1.68,1.68,0,0,0,.7.13,1.4,1.4,0,0,0,.85-.24,1.12,1.12,0,0,0,.44-.73h.81a2,2,0,0,1-.72,1.26,2.27,2.27,0,0,1-1.41.42,2.53,2.53,0,0,1-1-.19,2.12,2.12,0,0,1-.74-.54,2.2,2.2,0,0,1-.44-.83,3.84,3.84,0,0,1-.17-1,3.11,3.11,0,0,1,.17-1,2.49,2.49,0,0,1,.49-.82,2.19,2.19,0,0,1,1.68-.73,2.06,2.06,0,0,1,1.1.27,2.34,2.34,0,0,1,.7.7,2.74,2.74,0,0,1,.37.92,4.66,4.66,0,0,1,.08,1H42A2.15,2.15,0,0,0,42.08,62.57Zm11.33,1.62h-.82V60.93a3,3,0,0,0,0-.44,1,1,0,0,0-.15-.35.61.61,0,0,0-.29-.23,1.11,1.11,0,0,0-.48-.09,1.3,1.3,0,0,0-1,.35,1.23,1.23,0,0,0-.34.92v3.1h-.82V60.93a2.14,2.14,0,0,0,0-.45.83.83,0,0,0-.14-.35A.74.74,0,0,0,49,59.9a1.17,1.17,0,0,0-.45-.08A1.32,1.32,0,0,0,48,60a1.76,1.76,0,0,0-.41.35,1.44,1.44,0,0,0-.23.42,1.08,1.08,0,0,0-.07.36v3.1h-.82v-5h.77v.73h0a1.81,1.81,0,0,1,1.61-.84,1.78,1.78,0,0,1,.83.19,1.09,1.09,0,0,1,.53.65,1.87,1.87,0,0,1,.66-.62,1.82,1.82,0,0,1,.9-.22,2.82,2.82,0,0,1,.68.08,1.34,1.34,0,0,1,.52.26,1.16,1.16,0,0,1,.34.44,1.62,1.62,0,0,1,.12.66Zm2,0h-.82v-5h.82Zm0-5.87h-.82v-1h.82Zm4.85,5.17a1.53,1.53,0,0,1-.5.48,2.12,2.12,0,0,1-.68.25,3.81,3.81,0,0,1-.75.07,3.36,3.36,0,0,1-.79-.08,1.92,1.92,0,0,1-.67-.29,1.45,1.45,0,0,1-.46-.52,1.66,1.66,0,0,1-.19-.78H57a.85.85,0,0,0,.12.46.92.92,0,0,0,.3.29,1.23,1.23,0,0,0,.43.16,1.91,1.91,0,0,0,.48,0l.41,0a1.59,1.59,0,0,0,.39-.1.73.73,0,0,0,.29-.23.6.6,0,0,0,.12-.38.55.55,0,0,0-.24-.48,1.9,1.9,0,0,0-.61-.26c-.24-.07-.5-.13-.78-.19a3.73,3.73,0,0,1-.78-.23,1.66,1.66,0,0,1-.61-.42,1.09,1.09,0,0,1-.24-.75,1.2,1.2,0,0,1,.17-.64,1.32,1.32,0,0,1,.44-.44,1.84,1.84,0,0,1,.59-.25,3,3,0,0,1,.66-.08,3.84,3.84,0,0,1,.78.07,1.77,1.77,0,0,1,.63.25,1.36,1.36,0,0,1,.44.48,1.8,1.8,0,0,1,.19.76h-.82a.79.79,0,0,0-.12-.4A.84.84,0,0,0,59,60a1.42,1.42,0,0,0-.36-.14,1.81,1.81,0,0,0-.4,0,2.31,2.31,0,0,0-.37,0,1.13,1.13,0,0,0-.34.1.62.62,0,0,0-.25.19.46.46,0,0,0-.1.31.48.48,0,0,0,.15.36,1.28,1.28,0,0,0,.38.23,3.22,3.22,0,0,0,.52.15l.58.13.6.16a2.11,2.11,0,0,1,.52.26,1.25,1.25,0,0,1,.36.4,1.1,1.1,0,0,1,.14.59A1.45,1.45,0,0,1,60.21,63.49Zm3.07-3.55h-1V63a1.21,1.21,0,0,0,0,.23.28.28,0,0,0,.09.14.47.47,0,0,0,.19.06l.31,0h.38v.72h-.63a4,4,0,0,1-.54,0,1,1,0,0,1-.37-.16.68.68,0,0,1-.2-.33,1.74,1.74,0,0,1-.07-.56V59.94h-.85v-.73h.85V57.72h.82v1.49h1Zm-1.86-9.43a8,8,0,0,1-5,1.5,9,9,0,0,1-3.67-.69,7.07,7.07,0,0,1-2.61-1.91,8,8,0,0,1-1.59-2.94,13.6,13.6,0,0,1-.6-3.72,10.66,10.66,0,0,1,.61-3.69,8.77,8.77,0,0,1,1.73-2.9,7.94,7.94,0,0,1,2.63-1.92,8.09,8.09,0,0,1,3.33-.68,7.22,7.22,0,0,1,3.91,1A7.79,7.79,0,0,1,62.67,37,9.74,9.74,0,0,1,64,40.29a14.3,14.3,0,0,1,.3,3.38H51a7,7,0,0,0,.28,2.21,4.83,4.83,0,0,0,1,1.84A4.75,4.75,0,0,0,54,49a6,6,0,0,0,2.49.48,5.05,5.05,0,0,0,3-.85A4.16,4.16,0,0,0,61.11,46H64A7.11,7.11,0,0,1,61.42,50.51Zm7.63,14.34a4.66,4.66,0,0,1-.28.62,2.31,2.31,0,0,1-.31.41,1.14,1.14,0,0,1-.38.23,1.33,1.33,0,0,1-.47.07l-.29,0a.89.89,0,0,1-.28-.07v-.75a1.23,1.23,0,0,0,.25.08.74.74,0,0,0,.23,0,.7.7,0,0,0,.42-.12A.82.82,0,0,0,68.2,65l.33-.84-1.9-4.78V60a2.3,2.3,0,0,0-.84.14,1.35,1.35,0,0,0-.56.39,1.86,1.86,0,0,0-.31.63,3.66,3.66,0,0,0-.09.86v2.21H64v-5h.77v1h0a2.21,2.21,0,0,1,.73-.89,1.87,1.87,0,0,1,1.1-.27v.11h.85l1.46,4.07h0l1.39-4.07h.87ZM70,38.51a5.72,5.72,0,0,0-1.09,2.24,12,12,0,0,0-.34,3v7.86H65.62V34h2.73v3.72h.07A7.85,7.85,0,0,1,71,34.52a6.43,6.43,0,0,1,3.89-1v3.07a8.18,8.18,0,0,0-3,.48A4.73,4.73,0,0,0,70,38.51ZM87,45.28a10.21,10.21,0,0,1-.36,2.8,5.75,5.75,0,0,1-1.15,2.19,5,5,0,0,1-2.06,1.41,8.74,8.74,0,0,1-3.13.5,8,8,0,0,1-3-.5,5.34,5.34,0,0,1-2-1.38,5.49,5.49,0,0,1-1.14-2.1,9.28,9.28,0,0,1-.36-2.65V44.08h.68v1.47A6.13,6.13,0,0,0,76,50a5.86,5.86,0,0,0,4.34,1.49,8.72,8.72,0,0,0,2.58-.34,4.34,4.34,0,0,0,1.88-1.13A5,5,0,0,0,85.93,48a11.35,11.35,0,0,0,.39-3.21V27.24H87Z" style="fill: #902757"/>
  </g>
</svg>
