<svg id="Layer_1" data-name="Layer 1" xmlns="http://www.w3.org/2000/svg" width="100" height="93.36" viewBox="0 0 100 93.36">
  <g>
    <path d="M43.4,40.41a5.15,5.15,0,0,0-1.06-1.59,5,5,0,0,0-1.57-1,4.83,4.83,0,0,0-2-.4,4.9,4.9,0,0,0-2,.4,4.76,4.76,0,0,0-1.56,1.07,5.28,5.28,0,0,0-1,1.59,6.19,6.19,0,0,0-.45,1.93H43.86A6.17,6.17,0,0,0,43.4,40.41Z" style="fill: #231f20"/>
    <path d="M48.55,60.61a1.33,1.33,0,0,0-.46-.31,1.37,1.37,0,0,0-.58-.12,1.45,1.45,0,0,0-.59.12,1.39,1.39,0,0,0-.45.31,1.83,1.83,0,0,0-.3.46,1.75,1.75,0,0,0-.12.56H49a1.49,1.49,0,0,0-.14-.56A1.23,1.23,0,0,0,48.55,60.61Z" style="fill: #231f20"/>
    <path d="M71.2,60.61a1.29,1.29,0,0,0-.45-.31,1.4,1.4,0,0,0-.58-.12,1.38,1.38,0,0,0-.59.12,1.21,1.21,0,0,0-.45.31,1.41,1.41,0,0,0-.3.46,2.08,2.08,0,0,0-.13.56h2.94a1.48,1.48,0,0,0-.13-.56A1.38,1.38,0,0,0,71.2,60.61Z" style="fill: #231f20"/>
    <path d="M26.32,39.05A4.31,4.31,0,0,0,27.6,35.7a4.24,4.24,0,0,0-1.28-3.33,6,6,0,0,0-4.05-1.15H15.91v9h6.36A5.8,5.8,0,0,0,26.32,39.05Z" style="fill: #231f20"/>
    <path d="M35.9,60.77a1.49,1.49,0,0,0-.5-.43,1.58,1.58,0,0,0-.71-.16,1.47,1.47,0,0,0-.72.17,1.6,1.6,0,0,0-.49.44,2.16,2.16,0,0,0-.27.62,3.36,3.36,0,0,0-.08.71,2.84,2.84,0,0,0,.09.72,1.68,1.68,0,0,0,.28.62,1.52,1.52,0,0,0,.5.44,1.65,1.65,0,0,0,.74.16,1.46,1.46,0,0,0,.73-.17,1.27,1.27,0,0,0,.47-.45,1.78,1.78,0,0,0,.26-.63,3.55,3.55,0,0,0,.08-.73,2.37,2.37,0,0,0-.1-.7A1.79,1.79,0,0,0,35.9,60.77Z" style="fill: #231f20"/>
    <path d="M22.77,60.69a1.37,1.37,0,0,0-.51-.38,1.52,1.52,0,0,0-1.23,0,1.37,1.37,0,0,0-.51.38,1.91,1.91,0,0,0-.35.61,2.64,2.64,0,0,0-.12.83,2.57,2.57,0,0,0,.12.82,1.81,1.81,0,0,0,.35.61,1.46,1.46,0,0,0,.51.37,1.52,1.52,0,0,0,1.23,0,1.46,1.46,0,0,0,.51-.37,1.81,1.81,0,0,0,.35-.61,2.57,2.57,0,0,0,.12-.82,2.64,2.64,0,0,0-.12-.83A1.91,1.91,0,0,0,22.77,60.69Z" style="fill: #231f20"/>
    <path d="M60.72,40.41a5.15,5.15,0,0,0-1.06-1.59,5,5,0,0,0-1.57-1,4.83,4.83,0,0,0-2-.4,4.9,4.9,0,0,0-2,.4,4.76,4.76,0,0,0-1.56,1.07,5.28,5.28,0,0,0-1,1.59A6.19,6.19,0,0,0,51,42.36H61.18A6.17,6.17,0,0,0,60.72,40.41Z" style="fill: #231f20"/>
    <path d="M85.81,60.61a1.33,1.33,0,0,0-.46-.31,1.37,1.37,0,0,0-.58-.12,1.41,1.41,0,0,0-.59.12,1.39,1.39,0,0,0-.45.31,1.83,1.83,0,0,0-.3.46,1.75,1.75,0,0,0-.12.56h2.94a1.49,1.49,0,0,0-.14-.56A1.23,1.23,0,0,0,85.81,60.61Z" style="fill: #231f20"/>
    <path d="M99,0H1A1,1,0,0,0,0,1V92.36a1,1,0,0,0,1,1H99a1,1,0,0,0,1-1V1A1,1,0,0,0,99,0ZM65.62,35.22h2.73v3.72h.07A7.85,7.85,0,0,1,71,35.77a6.5,6.5,0,0,1,3.89-1v3.08a8.19,8.19,0,0,0-3,.47,4.73,4.73,0,0,0-2,1.4A5.79,5.79,0,0,0,68.87,42a12,12,0,0,0-.34,3v7.85H65.62ZM12.67,28.49H23.36A7.57,7.57,0,0,1,29,30.39a7.18,7.18,0,0,1,1.89,5.31A7.26,7.26,0,0,1,29,41a7.48,7.48,0,0,1-5.59,1.88H15.91v10H12.67ZM17.85,64.1a3,3,0,0,1-2.14.74,3.4,3.4,0,0,1-1.44-.28,2.93,2.93,0,0,1-1-.78,3.43,3.43,0,0,1-.61-1.17,5.17,5.17,0,0,1-.2-1.44,4.65,4.65,0,0,1,.22-1.46,3.45,3.45,0,0,1,.64-1.18,3,3,0,0,1,1-.8,3.46,3.46,0,0,1,1.44-.29,3.6,3.6,0,0,1,1.05.15,2.89,2.89,0,0,1,.88.43,2.8,2.8,0,0,1,.65.72,2.62,2.62,0,0,1,.33,1h-.94a1.73,1.73,0,0,0-.7-1.13,2.18,2.18,0,0,0-1.28-.38,2.27,2.27,0,0,0-1.08.24,2.12,2.12,0,0,0-.75.64,2.78,2.78,0,0,0-.43.92,4.18,4.18,0,0,0-.14,1.07,4.68,4.68,0,0,0,.14,1.14,2.8,2.8,0,0,0,.43.94,2.21,2.21,0,0,0,.75.64,2.31,2.31,0,0,0,1.09.24,2,2,0,0,0,.83-.16,1.79,1.79,0,0,0,.62-.42,1.89,1.89,0,0,0,.41-.65,2.66,2.66,0,0,0,.18-.81h.94A3.22,3.22,0,0,1,17.85,64.1ZM24,63.18a2.31,2.31,0,0,1-.47.84,2.13,2.13,0,0,1-.78.57,2.76,2.76,0,0,1-1.07.2,2.72,2.72,0,0,1-1.07-.2,2.09,2.09,0,0,1-.79-.57,2.31,2.31,0,0,1-.47-.84,3.56,3.56,0,0,1,0-2.11,2.27,2.27,0,0,1,.47-.85,2.2,2.2,0,0,1,.79-.57,2.55,2.55,0,0,1,1.07-.21,2.59,2.59,0,0,1,1.07.21,2.25,2.25,0,0,1,.78.57,2.27,2.27,0,0,1,.47.85,3.56,3.56,0,0,1,0,2.11Zm7.8,1.5h-.84V61.32a3.13,3.13,0,0,0,0-.44,1,1,0,0,0-.15-.36.68.68,0,0,0-.3-.25,1.21,1.21,0,0,0-.5-.09,1.24,1.24,0,0,0-1.34,1.31v3.19h-.84V61.32a2.14,2.14,0,0,0-.05-.45,1,1,0,0,0-.15-.36.68.68,0,0,0-.29-.24,1.09,1.09,0,0,0-.47-.09,1.22,1.22,0,0,0-.63.15,1.4,1.4,0,0,0-.43.36,1.42,1.42,0,0,0-.24.43,1.18,1.18,0,0,0-.07.37v3.19h-.84V59.56h.79v.75h0a1.85,1.85,0,0,1,1.65-.87,1.92,1.92,0,0,1,.87.2,1.12,1.12,0,0,1,.54.67,1.82,1.82,0,0,1,.68-.64,1.94,1.94,0,0,1,.93-.23,2.45,2.45,0,0,1,.69.09,1.36,1.36,0,0,1,.54.26,1.25,1.25,0,0,1,.35.46,1.72,1.72,0,0,1,.12.68ZM37,63.17a2.41,2.41,0,0,1-.44.84,2.06,2.06,0,0,1-.73.57,2.4,2.4,0,0,1-1,.21,2.27,2.27,0,0,1-.42,0,2,2,0,0,1-.46-.13,1.82,1.82,0,0,1-.43-.24,1.24,1.24,0,0,1-.34-.38h0v2.63h-.84V59.56h.84v.69h0a1.27,1.27,0,0,1,.65-.62,2.63,2.63,0,0,1,1-.19,2.28,2.28,0,0,1,1,.22,2.21,2.21,0,0,1,.73.59,2.69,2.69,0,0,1,.44.86,3.42,3.42,0,0,1,.15,1A3.88,3.88,0,0,1,37,63.17Zm4.78,1.51H41v-.81h0a1.64,1.64,0,0,1-.68.7,2,2,0,0,1-1,.22,2.25,2.25,0,0,1-.84-.13,1.39,1.39,0,0,1-.55-.38,1.48,1.48,0,0,1-.29-.59,3,3,0,0,1-.08-.76V59.56h.84V63a1,1,0,0,0,1,1,1.71,1.71,0,0,0,.67-.12,1.32,1.32,0,0,0,.47-.34,1.4,1.4,0,0,0,.28-.51,2.15,2.15,0,0,0,.09-.64V59.56h.85ZM45,60.3h-1v3.18a.82.82,0,0,0,0,.24.24.24,0,0,0,.1.14.33.33,0,0,0,.19.06l.32,0H45v.74H44.3a3.13,3.13,0,0,1-.56,0,.79.79,0,0,1-.37-.17.66.66,0,0,1-.22-.33,2.24,2.24,0,0,1-.07-.58V60.3h-.87v-.74h.87V58h.85v1.54h1Zm-.85-8.54a8,8,0,0,1-5,1.5,9.17,9.17,0,0,1-3.67-.68,7.21,7.21,0,0,1-2.61-1.92,8,8,0,0,1-1.59-2.94,13.6,13.6,0,0,1-.6-3.72,10.66,10.66,0,0,1,.61-3.69A8.88,8.88,0,0,1,33,37.41a7.94,7.94,0,0,1,2.63-1.92,8.09,8.09,0,0,1,3.33-.68,7.31,7.31,0,0,1,3.91,1,7.79,7.79,0,0,1,2.5,2.48,9.74,9.74,0,0,1,1.29,3.28,14.34,14.34,0,0,1,.3,3.38H33.71A7,7,0,0,0,34,47.13,4.83,4.83,0,0,0,35,49a4.75,4.75,0,0,0,1.74,1.28,6,6,0,0,0,2.49.48,5.05,5.05,0,0,0,3-.85,4.16,4.16,0,0,0,1.55-2.6h2.87A7.11,7.11,0,0,1,44.1,51.76Zm2,11.25a1.4,1.4,0,0,0,.28.54,1.49,1.49,0,0,0,.51.37,1.74,1.74,0,0,0,.72.14,1.43,1.43,0,0,0,.88-.25,1.17,1.17,0,0,0,.45-.75h.83a2.09,2.09,0,0,1-.74,1.3,2.35,2.35,0,0,1-1.45.43,2.48,2.48,0,0,1-1.06-.2,2,2,0,0,1-.76-.55,2.26,2.26,0,0,1-.46-.85,4.51,4.51,0,0,1-.18-1.08A3,3,0,0,1,45.33,61a2.65,2.65,0,0,1,.5-.85,2.36,2.36,0,0,1,.77-.55,2.32,2.32,0,0,1,1-.2,2.19,2.19,0,0,1,1.14.28,2.25,2.25,0,0,1,.72.72,2.91,2.91,0,0,1,.38,1,4.22,4.22,0,0,1,.08,1H46.05A1.91,1.91,0,0,0,46.13,63Zm2.43-15.29A14,14,0,0,1,48,44a10.66,10.66,0,0,1,.61-3.69,8.88,8.88,0,0,1,1.73-2.9,7.94,7.94,0,0,1,2.63-1.92,8.09,8.09,0,0,1,3.33-.68,7.31,7.31,0,0,1,3.91,1,7.79,7.79,0,0,1,2.5,2.48A9.74,9.74,0,0,1,64,41.54a14.34,14.34,0,0,1,.3,3.38H51a7,7,0,0,0,.28,2.21,4.83,4.83,0,0,0,1,1.84A4.75,4.75,0,0,0,54,50.25a6,6,0,0,0,2.49.48,5.05,5.05,0,0,0,3-.85,4.16,4.16,0,0,0,1.55-2.6H64a7.11,7.11,0,0,1-2.56,4.48,8,8,0,0,1-5,1.5,9.17,9.17,0,0,1-3.67-.68,7.21,7.21,0,0,1-2.61-1.92A8,8,0,0,1,48.56,47.72ZM53,60.33a2.42,2.42,0,0,0-.86.14,1.36,1.36,0,0,0-.58.41,1.64,1.64,0,0,0-.31.65,3.25,3.25,0,0,0-.1.87v2.28h-.84V59.56h.79v1.08h0a2.2,2.2,0,0,1,.75-.92A1.9,1.9,0,0,1,53,59.44Zm7.74,3.38a2.12,2.12,0,0,1-.65.65,2.88,2.88,0,0,1-.88.37,4.75,4.75,0,0,1-1,.11,4,4,0,0,1-1.12-.15,2.69,2.69,0,0,1-.93-.45,2.19,2.19,0,0,1-.64-.77,2.57,2.57,0,0,1-.23-1.12h.89a1.65,1.65,0,0,0,.17.77,1.58,1.58,0,0,0,.46.53,2,2,0,0,0,.66.31,2.86,2.86,0,0,0,.77.1,3.47,3.47,0,0,0,.64-.06,2,2,0,0,0,.58-.2,1.24,1.24,0,0,0,.42-.4,1.18,1.18,0,0,0,.15-.63.87.87,0,0,0-.19-.59,1.42,1.42,0,0,0-.51-.38,4.48,4.48,0,0,0-.73-.23l-.83-.18c-.28-.06-.56-.14-.83-.22a2.64,2.64,0,0,1-.72-.33,1.52,1.52,0,0,1-.52-.52,1.57,1.57,0,0,1-.19-.81,1.85,1.85,0,0,1,.79-1.57,2.86,2.86,0,0,1,.83-.38,3.67,3.67,0,0,1,.94-.12,3.58,3.58,0,0,1,1,.13,2.26,2.26,0,0,1,.82.41,1.9,1.9,0,0,1,.56.69,2.55,2.55,0,0,1,.22,1h-.89a1.52,1.52,0,0,0-.55-1.11,2.08,2.08,0,0,0-1.21-.34,2.86,2.86,0,0,0-.58.06,1.65,1.65,0,0,0-.51.2,1.06,1.06,0,0,0-.36.37,1.16,1.16,0,0,0-.13.58.72.72,0,0,0,.19.53,1.29,1.29,0,0,0,.52.33,4.09,4.09,0,0,0,.72.22c.28,0,.55.11.83.18s.56.14.83.23a2.92,2.92,0,0,1,.73.36,1.89,1.89,0,0,1,.51.58,1.75,1.75,0,0,1,.2.87A1.78,1.78,0,0,1,60.75,63.71Zm4.48.57a2.25,2.25,0,0,1-1.55.51,2.64,2.64,0,0,1-1-.19,1.93,1.93,0,0,1-.75-.53,2.29,2.29,0,0,1-.45-.83,3.21,3.21,0,0,1-.16-1.05,3.71,3.71,0,0,1,.15-1.08,2.57,2.57,0,0,1,.45-.87,2.23,2.23,0,0,1,.76-.59,2.51,2.51,0,0,1,1.06-.21,3.12,3.12,0,0,1,.82.11,1.89,1.89,0,0,1,.67.32,1.59,1.59,0,0,1,.48.55,1.88,1.88,0,0,1,.24.79H65a1.32,1.32,0,0,0-.42-.76,1.26,1.26,0,0,0-.85-.27,1.55,1.55,0,0,0-.76.17,1.33,1.33,0,0,0-.49.45,1.85,1.85,0,0,0-.27.64,3.67,3.67,0,0,0-.08.75,2.67,2.67,0,0,0,.09.69,1.79,1.79,0,0,0,.26.6,1.47,1.47,0,0,0,.47.42,1.34,1.34,0,0,0,.68.16,1.38,1.38,0,0,0,1-.33,1.53,1.53,0,0,0,.43-.92h.86A2.38,2.38,0,0,1,65.23,64.28Zm2,.4h-.85V59.56h.85Zm0-6h-.85v-1h.85ZM68.78,63a1.57,1.57,0,0,0,.29.54,1.45,1.45,0,0,0,.5.37,1.83,1.83,0,0,0,.73.14,1.4,1.4,0,0,0,.87-.25,1.23,1.23,0,0,0,.46-.75h.83a2.1,2.1,0,0,1-.75,1.3,2.3,2.3,0,0,1-1.44.43,2.52,2.52,0,0,1-1.07-.2,2.09,2.09,0,0,1-.76-.55,2.57,2.57,0,0,1-.46-.85,4.07,4.07,0,0,1-.17-1.08A3,3,0,0,1,68,61a2.48,2.48,0,0,1,.5-.85,2.32,2.32,0,0,1,.76-.55,2.4,2.4,0,0,1,1-.2,2.17,2.17,0,0,1,1.13.28,2.39,2.39,0,0,1,.73.72,2.89,2.89,0,0,1,.37,1,4.26,4.26,0,0,1,.09,1H68.7A2.2,2.2,0,0,0,68.78,63Zm8.37,1.67h-.84V61.22a1,1,0,0,0-.28-.76,1,1,0,0,0-.76-.28,1.71,1.71,0,0,0-.67.12,1.35,1.35,0,0,0-.47.34,1.58,1.58,0,0,0-.28.51,2.2,2.2,0,0,0-.09.64v2.89h-.85V59.56h.8v.81h0a1.77,1.77,0,0,1,1.66-.93,2.23,2.23,0,0,1,.84.14,1.31,1.31,0,0,1,.55.39,1.42,1.42,0,0,1,.29.59,2.93,2.93,0,0,1,.08.75ZM75.32,51.55a5.49,5.49,0,0,1-1.14-2.1,9.28,9.28,0,0,1-.36-2.65V45.33h.68V46.8A6.13,6.13,0,0,0,76,51.29a5.82,5.82,0,0,0,4.34,1.49,8.72,8.72,0,0,0,2.58-.34,4.34,4.34,0,0,0,1.88-1.13,5,5,0,0,0,1.16-2.08A11.35,11.35,0,0,0,86.32,46V28.49H87v18a10.21,10.21,0,0,1-.36,2.8,5.75,5.75,0,0,1-1.15,2.19,5,5,0,0,1-2.06,1.41,8.74,8.74,0,0,1-3.13.5,8,8,0,0,1-3-.5A5.34,5.34,0,0,1,75.32,51.55Zm6.22,12.73a2.25,2.25,0,0,1-1.55.51,2.61,2.61,0,0,1-1-.19,1.93,1.93,0,0,1-.75-.53,2.31,2.31,0,0,1-.46-.83,3.51,3.51,0,0,1-.15-1.05,3.71,3.71,0,0,1,.15-1.08,2.57,2.57,0,0,1,.45-.87,2.13,2.13,0,0,1,.76-.59A2.47,2.47,0,0,1,80,59.44a3,3,0,0,1,.81.11,1.94,1.94,0,0,1,.68.32,1.83,1.83,0,0,1,.48.55,2.22,2.22,0,0,1,.24.79h-.88a1.26,1.26,0,0,0-.41-.76,1.27,1.27,0,0,0-.85-.27,1.62,1.62,0,0,0-.77.17,1.42,1.42,0,0,0-.49.45,1.83,1.83,0,0,0-.26.64,3.67,3.67,0,0,0-.08.75,3.17,3.17,0,0,0,.08.69,2,2,0,0,0,.27.6,1.43,1.43,0,0,0,.46.42A1.58,1.58,0,0,0,81,63.73a1.43,1.43,0,0,0,.43-.92h.87A2.44,2.44,0,0,1,81.54,64.28ZM83.38,63a1.57,1.57,0,0,0,.29.54,1.4,1.4,0,0,0,.51.37,1.74,1.74,0,0,0,.72.14,1.43,1.43,0,0,0,.88-.25,1.17,1.17,0,0,0,.45-.75h.83a2.09,2.09,0,0,1-.74,1.3,2.35,2.35,0,0,1-1.45.43,2.48,2.48,0,0,1-1.06-.2,2,2,0,0,1-.76-.55,2.26,2.26,0,0,1-.46-.85,4.51,4.51,0,0,1-.18-1.08A3,3,0,0,1,82.59,61a2.65,2.65,0,0,1,.5-.85,2.36,2.36,0,0,1,.77-.55,2.32,2.32,0,0,1,1-.2,2.19,2.19,0,0,1,1.14.28,2.25,2.25,0,0,1,.72.72,2.91,2.91,0,0,1,.38,1,4.22,4.22,0,0,1,.08,1H83.31A2.21,2.21,0,0,0,83.38,63Z" style="fill: #231f20"/>
  </g>
</svg>
