<svg id="Layer_1" data-name="Layer 1" xmlns="http://www.w3.org/2000/svg" width="100" height="93.36" viewBox="0 0 100 93.36">
  <g>
    <path d="M23.36,34.12A7.61,7.61,0,0,1,29,36a7.21,7.21,0,0,1,1.89,5.31A7.24,7.24,0,0,1,29,46.65a7.4,7.4,0,0,1-5.59,1.88H15.92v10H12.67V34.12ZM22.27,45.8a5.8,5.8,0,0,0,4.05-1.13,4.3,4.3,0,0,0,1.28-3.35A4.27,4.27,0,0,0,26.32,38a6,6,0,0,0-4.05-1.14H15.92V45.8Z"/>
    <path d="M44.1,57.38a8,8,0,0,1-5,1.5,9,9,0,0,1-3.67-.68,7.07,7.07,0,0,1-2.61-1.91,8,8,0,0,1-1.59-2.94,13.66,13.66,0,0,1-.6-3.72,10.58,10.58,0,0,1,.61-3.69A8.82,8.82,0,0,1,33,43a7.85,7.85,0,0,1,6-2.59,7.22,7.22,0,0,1,3.91,1,7.7,7.7,0,0,1,2.5,2.48,9.88,9.88,0,0,1,1.3,3.28,14.81,14.81,0,0,1,.29,3.38H33.71a6.92,6.92,0,0,0,.28,2.2,4.82,4.82,0,0,0,2.73,3.13,6,6,0,0,0,2.49.48,5.05,5.05,0,0,0,3-.86,4.14,4.14,0,0,0,1.55-2.59h2.87A7.06,7.06,0,0,1,44.1,57.38ZM43.4,46a4.92,4.92,0,0,0-1.06-1.59,5.05,5.05,0,0,0-1.57-1.06,5,5,0,0,0-2-.39,5.07,5.07,0,0,0-2,.39,4.64,4.64,0,0,0-1.56,1.08,5,5,0,0,0-1,1.59A6.12,6.12,0,0,0,33.71,48H43.86A6,6,0,0,0,43.4,46Z"/>
    <path d="M61.42,57.38a8,8,0,0,1-5,1.5,9,9,0,0,1-3.67-.68,7.07,7.07,0,0,1-2.61-1.91,8,8,0,0,1-1.59-2.94,14.48,14.48,0,0,1-.6-3.72,10.58,10.58,0,0,1,.62-3.69A8.8,8.8,0,0,1,50.3,43a7.85,7.85,0,0,1,6-2.59,7.22,7.22,0,0,1,3.91,1,7.7,7.7,0,0,1,2.5,2.48A9.88,9.88,0,0,1,64,47.17a14.27,14.27,0,0,1,.29,3.38H51a6.65,6.65,0,0,0,.27,2.2,4.87,4.87,0,0,0,1,1.85A5,5,0,0,0,54,55.88a6,6,0,0,0,2.5.48,5,5,0,0,0,3-.86,4.14,4.14,0,0,0,1.55-2.59H64A7,7,0,0,1,61.42,57.38ZM60.72,46a4.77,4.77,0,0,0-1.06-1.59,5.05,5.05,0,0,0-1.57-1.06,5,5,0,0,0-2-.39,5.07,5.07,0,0,0-2,.39,4.74,4.74,0,0,0-1.56,1.08,5,5,0,0,0-1,1.59A5.85,5.85,0,0,0,51,48H61.18A5.8,5.8,0,0,0,60.72,46Z"/>
    <path d="M68.36,40.85v3.72h.06A8,8,0,0,1,71,41.39a6.51,6.51,0,0,1,3.9-1v3.07a8.2,8.2,0,0,0-3,.48,4.64,4.64,0,0,0-2,1.4,5.79,5.79,0,0,0-1.09,2.24,11.9,11.9,0,0,0-.34,3v7.86H65.62V40.85Z"/>
    <path d="M87,34.12v18A10.29,10.29,0,0,1,86.65,55a5.75,5.75,0,0,1-1.14,2.18,5.07,5.07,0,0,1-2.07,1.42,8.7,8.7,0,0,1-3.13.5,8,8,0,0,1-3-.5,5.23,5.23,0,0,1-2-1.38,5.52,5.52,0,0,1-1.15-2.1,9.33,9.33,0,0,1-.36-2.65V51h.68v1.47A6.15,6.15,0,0,0,76,56.92a5.86,5.86,0,0,0,4.34,1.49,8.7,8.7,0,0,0,2.58-.35,4.32,4.32,0,0,0,1.88-1.12,5,5,0,0,0,1.16-2.09,11.22,11.22,0,0,0,.4-3.21V34.12Z"/>
  </g>
</svg>
