<svg id="Layer_1" data-name="Layer 1" xmlns="http://www.w3.org/2000/svg" width="100" height="93.36" viewBox="0 0 100 93.36">
  <g>
    <path d="M43.4,39.25a4.92,4.92,0,0,0-1.06-1.59,5.05,5.05,0,0,0-1.57-1.06,5,5,0,0,0-2-.39,5.07,5.07,0,0,0-2,.39,4.64,4.64,0,0,0-1.56,1.08,5,5,0,0,0-1,1.59,6.12,6.12,0,0,0-.45,1.93H43.86A6,6,0,0,0,43.4,39.25Z"/>
    <path d="M22.27,30.06H15.91v9h6.36a5.8,5.8,0,0,0,4.05-1.13,4.3,4.3,0,0,0,1.28-3.35,4.27,4.27,0,0,0-1.28-3.33A6,6,0,0,0,22.27,30.06Z"/>
    <path d="M60.72,39.25a4.77,4.77,0,0,0-1.06-1.59,5.05,5.05,0,0,0-1.57-1.06,5,5,0,0,0-2-.39,5.07,5.07,0,0,0-2,.39,4.64,4.64,0,0,0-1.56,1.08,5,5,0,0,0-1,1.59A6.12,6.12,0,0,0,51,41.2H61.18A5.8,5.8,0,0,0,60.72,39.25Z"/>
    <path d="M99,0H1A1,1,0,0,0,0,1V92.36a1,1,0,0,0,1,1H99a1,1,0,0,0,1-1V1A1,1,0,0,0,99,0ZM80.31,51.62a8.7,8.7,0,0,0,2.58-.35,4.32,4.32,0,0,0,1.88-1.12,5,5,0,0,0,1.16-2.09,11.26,11.26,0,0,0,.39-3.21V27.33H87v18a10.29,10.29,0,0,1-.36,2.81,5.75,5.75,0,0,1-1.14,2.18,5.07,5.07,0,0,1-2.07,1.42,8.74,8.74,0,0,1-3.13.5,8,8,0,0,1-3-.5,5.34,5.34,0,0,1-2-1.38,5.6,5.6,0,0,1-1.14-2.11,9.21,9.21,0,0,1-.36-2.64V44.17h.68v1.47A6.15,6.15,0,0,0,76,50.13,5.86,5.86,0,0,0,80.31,51.62ZM65.62,34.06h2.74v3.72h.06A8,8,0,0,1,71,34.6a6.51,6.51,0,0,1,3.89-1v3.07a8.18,8.18,0,0,0-3,.48,4.73,4.73,0,0,0-2,1.4,5.79,5.79,0,0,0-1.09,2.24,11.9,11.9,0,0,0-.34,3v7.86H65.62ZM23.36,41.74H15.91v10H12.67V27.33H23.36A7.61,7.61,0,0,1,29,29.22a7.21,7.21,0,0,1,1.89,5.31A7.24,7.24,0,0,1,29,39.86,7.4,7.4,0,0,1,23.36,41.74Zm9.47,7.76a8,8,0,0,1-1.59-2.94,13.66,13.66,0,0,1-.6-3.72,10.58,10.58,0,0,1,.61-3.69A8.82,8.82,0,0,1,33,36.24a7.77,7.77,0,0,1,2.63-1.91,7.93,7.93,0,0,1,3.33-.68,7.22,7.22,0,0,1,3.91,1,7.7,7.7,0,0,1,2.5,2.48,9.88,9.88,0,0,1,1.3,3.28,14.81,14.81,0,0,1,.29,3.38H33.71A6.92,6.92,0,0,0,34,46a4.82,4.82,0,0,0,2.73,3.13,6,6,0,0,0,2.49.48,5.05,5.05,0,0,0,3-.86,4.14,4.14,0,0,0,1.55-2.59h2.87a7.06,7.06,0,0,1-2.56,4.47,8,8,0,0,1-5,1.5,9,9,0,0,1-3.67-.68A7.07,7.07,0,0,1,32.83,49.5Zm28.59,1.09a8,8,0,0,1-5,1.5,9,9,0,0,1-3.67-.68,7.07,7.07,0,0,1-2.61-1.91,8,8,0,0,1-1.59-2.94,14.06,14.06,0,0,1-.6-3.72,10.82,10.82,0,0,1,.61-3.69,9,9,0,0,1,1.73-2.91,7.77,7.77,0,0,1,2.63-1.91,7.93,7.93,0,0,1,3.33-.68,7.22,7.22,0,0,1,3.91,1,7.7,7.7,0,0,1,2.5,2.48A9.88,9.88,0,0,1,64,40.38a14.81,14.81,0,0,1,.29,3.38H51a6.92,6.92,0,0,0,.28,2.2,4.87,4.87,0,0,0,1,1.85A5,5,0,0,0,54,49.09a6,6,0,0,0,2.5.48,5,5,0,0,0,3-.86,4.14,4.14,0,0,0,1.55-2.59H64A7,7,0,0,1,61.42,50.59Z"/>
  </g>
</svg>
