<svg id="Layer_1" data-name="Layer 1" xmlns="http://www.w3.org/2000/svg" width="100" height="93.36" viewBox="0 0 100 93.36">
  <g>
    <path d="M23.36,27.24A7.61,7.61,0,0,1,29,29.13a7.22,7.22,0,0,1,1.89,5.32A7.26,7.26,0,0,1,29,39.78a7.48,7.48,0,0,1-5.59,1.88H15.91v10H12.67V27.24ZM22.27,38.92a5.8,5.8,0,0,0,4.05-1.12,4.31,4.31,0,0,0,1.28-3.35,4.24,4.24,0,0,0-1.28-3.33A6,6,0,0,0,22.27,30H15.91v9Z"/>
    <path d="M44.1,50.5a8,8,0,0,1-5,1.51,9,9,0,0,1-3.67-.69,7.07,7.07,0,0,1-2.61-1.91,8,8,0,0,1-1.59-2.94,13.66,13.66,0,0,1-.6-3.72,10.66,10.66,0,0,1,.61-3.69A8.77,8.77,0,0,1,33,36.16a7.94,7.94,0,0,1,2.63-1.92,8.09,8.09,0,0,1,3.33-.68,7.22,7.22,0,0,1,3.91,1A7.79,7.79,0,0,1,45.35,37a9.74,9.74,0,0,1,1.29,3.28,14.3,14.3,0,0,1,.3,3.38H33.71A7,7,0,0,0,34,45.88a4.83,4.83,0,0,0,1,1.84A4.75,4.75,0,0,0,36.72,49a6,6,0,0,0,2.49.48,5,5,0,0,0,3-.86A4.11,4.11,0,0,0,43.79,46h2.87A7.06,7.06,0,0,1,44.1,50.5Zm-.7-11.34a5.15,5.15,0,0,0-1.06-1.59,5.23,5.23,0,0,0-1.57-1.06,5,5,0,0,0-2-.39,5.07,5.07,0,0,0-2,.39,4.79,4.79,0,0,0-1.56,1.08,5.28,5.28,0,0,0-1,1.59,6.19,6.19,0,0,0-.45,1.93H43.86A6.17,6.17,0,0,0,43.4,39.16Z"/>
    <path d="M61.42,50.5a8,8,0,0,1-5,1.51,9,9,0,0,1-3.67-.69,7.07,7.07,0,0,1-2.61-1.91,8,8,0,0,1-1.59-2.94,14.06,14.06,0,0,1-.6-3.72,10.66,10.66,0,0,1,.61-3.69,8.77,8.77,0,0,1,1.73-2.9,7.94,7.94,0,0,1,2.63-1.92,8.09,8.09,0,0,1,3.33-.68,7.22,7.22,0,0,1,3.91,1A7.79,7.79,0,0,1,62.67,37,9.74,9.74,0,0,1,64,40.29a14.3,14.3,0,0,1,.3,3.38H51a7,7,0,0,0,.28,2.21,4.83,4.83,0,0,0,1,1.84A4.75,4.75,0,0,0,54,49a6,6,0,0,0,2.49.48,5,5,0,0,0,3-.86A4.11,4.11,0,0,0,61.11,46H64A7.06,7.06,0,0,1,61.42,50.5Zm-.7-11.34a5.15,5.15,0,0,0-1.06-1.59,5.23,5.23,0,0,0-1.57-1.06,5,5,0,0,0-2-.39,5.07,5.07,0,0,0-2,.39,4.79,4.79,0,0,0-1.56,1.08,5.28,5.28,0,0,0-1,1.59A6.19,6.19,0,0,0,51,41.11H61.18A6.17,6.17,0,0,0,60.72,39.16Z"/>
    <path d="M68.35,34v3.72h.07A7.85,7.85,0,0,1,71,34.52a6.43,6.43,0,0,1,3.89-1v3.07a8.18,8.18,0,0,0-3,.48,4.73,4.73,0,0,0-2,1.4,5.72,5.72,0,0,0-1.09,2.24,12,12,0,0,0-.34,3v7.86H65.62V34Z"/>
    <path d="M87,27.24v18a10.21,10.21,0,0,1-.36,2.8,5.75,5.75,0,0,1-1.15,2.19,5,5,0,0,1-2.06,1.41,8.74,8.74,0,0,1-3.13.5,8,8,0,0,1-3-.5,5.34,5.34,0,0,1-2-1.38,5.49,5.49,0,0,1-1.14-2.1,9.28,9.28,0,0,1-.36-2.65V44.08h.68v1.47A6.15,6.15,0,0,0,76,50a5.86,5.86,0,0,0,4.34,1.49,8.72,8.72,0,0,0,2.58-.34,4.44,4.44,0,0,0,1.88-1.13A5,5,0,0,0,85.93,48a11.38,11.38,0,0,0,.39-3.22V27.24Z"/>
  </g>
  <g>
    <path d="M12.37,59.34A3.3,3.3,0,0,1,13,58.2a2.86,2.86,0,0,1,1-.79,3.51,3.51,0,0,1,2.84,0,2.86,2.86,0,0,1,1,.79,3.3,3.3,0,0,1,.61,1.14,4.27,4.27,0,0,1,.21,1.34A4.32,4.32,0,0,1,18.47,62a3.34,3.34,0,0,1-.61,1.13,2.75,2.75,0,0,1-1,.79,3.62,3.62,0,0,1-2.84,0,2.75,2.75,0,0,1-1-.79A3.34,3.34,0,0,1,12.37,62a4.32,4.32,0,0,1-.21-1.34A4.27,4.27,0,0,1,12.37,59.34Zm.83,2.35a2.66,2.66,0,0,0,.42.9,2.18,2.18,0,0,0,.73.65,2.51,2.51,0,0,0,2.14,0,2.18,2.18,0,0,0,.73-.65,2.66,2.66,0,0,0,.42-.9,4,4,0,0,0,0-2,2.86,2.86,0,0,0-.42-.9,2.05,2.05,0,0,0-.73-.64,2.41,2.41,0,0,0-2.14,0,2.05,2.05,0,0,0-.73.64,2.86,2.86,0,0,0-.42.9,4,4,0,0,0,0,2Z"/>
    <path d="M20.1,59.15v1h0a2.27,2.27,0,0,1,.72-.89A1.79,1.79,0,0,1,21.93,59v.85a2.29,2.29,0,0,0-.83.14,1.31,1.31,0,0,0-.55.39,1.72,1.72,0,0,0-.31.62,3.63,3.63,0,0,0-.09.85v2.19h-.81V59.15Z"/>
    <path d="M26,65.47a2.24,2.24,0,0,1-1.73.6,3.39,3.39,0,0,1-.7-.07,2.51,2.51,0,0,1-.65-.25,1.59,1.59,0,0,1-.48-.45,1.22,1.22,0,0,1-.21-.68H23a.58.58,0,0,0,.14.37.84.84,0,0,0,.31.25,1.42,1.42,0,0,0,.41.14,2,2,0,0,0,.42,0,1.51,1.51,0,0,0,.67-.13,1.25,1.25,0,0,0,.46-.39,1.47,1.47,0,0,0,.26-.58,3,3,0,0,0,.08-.76v-.32h0a1.37,1.37,0,0,1-.63.67,1.87,1.87,0,0,1-.9.22,2.19,2.19,0,0,1-1-.2,2.08,2.08,0,0,1-.69-.54,2.38,2.38,0,0,1-.41-.79,3.06,3.06,0,0,1-.14-1,4.1,4.1,0,0,1,.11-.9,2.67,2.67,0,0,1,.38-.84,2.14,2.14,0,0,1,.71-.62A2.21,2.21,0,0,1,24.27,59a1.87,1.87,0,0,1,.85.2,1.41,1.41,0,0,1,.61.62h0v-.71h.77v4.51A2.58,2.58,0,0,1,26,65.47Zm-1-2.22a1.24,1.24,0,0,0,.45-.43,1.88,1.88,0,0,0,.25-.62,2.61,2.61,0,0,0,0-1.32,1.81,1.81,0,0,0-.24-.57A1.44,1.44,0,0,0,25,59.9a1.3,1.3,0,0,0-.65-.15,1.35,1.35,0,0,0-1.12.54,1.79,1.79,0,0,0-.25.58,2.46,2.46,0,0,0-.08.67,3.71,3.71,0,0,0,.06.67,2.14,2.14,0,0,0,.23.61,1.26,1.26,0,0,0,.43.43,1.17,1.17,0,0,0,.67.17A1.25,1.25,0,0,0,24.92,63.25Z"/>
    <path d="M31.81,64.06a1.21,1.21,0,0,1-.59.12.74.74,0,0,1-.5-.17.79.79,0,0,1-.18-.58,1.9,1.9,0,0,1-.78.58,2.69,2.69,0,0,1-1,.17,2.59,2.59,0,0,1-.63-.07,1.46,1.46,0,0,1-.52-.24,1.19,1.19,0,0,1-.35-.42,1.55,1.55,0,0,1-.13-.64,1.41,1.41,0,0,1,.15-.69,1.28,1.28,0,0,1,.37-.43,1.91,1.91,0,0,1,.54-.25,4.15,4.15,0,0,1,.61-.14,5.27,5.27,0,0,1,.64-.1,4.83,4.83,0,0,0,.52-.1.85.85,0,0,0,.37-.18.45.45,0,0,0,.13-.35.78.78,0,0,0-.1-.43.69.69,0,0,0-.26-.25,1.2,1.2,0,0,0-.35-.11,2.56,2.56,0,0,0-.39,0,1.67,1.67,0,0,0-.85.2.83.83,0,0,0-.38.74h-.81a1.94,1.94,0,0,1,.19-.78A1.51,1.51,0,0,1,28,59.4a2,2,0,0,1,.66-.28,3.81,3.81,0,0,1,.78-.08,4.87,4.87,0,0,1,.66,0,1.93,1.93,0,0,1,.6.2,1.21,1.21,0,0,1,.43.41,1.32,1.32,0,0,1,.16.7v2.53a2.12,2.12,0,0,0,0,.42.22.22,0,0,0,.23.13.92.92,0,0,0,.25,0Zm-1.32-2.54a.87.87,0,0,1-.4.17c-.17,0-.34.06-.52.09l-.55.07a2.18,2.18,0,0,0-.49.14,1,1,0,0,0-.36.27.78.78,0,0,0-.14.48.68.68,0,0,0,.08.34.93.93,0,0,0,.21.23,1,1,0,0,0,.3.12,1.47,1.47,0,0,0,.36,0,2,2,0,0,0,.69-.11,1.43,1.43,0,0,0,.47-.28,1,1,0,0,0,.26-.36.87.87,0,0,0,.09-.37Z"/>
    <path d="M33,59.15v.78h0A1.7,1.7,0,0,1,34.66,59a2.15,2.15,0,0,1,.81.13,1.33,1.33,0,0,1,.52.37,1.39,1.39,0,0,1,.28.57,2.77,2.77,0,0,1,.08.73v3.24h-.81V60.74a.93.93,0,0,0-1-1,1.56,1.56,0,0,0-.64.12,1.23,1.23,0,0,0-.46.32,1.37,1.37,0,0,0-.27.49,2,2,0,0,0-.09.62v2.78h-.81V59.15Z"/>
    <path d="M37.33,58.26v-1h.81v1Zm.81.89v4.93h-.81V59.15Z"/>
    <path d="M42.06,60a1.22,1.22,0,0,0-.82-.26,1.58,1.58,0,0,0-.73.16,1.31,1.31,0,0,0-.47.43,1.81,1.81,0,0,0-.26.62,3.38,3.38,0,0,0-.07.72,2.39,2.39,0,0,0,.08.66,1.79,1.79,0,0,0,.25.58,1.37,1.37,0,0,0,.45.41,1.54,1.54,0,0,0,1.6-.17,1.43,1.43,0,0,0,.41-.88h.83a2.3,2.3,0,0,1-.68,1.41,2.14,2.14,0,0,1-1.49.49,2.59,2.59,0,0,1-1-.18,1.89,1.89,0,0,1-.72-.51,2,2,0,0,1-.44-.8,3.24,3.24,0,0,1-.15-1,3.84,3.84,0,0,1,.14-1,2.41,2.41,0,0,1,.44-.84,2.06,2.06,0,0,1,.73-.56,2.46,2.46,0,0,1,1-.2,2.85,2.85,0,0,1,.79.1,1.78,1.78,0,0,1,.65.31,1.58,1.58,0,0,1,.46.53,1.89,1.89,0,0,1,.23.75h-.84A1.22,1.22,0,0,0,42.06,60Z"/>
    <path d="M50.56,58.24a2.06,2.06,0,0,0-1.23-.37,2.26,2.26,0,0,0-1,.23,1.94,1.94,0,0,0-.71.62,2.56,2.56,0,0,0-.42.88,3.88,3.88,0,0,0-.13,1,4.36,4.36,0,0,0,.13,1.1,2.5,2.5,0,0,0,.42.9,1.89,1.89,0,0,0,.72.62,2.26,2.26,0,0,0,1.05.23,2,2,0,0,0,.79-.15,1.78,1.78,0,0,0,.6-.41,1.89,1.89,0,0,0,.4-.62,2.85,2.85,0,0,0,.17-.79h.9a3.08,3.08,0,0,1-.88,2,2.9,2.9,0,0,1-2.06.71A3.27,3.27,0,0,1,47.88,64a2.74,2.74,0,0,1-1-.75,3.22,3.22,0,0,1-.58-1.12,4.81,4.81,0,0,1-.2-1.39,4.51,4.51,0,0,1,.21-1.4,3.3,3.3,0,0,1,.62-1.14,2.89,2.89,0,0,1,1-.77,3.35,3.35,0,0,1,1.39-.28,3.73,3.73,0,0,1,1,.14,2.88,2.88,0,0,1,.84.42,2.4,2.4,0,0,1,.62.69,2.49,2.49,0,0,1,.33,1h-.91A1.65,1.65,0,0,0,50.56,58.24Z"/>
    <path d="M53.72,57.27v2.61h0a.91.91,0,0,1,.27-.39,1.42,1.42,0,0,1,.38-.26,3,3,0,0,1,.45-.15,2.42,2.42,0,0,1,.45,0,2.08,2.08,0,0,1,.81.13,1.37,1.37,0,0,1,.53.37,1.52,1.52,0,0,1,.28.57,3.26,3.26,0,0,1,.08.73v3.24h-.81V60.74a.93.93,0,0,0-1-1,1.6,1.6,0,0,0-.65.12,1.12,1.12,0,0,0-.45.32,1.37,1.37,0,0,0-.27.49,2,2,0,0,0-.09.62v2.78h-.81V57.27Z"/>
    <path d="M61.41,63.76a2.23,2.23,0,0,1-1.39.42A2.44,2.44,0,0,1,59,64a1.86,1.86,0,0,1-.73-.53,2.25,2.25,0,0,1-.45-.82,3.78,3.78,0,0,1-.16-1,2.86,2.86,0,0,1,.17-1,2.35,2.35,0,0,1,.48-.81,2,2,0,0,1,.73-.53A2.21,2.21,0,0,1,60,59a2,2,0,0,1,1.09.27,2.2,2.2,0,0,1,.7.69,2.89,2.89,0,0,1,.36.91,4,4,0,0,1,.08,1H58.51a2,2,0,0,0,.08.61,1.38,1.38,0,0,0,.28.52,1.22,1.22,0,0,0,.48.35,1.68,1.68,0,0,0,.7.14,1.39,1.39,0,0,0,.84-.24,1.16,1.16,0,0,0,.44-.72h.8A1.94,1.94,0,0,1,61.41,63.76Zm-.19-3.16a1.55,1.55,0,0,0-.3-.44,1.23,1.23,0,0,0-.44-.3,1.48,1.48,0,0,0-1.12,0,1.23,1.23,0,0,0-.44.3,1.57,1.57,0,0,0-.28.44,1.94,1.94,0,0,0-.13.54h2.83A1.63,1.63,0,0,0,61.22,60.6Z"/>
    <path d="M63.52,59.15v.73h0A1.92,1.92,0,0,1,66,59.23a1,1,0,0,1,.52.65,1.7,1.7,0,0,1,.66-.62A1.78,1.78,0,0,1,68,59a2.37,2.37,0,0,1,.67.08,1.35,1.35,0,0,1,.51.25,1.07,1.07,0,0,1,.34.44,1.62,1.62,0,0,1,.12.66v3.61h-.81V60.85a2.86,2.86,0,0,0,0-.43.85.85,0,0,0-.15-.35.61.61,0,0,0-.29-.23,1.08,1.08,0,0,0-.48-.09,1.3,1.3,0,0,0-.94.34,1.25,1.25,0,0,0-.34.92v3.07h-.81V60.85a2,2,0,0,0,0-.44,1.22,1.22,0,0,0-.14-.35.74.74,0,0,0-.29-.23,1.1,1.1,0,0,0-.45-.08,1.24,1.24,0,0,0-.6.14,1.29,1.29,0,0,0-.41.35,1.13,1.13,0,0,0-.23.41,1.08,1.08,0,0,0-.07.36v3.07h-.81V59.15Z"/>
    <path d="M70.65,58.26v-1h.81v1Zm.81.89v4.93h-.81V59.15Z"/>
    <path d="M73.05,63a.92.92,0,0,0,.3.29,1.11,1.11,0,0,0,.42.16,2.52,2.52,0,0,0,.48,0l.4,0a1.25,1.25,0,0,0,.39-.11.7.7,0,0,0,.29-.22.63.63,0,0,0,.11-.38.54.54,0,0,0-.24-.47,1.7,1.7,0,0,0-.59-.26,7.5,7.5,0,0,0-.78-.18,5.5,5.5,0,0,1-.78-.23,1.67,1.67,0,0,1-.59-.42,1.06,1.06,0,0,1-.24-.74,1.2,1.2,0,0,1,.17-.64,1.26,1.26,0,0,1,.43-.43,1.65,1.65,0,0,1,.59-.25,2.41,2.41,0,0,1,.65-.08,3.67,3.67,0,0,1,.77.07,1.77,1.77,0,0,1,.63.25,1.22,1.22,0,0,1,.43.47,1.8,1.8,0,0,1,.19.75h-.81a.75.75,0,0,0-.12-.39.84.84,0,0,0-.27-.26,1.42,1.42,0,0,0-.36-.14,2.58,2.58,0,0,0-.39,0,2.31,2.31,0,0,0-.37,0,1.22,1.22,0,0,0-.34.1.79.79,0,0,0-.25.19.5.5,0,0,0-.09.31.45.45,0,0,0,.15.35,1.23,1.23,0,0,0,.37.23,3.55,3.55,0,0,0,.52.15l.57.13c.2,0,.4.1.6.16a2,2,0,0,1,.51.25,1.25,1.25,0,0,1,.36.4,1.17,1.17,0,0,1,.14.59,1.29,1.29,0,0,1-.19.74,1.38,1.38,0,0,1-.48.48,2.12,2.12,0,0,1-.68.25,3.81,3.81,0,0,1-.75.07,3.33,3.33,0,0,1-.78-.08,2.06,2.06,0,0,1-.66-.28,1.34,1.34,0,0,1-.45-.52,1.65,1.65,0,0,1-.19-.77h.81A.84.84,0,0,0,73.05,63Z"/>
    <path d="M79,59.15v.72H78v3.06a.65.65,0,0,0,0,.22.19.19,0,0,0,.09.14.43.43,0,0,0,.19.06H79v.72H78.4a4,4,0,0,1-.54,0,.75.75,0,0,1-.36-.16.7.7,0,0,1-.21-.33,1.94,1.94,0,0,1-.07-.55V59.87h-.83v-.72h.83V57.67H78v1.48Z"/>
    <path d="M80.36,59.15v1h0a2.27,2.27,0,0,1,.72-.89A1.79,1.79,0,0,1,82.19,59v.85a2.29,2.29,0,0,0-.83.14,1.31,1.31,0,0,0-.55.39,1.72,1.72,0,0,0-.31.62,3.63,3.63,0,0,0-.09.85v2.19H79.6V59.15Z"/>
    <path d="M84.93,64.74a5,5,0,0,1-.29.61,1.61,1.61,0,0,1-.3.4A1,1,0,0,1,84,66a1.9,1.9,0,0,1-1,0v-.75l.25.08a.74.74,0,0,0,.23,0,.72.72,0,0,0,.42-.12.74.74,0,0,0,.25-.34l.33-.83-2-4.9h.91l1.44,4h0l1.38-4h.86Z"/>
  </g>
</svg>
