<svg id="Layer_1" data-name="Layer 1" xmlns="http://www.w3.org/2000/svg" width="100" height="93.36" viewBox="0 0 100 93.36">
  <g>
    <path d="M34.07,57a2.21,2.21,0,0,1,1.64.55,2.11,2.11,0,0,1,.55,1.56,2.14,2.14,0,0,1-.55,1.56,2.21,2.21,0,0,1-1.64.55H31.89v2.92h-.95V57Zm-.32,3.42a1.78,1.78,0,0,0,1.19-.33,1.27,1.27,0,0,0,.37-1,1.24,1.24,0,0,0-.37-1,1.78,1.78,0,0,0-1.19-.33H31.89v2.62Z"/>
    <path d="M37.76,58.94V60h0a2.35,2.35,0,0,1,.77-.93,1.85,1.85,0,0,1,1.13-.28v.9a2.34,2.34,0,0,0-.87.14,1.36,1.36,0,0,0-.58.41,1.64,1.64,0,0,0-.31.65,3.38,3.38,0,0,0-.11.89v2.3H37V58.94Z"/>
    <path d="M43.73,63.78a2.4,2.4,0,0,1-1.47.44,2.69,2.69,0,0,1-1.07-.2,2.28,2.28,0,0,1-.77-.56A2.45,2.45,0,0,1,40,62.6a4.21,4.21,0,0,1-.17-1.09A2.85,2.85,0,0,1,40,60.43a2.48,2.48,0,0,1,.5-.85,2.3,2.3,0,0,1,1.75-.76,2.12,2.12,0,0,1,1.14.28,2.21,2.21,0,0,1,.73.73,2.88,2.88,0,0,1,.38,1,4.24,4.24,0,0,1,.09,1H40.68a2.67,2.67,0,0,0,.08.64,1.76,1.76,0,0,0,.29.54,1.56,1.56,0,0,0,.52.38,1.76,1.76,0,0,0,.73.14,1.5,1.5,0,0,0,.88-.25,1.2,1.2,0,0,0,.45-.76h.85A2.14,2.14,0,0,1,43.73,63.78Zm-.21-3.32a1.54,1.54,0,0,0-.31-.47,1.49,1.49,0,0,0-.46-.31,1.4,1.4,0,0,0-.58-.11,1.46,1.46,0,0,0-.6.11,1.23,1.23,0,0,0-.45.32,1.49,1.49,0,0,0-.31.46,2.15,2.15,0,0,0-.13.57h3A1.83,1.83,0,0,0,43.52,60.46Z"/>
    <path d="M46.07,58.94v.7h0a1.23,1.23,0,0,1,.66-.63,2.46,2.46,0,0,1,1-.19,2.31,2.31,0,0,1,1,.22,2,2,0,0,1,.74.59,2.57,2.57,0,0,1,.45.87,3.49,3.49,0,0,1,.15,1,3.58,3.58,0,0,1-.15,1,2.45,2.45,0,0,1-.44.85,2.12,2.12,0,0,1-.74.58,2.4,2.4,0,0,1-1,.21,3.62,3.62,0,0,1-.43,0,2.42,2.42,0,0,1-.46-.13,1.61,1.61,0,0,1-.44-.25,1.24,1.24,0,0,1-.34-.38h0v2.66h-.85V58.94Zm3,1.83a1.81,1.81,0,0,0-.29-.61,1.38,1.38,0,0,0-.5-.43,1.48,1.48,0,0,0-1.93.45,1.81,1.81,0,0,0-.28.63,2.81,2.81,0,0,0-.08.71,3,3,0,0,0,.09.73,1.64,1.64,0,0,0,.28.63,1.43,1.43,0,0,0,.51.43,1.54,1.54,0,0,0,.75.17,1.36,1.36,0,0,0,1.21-.62,2.15,2.15,0,0,0,.26-.64,3.65,3.65,0,0,0,.08-.74A2.83,2.83,0,0,0,49.12,60.77Z"/>
    <path d="M51.52,58.94V60h0a2.25,2.25,0,0,1,.76-.93,1.86,1.86,0,0,1,1.14-.28v.9a2.27,2.27,0,0,0-.87.14,1.3,1.3,0,0,0-.58.41,1.53,1.53,0,0,0-.32.65,3.41,3.41,0,0,0-.1.89v2.3h-.85V58.94Z"/>
    <path d="M54,58V57h.85v1Zm.85.93v5.17H54V58.94Z"/>
    <path d="M56.55,58.94v.82h0a1.78,1.78,0,0,1,1.68-.94,2.13,2.13,0,0,1,.85.14,1.38,1.38,0,0,1,.55.39,1.42,1.42,0,0,1,.29.59,3.07,3.07,0,0,1,.09.77v3.4h-.85v-3.5a1,1,0,0,0-1-1,1.76,1.76,0,0,0-.68.12A1.17,1.17,0,0,0,57,60a1.28,1.28,0,0,0-.29.51,2.22,2.22,0,0,0-.09.65v2.92h-.85V58.94Z"/>
    <path d="M63.22,58.94v.75h-1V62.9a.82.82,0,0,0,0,.24.28.28,0,0,0,.1.14.43.43,0,0,0,.19.06l.33,0h.39v.75h-.65a3.1,3.1,0,0,1-.57,0,.83.83,0,0,1-.38-.16.66.66,0,0,1-.21-.34,1.87,1.87,0,0,1-.07-.58V59.69h-.88v-.75h.88V57.39h.85v1.55Z"/>
    <path d="M64.61,63a.92.92,0,0,0,.31.31,1.55,1.55,0,0,0,.44.17,2.76,2.76,0,0,0,.51,0l.42,0a1.68,1.68,0,0,0,.4-.11A.83.83,0,0,0,67,63.1a.61.61,0,0,0,.12-.39.58.58,0,0,0-.25-.5,2,2,0,0,0-.63-.28c-.25-.07-.52-.13-.81-.19a4.65,4.65,0,0,1-.82-.24,1.64,1.64,0,0,1-.62-.43,1.13,1.13,0,0,1-.25-.78,1.28,1.28,0,0,1,.17-.67,1.52,1.52,0,0,1,.45-.46A2.14,2.14,0,0,1,65,58.9a2.71,2.71,0,0,1,.69-.08,4.14,4.14,0,0,1,.81.07,2,2,0,0,1,.65.26,1.39,1.39,0,0,1,.46.5,2,2,0,0,1,.2.79h-.85a1,1,0,0,0-.13-.42.86.86,0,0,0-.28-.26,1.26,1.26,0,0,0-.38-.15,1.9,1.9,0,0,0-.41,0,2.56,2.56,0,0,0-.39,0,1.2,1.2,0,0,0-.35.1.67.67,0,0,0-.26.2.48.48,0,0,0-.1.33.49.49,0,0,0,.15.36,1.12,1.12,0,0,0,.4.24,3.46,3.46,0,0,0,.54.16l.6.14a4.37,4.37,0,0,1,.62.17,1.7,1.7,0,0,1,.54.26,1.18,1.18,0,0,1,.38.42,1.16,1.16,0,0,1,.15.62,1.46,1.46,0,0,1-.2.78,1.62,1.62,0,0,1-.51.5,2.22,2.22,0,0,1-.71.26,4.13,4.13,0,0,1-.78.08,3.62,3.62,0,0,1-.82-.09,2,2,0,0,1-.69-.3,1.48,1.48,0,0,1-.48-.54,1.79,1.79,0,0,1-.2-.81h.85A.89.89,0,0,0,64.61,63Z"/>
  </g>
</svg>
