<svg id="Layer_1" data-name="Layer 1" xmlns="http://www.w3.org/2000/svg" width="100" height="93.36" viewBox="0 0 100 93.36">
  <g>
    <path d="M16.65,58.61a2.21,2.21,0,0,0-1.29-.38,2.27,2.27,0,0,0-1.08.24,2.09,2.09,0,0,0-.74.64,2.6,2.6,0,0,0-.43.92A3.79,3.79,0,0,0,13,61.1a4.24,4.24,0,0,0,.14,1.14,2.61,2.61,0,0,0,.43.94,2.09,2.09,0,0,0,.74.64,2.34,2.34,0,0,0,1.09.24,2,2,0,0,0,.83-.16,1.93,1.93,0,0,0,.63-.42,2.06,2.06,0,0,0,.41-.65,2.66,2.66,0,0,0,.18-.81h.94a3.23,3.23,0,0,1-.93,2.08,3,3,0,0,1-2.13.74,3.4,3.4,0,0,1-1.44-.28,2.84,2.84,0,0,1-1-.78,3.26,3.26,0,0,1-.61-1.17,4.82,4.82,0,0,1-.2-1.44,5,5,0,0,1,.21-1.46,3.63,3.63,0,0,1,.64-1.18,3,3,0,0,1,1-.8,3.46,3.46,0,0,1,1.44-.29,3.6,3.6,0,0,1,1.05.15,2.83,2.83,0,0,1,.89.43,2.76,2.76,0,0,1,.64.72,2.82,2.82,0,0,1,.34,1h-.94A1.77,1.77,0,0,0,16.65,58.61Z"/>
    <path d="M18.9,61.07a2.44,2.44,0,0,1,.48-.85,2.25,2.25,0,0,1,.78-.57,2.59,2.59,0,0,1,1.07-.21,2.52,2.52,0,0,1,1.07.21,2.25,2.25,0,0,1,.78.57,2.44,2.44,0,0,1,.48.85,3.56,3.56,0,0,1,0,2.11,2.49,2.49,0,0,1-.48.84,2.13,2.13,0,0,1-.78.57,2.69,2.69,0,0,1-1.07.2,2.76,2.76,0,0,1-1.07-.2,2.13,2.13,0,0,1-.78-.57,2.49,2.49,0,0,1-.48-.84,3.56,3.56,0,0,1,0-2.11ZM19.76,63a1.64,1.64,0,0,0,.34.61,1.67,1.67,0,0,0,.51.37,1.44,1.44,0,0,0,.62.13,1.47,1.47,0,0,0,.62-.13,1.67,1.67,0,0,0,.51-.37A1.79,1.79,0,0,0,22.7,63a2.57,2.57,0,0,0,.12-.82,2.64,2.64,0,0,0-.12-.83,1.89,1.89,0,0,0-.34-.61,1.55,1.55,0,0,0-.51-.38,1.64,1.64,0,0,0-.62-.13,1.6,1.6,0,0,0-.62.13,1.55,1.55,0,0,0-.51.38,1.72,1.72,0,0,0-.34.61,2.37,2.37,0,0,0-.13.83A2.31,2.31,0,0,0,19.76,63Z"/>
    <path d="M25,59.56v.75h0a2,2,0,0,1,2.52-.67,1.13,1.13,0,0,1,.55.67,1.79,1.79,0,0,1,.67-.64,1.94,1.94,0,0,1,.93-.23,2.53,2.53,0,0,1,.7.09,1.32,1.32,0,0,1,.53.26,1.15,1.15,0,0,1,.35.46,1.72,1.72,0,0,1,.12.68v3.75h-.84V61.32a2.12,2.12,0,0,0,0-.44.73.73,0,0,0-.15-.36.68.68,0,0,0-.3-.25,1.18,1.18,0,0,0-.5-.09,1.31,1.31,0,0,0-1,.36,1.29,1.29,0,0,0-.36,1v3.19h-.84V61.32a2.15,2.15,0,0,0,0-.45.85.85,0,0,0-.16-.36.68.68,0,0,0-.29-.24,1.06,1.06,0,0,0-.47-.09,1.28,1.28,0,0,0-.63.15,1.36,1.36,0,0,0-.42.36,1.42,1.42,0,0,0-.24.43,1.24,1.24,0,0,0-.08.37v3.19h-.84V59.56Z"/>
    <path d="M32.74,59.56v.69h0a1.29,1.29,0,0,1,.66-.62,2.55,2.55,0,0,1,1-.19,2.23,2.23,0,0,1,1,.22,2.11,2.11,0,0,1,.73.59,2.52,2.52,0,0,1,.45.86,3.77,3.77,0,0,1,.14,1,3.51,3.51,0,0,1-.14,1,2.41,2.41,0,0,1-.44.84,2.06,2.06,0,0,1-.73.57,2.35,2.35,0,0,1-1,.21,2.29,2.29,0,0,1-.43,0,2.13,2.13,0,0,1-.46-.13,2,2,0,0,1-.43-.24,1.38,1.38,0,0,1-.34-.38h0v2.63H31.9V59.56Zm3,1.82a1.81,1.81,0,0,0-.29-.61,1.45,1.45,0,0,0-.49-.43,1.61,1.61,0,0,0-.71-.16,1.49,1.49,0,0,0-.73.17,1.56,1.56,0,0,0-.48.44,1.72,1.72,0,0,0-.27.62,2.89,2.89,0,0,0,0,1.43,1.68,1.68,0,0,0,.28.62,1.52,1.52,0,0,0,.5.44,1.73,1.73,0,0,0,.75.16,1.42,1.42,0,0,0,.72-.17,1.3,1.3,0,0,0,.48-.45,2,2,0,0,0,.25-.63,3,3,0,0,0,.08-.73A2.74,2.74,0,0,0,35.77,61.38Z"/>
    <path d="M40.6,64.68v-.81h0a1.72,1.72,0,0,1-.69.7,2,2,0,0,1-1,.22,2.32,2.32,0,0,1-.84-.13,1.43,1.43,0,0,1-.54-.38,1.5,1.5,0,0,1-.3-.59,3.55,3.55,0,0,1-.08-.76V59.56H38V63a1,1,0,0,0,.28.75,1,1,0,0,0,.76.28,1.71,1.71,0,0,0,.67-.12,1.17,1.17,0,0,0,.47-.34,1.27,1.27,0,0,0,.28-.51,1.87,1.87,0,0,0,.1-.64V59.56h.84v5.12Z"/>
    <path d="M44.53,59.56v.74h-1v3.18a.78.78,0,0,0,0,.24.19.19,0,0,0,.09.14.33.33,0,0,0,.19.06l.32,0h.39v.74h-.64a3,3,0,0,1-.56,0,.83.83,0,0,1-.38-.17.59.59,0,0,1-.21-.33,1.87,1.87,0,0,1-.07-.58V60.3H41.8v-.74h.87V58h.84v1.54Z"/>
    <path d="M48.64,64.36a2.3,2.3,0,0,1-1.44.43,2.52,2.52,0,0,1-1.07-.2,2.09,2.09,0,0,1-.76-.55,2.4,2.4,0,0,1-.46-.85,4.07,4.07,0,0,1-.17-1.08A3,3,0,0,1,44.92,61a2.48,2.48,0,0,1,.5-.85,2.32,2.32,0,0,1,.76-.55,2.37,2.37,0,0,1,1-.2,2.17,2.17,0,0,1,1.13.28,2.25,2.25,0,0,1,.72.72,2.71,2.71,0,0,1,.38,1,3.74,3.74,0,0,1,.08,1H45.63a1.91,1.91,0,0,0,.08.64,1.42,1.42,0,0,0,.29.54,1.45,1.45,0,0,0,.5.37,1.83,1.83,0,0,0,.73.14,1.42,1.42,0,0,0,.87-.25,1.17,1.17,0,0,0,.45-.75h.83A2.09,2.09,0,0,1,48.64,64.36Zm-.2-3.29a1.48,1.48,0,0,0-.76-.77,1.4,1.4,0,0,0-.58-.12,1.38,1.38,0,0,0-.59.12,1.21,1.21,0,0,0-.45.31,1.41,1.41,0,0,0-.3.46,1.76,1.76,0,0,0-.13.56h2.94A1.7,1.7,0,0,0,48.44,61.07Z"/>
    <path d="M50.69,59.56v1.08h0a2.36,2.36,0,0,1,.75-.92,1.92,1.92,0,0,1,1.13-.28v.89a2.46,2.46,0,0,0-.86.14,1.27,1.27,0,0,0-.57.41,1.65,1.65,0,0,0-.32.65,3.25,3.25,0,0,0-.1.87v2.28H49.9V59.56Z"/>
    <path d="M58.85,58.57a2,2,0,0,0-1.2-.34,2.88,2.88,0,0,0-.59.06,1.65,1.65,0,0,0-.51.2,1,1,0,0,0-.35.37,1.16,1.16,0,0,0-.14.58.72.72,0,0,0,.2.53,1.25,1.25,0,0,0,.51.33,4.21,4.21,0,0,0,.73.22l.83.18c.28.07.55.14.82.23a2.76,2.76,0,0,1,.73.36,1.8,1.8,0,0,1,.52.58,1.75,1.75,0,0,1,.19.87,1.77,1.77,0,0,1-.25,1,2.24,2.24,0,0,1-.65.65,2.94,2.94,0,0,1-.89.37,4.65,4.65,0,0,1-1,.11,4.11,4.11,0,0,1-1.13-.15,2.87,2.87,0,0,1-.93-.45,2.06,2.06,0,0,1-.63-.77,2.44,2.44,0,0,1-.24-1.12h.89a1.58,1.58,0,0,0,.63,1.3,2,2,0,0,0,.66.31,2.88,2.88,0,0,0,.78.1,3.36,3.36,0,0,0,.63-.06,2,2,0,0,0,.58-.2,1.15,1.15,0,0,0,.42-.4,1.09,1.09,0,0,0,.16-.63.93.93,0,0,0-.19-.59,1.46,1.46,0,0,0-.52-.38,4.19,4.19,0,0,0-.73-.23l-.83-.18c-.28-.06-.55-.14-.82-.22a2.71,2.71,0,0,1-.73-.33,1.52,1.52,0,0,1-.52-.52,1.57,1.57,0,0,1-.19-.81,1.85,1.85,0,0,1,.22-.93,1.87,1.87,0,0,1,.58-.64,2.69,2.69,0,0,1,.82-.38,3.75,3.75,0,0,1,.95-.12,3.63,3.63,0,0,1,1,.13,2.21,2.21,0,0,1,.81.41,1.9,1.9,0,0,1,.56.69,2.55,2.55,0,0,1,.22,1H59.4A1.49,1.49,0,0,0,58.85,58.57Z"/>
    <path d="M64.21,60.45a1.3,1.3,0,0,0-.86-.27,1.61,1.61,0,0,0-.76.17,1.42,1.42,0,0,0-.49.45,1.83,1.83,0,0,0-.26.64,3.08,3.08,0,0,0-.08.75,3.17,3.17,0,0,0,.08.69,2.32,2.32,0,0,0,.26.6,1.47,1.47,0,0,0,.47.42,1.34,1.34,0,0,0,.68.16,1.37,1.37,0,0,0,1-.33,1.48,1.48,0,0,0,.43-.92h.86a2.38,2.38,0,0,1-.71,1.47,2.23,2.23,0,0,1-1.55.51,2.56,2.56,0,0,1-1-.19,1.93,1.93,0,0,1-.75-.53,2.17,2.17,0,0,1-.46-.83,3.51,3.51,0,0,1-.15-1.05A4.09,4.09,0,0,1,61,61.11a2.42,2.42,0,0,1,.46-.87,2.19,2.19,0,0,1,.75-.59,2.54,2.54,0,0,1,1.06-.21,3.07,3.07,0,0,1,.82.11,1.81,1.81,0,0,1,.67.32,1.73,1.73,0,0,1,.49.55,2,2,0,0,1,.23.79h-.87A1.31,1.31,0,0,0,64.21,60.45Z"/>
    <path d="M66,58.64v-1h.84v1Zm.84.92v5.12H66V59.56Z"/>
    <path d="M71.3,64.36a2.33,2.33,0,0,1-1.45.43,2.48,2.48,0,0,1-1.06-.2A2,2,0,0,1,68,64a2.26,2.26,0,0,1-.46-.85,4.51,4.51,0,0,1-.18-1.08A3,3,0,0,1,67.57,61a2.65,2.65,0,0,1,.5-.85,2.36,2.36,0,0,1,.77-.55,2.32,2.32,0,0,1,1-.2,2.19,2.19,0,0,1,1.14.28,2.25,2.25,0,0,1,.72.72,2.91,2.91,0,0,1,.38,1,4.22,4.22,0,0,1,.08,1H68.29a1.91,1.91,0,0,0,.08.64,1.4,1.4,0,0,0,.28.54,1.49,1.49,0,0,0,.51.37,1.74,1.74,0,0,0,.72.14,1.43,1.43,0,0,0,.88-.25,1.17,1.17,0,0,0,.45-.75H72A2.09,2.09,0,0,1,71.3,64.36Zm-.21-3.29a1.23,1.23,0,0,0-.3-.46,1.33,1.33,0,0,0-.46-.31,1.37,1.37,0,0,0-.58-.12,1.45,1.45,0,0,0-.59.12,1.39,1.39,0,0,0-.45.31,1.56,1.56,0,0,0-.29.46,1.53,1.53,0,0,0-.13.56h2.94A1.49,1.49,0,0,0,71.09,61.07Z"/>
    <path d="M73.29,59.56v.81h0A1.77,1.77,0,0,1,75,59.44a2.32,2.32,0,0,1,.85.14,1.34,1.34,0,0,1,.54.39,1.31,1.31,0,0,1,.29.59,2.91,2.91,0,0,1,.09.75v3.37H75.9V61.22a1,1,0,0,0-1-1,1.71,1.71,0,0,0-.67.12,1.27,1.27,0,0,0-.47.34,1.61,1.61,0,0,0-.29.51,2.2,2.2,0,0,0-.09.64v2.89H72.5V59.56Z"/>
    <path d="M80.51,60.45a1.26,1.26,0,0,0-.85-.27,1.58,1.58,0,0,0-.76.17,1.33,1.33,0,0,0-.49.45,1.85,1.85,0,0,0-.27.64,3.67,3.67,0,0,0-.08.75,2.67,2.67,0,0,0,.09.69,2,2,0,0,0,.26.6,1.47,1.47,0,0,0,.47.42,1.34,1.34,0,0,0,.68.16,1.38,1.38,0,0,0,1-.33,1.53,1.53,0,0,0,.43-.92h.86a2.38,2.38,0,0,1-.71,1.47,2.25,2.25,0,0,1-1.55.51,2.56,2.56,0,0,1-1-.19,1.9,1.9,0,0,1-.76-.53,2.29,2.29,0,0,1-.45-.83,3.21,3.21,0,0,1-.16-1.05,3.71,3.71,0,0,1,.15-1.08,2.57,2.57,0,0,1,.45-.87,2.23,2.23,0,0,1,.76-.59,2.51,2.51,0,0,1,1.06-.21,3.12,3.12,0,0,1,.82.11,1.89,1.89,0,0,1,.67.32,1.59,1.59,0,0,1,.48.55,1.88,1.88,0,0,1,.24.79h-.87A1.32,1.32,0,0,0,80.51,60.45Z"/>
    <path d="M85.9,64.36a2.3,2.3,0,0,1-1.44.43,2.52,2.52,0,0,1-1.07-.2,2.09,2.09,0,0,1-.76-.55,2.4,2.4,0,0,1-.46-.85A4.07,4.07,0,0,1,82,62.11,3,3,0,0,1,82.18,61a2.48,2.48,0,0,1,.5-.85,2.32,2.32,0,0,1,.76-.55,2.37,2.37,0,0,1,1-.2,2.17,2.17,0,0,1,1.13.28,2.25,2.25,0,0,1,.72.72,2.71,2.71,0,0,1,.38,1,3.74,3.74,0,0,1,.08,1H82.89A1.91,1.91,0,0,0,83,63a1.42,1.42,0,0,0,.29.54,1.45,1.45,0,0,0,.5.37,1.83,1.83,0,0,0,.73.14,1.42,1.42,0,0,0,.87-.25,1.17,1.17,0,0,0,.45-.75h.83A2.09,2.09,0,0,1,85.9,64.36Zm-.2-3.29a1.48,1.48,0,0,0-.76-.77,1.4,1.4,0,0,0-.58-.12,1.38,1.38,0,0,0-.59.12,1.21,1.21,0,0,0-.45.31,1.41,1.41,0,0,0-.3.46,1.76,1.76,0,0,0-.13.56h2.94A1.7,1.7,0,0,0,85.7,61.07Z"/>
  </g>
</svg>
