<svg id="Layer_1" data-name="Layer 1" xmlns="http://www.w3.org/2000/svg" width="100" height="93.36" viewBox="0 0 100 93.36">
  <g>
    <path d="M41.25,61.86l-.55.08a2.27,2.27,0,0,0-.5.14,1,1,0,0,0-.36.27.81.81,0,0,0-.14.49.68.68,0,0,0,.08.34.7.7,0,0,0,.52.35,1.37,1.37,0,0,0,.36,0,1.78,1.78,0,0,0,.69-.11,1.48,1.48,0,0,0,.48-.28,1,1,0,0,0,.26-.36.91.91,0,0,0,.09-.37v-.84a1.05,1.05,0,0,1-.4.17Z"/>
    <path d="M32.05,60.23a1.23,1.23,0,0,0-.44-.3,1.51,1.51,0,0,0-1.13,0,1.23,1.23,0,0,0-.44.3,1.51,1.51,0,0,0-.29.45,1.94,1.94,0,0,0-.13.54h2.86a1.43,1.43,0,0,0-.13-.54A1.19,1.19,0,0,0,32.05,60.23Z"/>
    <path d="M23.27,61.86l-.55.08a2.12,2.12,0,0,0-.5.14,1.14,1.14,0,0,0-.37.27.81.81,0,0,0-.14.49.59.59,0,0,0,.09.34.58.58,0,0,0,.21.23.79.79,0,0,0,.3.12,1.5,1.5,0,0,0,.37,0,1.78,1.78,0,0,0,.69-.11,1.43,1.43,0,0,0,.47-.28,1.14,1.14,0,0,0,.27-.36.91.91,0,0,0,.09-.37v-.84a1.1,1.1,0,0,1-.41.17Z"/>
    <path d="M69.7,60.23a1.23,1.23,0,0,0-.44-.3,1.51,1.51,0,0,0-1.13,0,1.23,1.23,0,0,0-.44.3,1.51,1.51,0,0,0-.29.45,1.94,1.94,0,0,0-.13.54h2.86a1.43,1.43,0,0,0-.13-.54A1.19,1.19,0,0,0,69.7,60.23Z"/>
    <path d="M85,60.23a1.23,1.23,0,0,0-.44-.3,1.51,1.51,0,0,0-1.13,0,1.23,1.23,0,0,0-.44.3,1.51,1.51,0,0,0-.29.45,1.94,1.94,0,0,0-.13.54h2.86a1.43,1.43,0,0,0-.13-.54A1.19,1.19,0,0,0,85,60.23Z"/>
    <path d="M99,0H1A1,1,0,0,0,0,1V92.36a1,1,0,0,0,1,1H99a1,1,0,0,0,1-1V1A1,1,0,0,0,99,0ZM19.88,64.19H19V58.47h0l-2.14,5.72h-.78l-2.15-5.72h0v5.72H13V57.32h1.25l2.16,5.77,2.18-5.77h1.25Zm5.65,0a1.23,1.23,0,0,1-.59.12.77.77,0,0,1-.51-.17.82.82,0,0,1-.18-.59,2,2,0,0,1-.79.59,2.89,2.89,0,0,1-1.61.1,1.46,1.46,0,0,1-.52-.24,1.15,1.15,0,0,1-.35-.43,1.41,1.41,0,0,1-.13-.64,1.54,1.54,0,0,1,.14-.69,1.36,1.36,0,0,1,.38-.44,1.93,1.93,0,0,1,.54-.26l.62-.14a5.59,5.59,0,0,1,.64-.1,3.49,3.49,0,0,0,.54-.1.87.87,0,0,0,.36-.18.45.45,0,0,0,.14-.35.92.92,0,0,0-.1-.44.77.77,0,0,0-.26-.25,1.37,1.37,0,0,0-.36-.11,2.56,2.56,0,0,0-.39,0,1.71,1.71,0,0,0-.86.2.82.82,0,0,0-.38.74H21a1.79,1.79,0,0,1,.19-.78,1.44,1.44,0,0,1,.47-.51,2,2,0,0,1,.66-.29,3.91,3.91,0,0,1,.79-.08,3.78,3.78,0,0,1,.67,0,1.69,1.69,0,0,1,.6.19,1.15,1.15,0,0,1,.43.42,1.32,1.32,0,0,1,.17.7V63a2.12,2.12,0,0,0,0,.42c0,.09.1.13.23.13a.65.65,0,0,0,.25,0Zm2.74-4.23h-1V63a.72.72,0,0,0,0,.23.28.28,0,0,0,.09.14.47.47,0,0,0,.19.06l.31,0h.38v.72h-.63a4,4,0,0,1-.54,0,1,1,0,0,1-.37-.16.68.68,0,0,1-.2-.33,1.74,1.74,0,0,1-.07-.56V59.94h-.85v-.73h.85V57.72h.82v1.49h1Zm1.43,2.63a1.46,1.46,0,0,0,.28.52,1.39,1.39,0,0,0,.49.36,1.68,1.68,0,0,0,.7.13,1.46,1.46,0,0,0,.86-.24,1.15,1.15,0,0,0,.43-.73h.81a2,2,0,0,1-.72,1.26,2.27,2.27,0,0,1-1.41.42,2.53,2.53,0,0,1-1-.19,2.12,2.12,0,0,1-.74-.54,2.35,2.35,0,0,1-.44-.83,3.84,3.84,0,0,1-.17-1,3.11,3.11,0,0,1,.17-1,2.49,2.49,0,0,1,.49-.82,2.19,2.19,0,0,1,1.68-.73,2.06,2.06,0,0,1,1.1.27,2.34,2.34,0,0,1,.7.7,2.74,2.74,0,0,1,.37.92,4.66,4.66,0,0,1,.08,1H29.62A2.15,2.15,0,0,0,29.7,62.57ZM36.64,60a2.3,2.3,0,0,0-.84.14,1.35,1.35,0,0,0-.56.39,1.67,1.67,0,0,0-.3.63,3.17,3.17,0,0,0-.1.86v2.21H34v-5h.77v1h0a2.21,2.21,0,0,1,.73-.89,1.89,1.89,0,0,1,1.1-.27ZM38,64.19h-.82v-5H38Zm0-5.87h-.82v-1H38Zm5.53,5.85a1.21,1.21,0,0,1-.59.12.72.72,0,0,1-.5-.17.78.78,0,0,1-.19-.59,2.07,2.07,0,0,1-.78.59,2.83,2.83,0,0,1-1,.17,2.62,2.62,0,0,1-.64-.07,1.51,1.51,0,0,1-.53-.24,1.25,1.25,0,0,1-.35-.43,1.55,1.55,0,0,1-.13-.64,1.41,1.41,0,0,1,.15-.69,1.16,1.16,0,0,1,.38-.44,1.7,1.7,0,0,1,.54-.26l.62-.14a5,5,0,0,1,.64-.1,3.34,3.34,0,0,0,.53-.1.91.91,0,0,0,.37-.18.45.45,0,0,0,.13-.35.82.82,0,0,0-.1-.44.69.69,0,0,0-.26-.25,1.27,1.27,0,0,0-.36-.11,2.56,2.56,0,0,0-.39,0,1.74,1.74,0,0,0-.86.2.84.84,0,0,0-.38.74H39a1.66,1.66,0,0,1,.19-.78,1.41,1.41,0,0,1,.46-.51,2,2,0,0,1,.66-.29,4,4,0,0,1,.79-.08,3.71,3.71,0,0,1,.67,0,1.69,1.69,0,0,1,.6.19,1.18,1.18,0,0,1,.44.42,1.42,1.42,0,0,1,.16.7V63a2.12,2.12,0,0,0,0,.42c0,.09.1.13.23.13a.65.65,0,0,0,.25,0Zm1.48,0h-.82V57.32H45Zm4.85-.7a1.53,1.53,0,0,1-.5.48,2.12,2.12,0,0,1-.68.25,3.81,3.81,0,0,1-.75.07,3.36,3.36,0,0,1-.79-.08,1.92,1.92,0,0,1-.67-.29A1.45,1.45,0,0,1,46,63.4a1.79,1.79,0,0,1-.19-.78h.82a.85.85,0,0,0,.12.46.92.92,0,0,0,.3.29,1.23,1.23,0,0,0,.43.16,2,2,0,0,0,.48,0l.41,0a1.59,1.59,0,0,0,.39-.1.73.73,0,0,0,.29-.23.6.6,0,0,0,.12-.38.55.55,0,0,0-.24-.48,1.9,1.9,0,0,0-.61-.26c-.24-.07-.5-.13-.78-.19a3.73,3.73,0,0,1-.78-.23,1.66,1.66,0,0,1-.61-.42,1.09,1.09,0,0,1-.24-.75,1.2,1.2,0,0,1,.17-.64,1.32,1.32,0,0,1,.44-.44,1.84,1.84,0,0,1,.59-.25,3,3,0,0,1,.66-.08,3.84,3.84,0,0,1,.78.07,1.77,1.77,0,0,1,.63.25,1.36,1.36,0,0,1,.44.48,1.8,1.8,0,0,1,.19.76H49a.79.79,0,0,0-.12-.4.84.84,0,0,0-.27-.26,1.42,1.42,0,0,0-.36-.14,1.81,1.81,0,0,0-.4,0,2.31,2.31,0,0,0-.37,0,1.13,1.13,0,0,0-.34.1.62.62,0,0,0-.25.19.46.46,0,0,0-.1.31.48.48,0,0,0,.15.36,1.28,1.28,0,0,0,.38.23,3.22,3.22,0,0,0,.52.15l.58.13.6.16a2.11,2.11,0,0,1,.52.26,1.25,1.25,0,0,1,.36.4,1.1,1.1,0,0,1,.14.59A1.45,1.45,0,0,1,49.84,63.49Zm8.75-.25a2,2,0,0,1-.63.64,2.73,2.73,0,0,1-.86.35,3.85,3.85,0,0,1-1,.11,4.28,4.28,0,0,1-1.09-.14,2.7,2.7,0,0,1-.9-.44,2.15,2.15,0,0,1-.62-.75,2.45,2.45,0,0,1-.23-1.08h.87a1.56,1.56,0,0,0,.17.74,1.59,1.59,0,0,0,.44.52,2.1,2.1,0,0,0,.64.3,3.08,3.08,0,0,0,.75.09,3.26,3.26,0,0,0,.62-.06,1.61,1.61,0,0,0,.56-.19,1,1,0,0,0,.56-1,.85.85,0,0,0-.19-.58,1.5,1.5,0,0,0-.5-.36,3.2,3.2,0,0,0-.7-.22L55.72,61c-.27-.06-.54-.13-.8-.21a3.07,3.07,0,0,1-.71-.32,1.52,1.52,0,0,1-.5-.51,1.55,1.55,0,0,1-.19-.78,1.82,1.82,0,0,1,.22-.9,1.8,1.8,0,0,1,.56-.63,2.56,2.56,0,0,1,.8-.37,3.52,3.52,0,0,1,.92-.12,3.81,3.81,0,0,1,1,.13,2.17,2.17,0,0,1,.79.39,1.9,1.9,0,0,1,.54.68,2.57,2.57,0,0,1,.22,1h-.87a1.44,1.44,0,0,0-.53-1.07A1.91,1.91,0,0,0,56,57.92a2.76,2.76,0,0,0-.57.06,1.43,1.43,0,0,0-.49.19,1,1,0,0,0-.35.36,1.12,1.12,0,0,0-.13.57.69.69,0,0,0,.19.51,1.45,1.45,0,0,0,.5.33,4.15,4.15,0,0,0,.7.2l.81.18a7.32,7.32,0,0,1,.8.23,2.48,2.48,0,0,1,.71.35,1.59,1.59,0,0,1,.5.56,1.92,1.92,0,0,1-.06,1.78Zm4.64.55a2.14,2.14,0,0,1-1.51.5,2.59,2.59,0,0,1-1-.18,1.84,1.84,0,0,1-.73-.52,2.16,2.16,0,0,1-.45-.8,3.33,3.33,0,0,1-.15-1,3.49,3.49,0,0,1,.15-1,2.3,2.3,0,0,1,.44-.85,1.93,1.93,0,0,1,.73-.56,2.4,2.4,0,0,1,1-.21,3,3,0,0,1,.8.1,2.06,2.06,0,0,1,.65.31,1.64,1.64,0,0,1,.47.54,1.94,1.94,0,0,1,.23.76H63a1.25,1.25,0,0,0-.4-.73,1.27,1.27,0,0,0-.83-.26,1.5,1.5,0,0,0-.74.16,1.36,1.36,0,0,0-.48.44,1.72,1.72,0,0,0-.25.62,3.38,3.38,0,0,0-.08.72,3.08,3.08,0,0,0,.08.68,1.91,1.91,0,0,0,.26.58,1.19,1.19,0,0,0,.45.41,1.4,1.4,0,0,0,.66.15,1.3,1.3,0,0,0,.95-.32,1.41,1.41,0,0,0,.42-.89h.84A2.28,2.28,0,0,1,63.23,63.79Zm2.32.4h-.82v-5h.82Zm0-5.87h-.82v-1h.82Zm1.8,4.25a1.46,1.46,0,0,0,.28.52,1.39,1.39,0,0,0,.49.36,1.68,1.68,0,0,0,.7.13,1.46,1.46,0,0,0,.86-.24,1.15,1.15,0,0,0,.43-.73h.81a2,2,0,0,1-.72,1.26,2.26,2.26,0,0,1-1.4.42,2.54,2.54,0,0,1-1-.19,2.12,2.12,0,0,1-.74-.54,2.35,2.35,0,0,1-.44-.83,3.84,3.84,0,0,1-.17-1,3.11,3.11,0,0,1,.17-1,2.49,2.49,0,0,1,.49-.82,2.19,2.19,0,0,1,1.68-.73,2.06,2.06,0,0,1,1.1.27,2.23,2.23,0,0,1,.7.7,2.74,2.74,0,0,1,.37.92A4.66,4.66,0,0,1,71,62H67.27A2.15,2.15,0,0,0,67.35,62.57Zm8.47,1.62H75V60.82a1,1,0,0,0-.27-.73,1,1,0,0,0-.74-.27,1.6,1.6,0,0,0-.65.12,1.23,1.23,0,0,0-.46.32,1.42,1.42,0,0,0-.27.5,2,2,0,0,0-.09.62v2.81H71.7v-5h.77V60h0a1.73,1.73,0,0,1,1.62-.9,2.12,2.12,0,0,1,.81.13,1.32,1.32,0,0,1,.53.38,1.4,1.4,0,0,1,.29.57,3.36,3.36,0,0,1,.08.74Zm4.65-.4a2.14,2.14,0,0,1-1.51.5,2.62,2.62,0,0,1-1-.18,1.84,1.84,0,0,1-.73-.52,2,2,0,0,1-.44-.8,3.33,3.33,0,0,1-.15-1,3.49,3.49,0,0,1,.14-1,2.45,2.45,0,0,1,.44-.85,1.89,1.89,0,0,1,.74-.56,2.32,2.32,0,0,1,1-.21,2.92,2.92,0,0,1,.8.1,2.06,2.06,0,0,1,.65.31,1.64,1.64,0,0,1,.47.54,1.94,1.94,0,0,1,.23.76h-.85a1.25,1.25,0,0,0-.4-.73,1.27,1.27,0,0,0-.83-.26,1.53,1.53,0,0,0-.74.16,1.36,1.36,0,0,0-.48.44,1.92,1.92,0,0,0-.25.62,3.38,3.38,0,0,0-.08.72,3.08,3.08,0,0,0,.08.68,1.91,1.91,0,0,0,.26.58,1.36,1.36,0,0,0,.45.41,1.41,1.41,0,0,0,.67.15,1.28,1.28,0,0,0,.94-.32,1.41,1.41,0,0,0,.42-.89h.84A2.28,2.28,0,0,1,80.47,63.79Zm2.13-1.22a1.46,1.46,0,0,0,.28.52,1.39,1.39,0,0,0,.49.36,1.68,1.68,0,0,0,.7.13,1.46,1.46,0,0,0,.86-.24,1.15,1.15,0,0,0,.43-.73h.81a2,2,0,0,1-.72,1.26,2.26,2.26,0,0,1-1.4.42,2.54,2.54,0,0,1-1-.19,2.12,2.12,0,0,1-.74-.54,2.35,2.35,0,0,1-.44-.83,3.84,3.84,0,0,1-.17-1,3.11,3.11,0,0,1,.17-1,2.49,2.49,0,0,1,.49-.82A2.19,2.19,0,0,1,84,59.1a2.06,2.06,0,0,1,1.1.27,2.23,2.23,0,0,1,.7.7,2.74,2.74,0,0,1,.37.92,4.66,4.66,0,0,1,.08,1H82.52A2.15,2.15,0,0,0,82.6,62.57Z"/>
  </g>
</svg>
