<svg id="Layer_1" data-name="Layer 1" xmlns="http://www.w3.org/2000/svg" width="100" height="93.36" viewBox="0 0 100 93.36">
  <g>
    <path d="M24.72,61.53l-.51.07a1.92,1.92,0,0,0-.46.13.86.86,0,0,0-.34.25.75.75,0,0,0-.13.45.61.61,0,0,0,.08.32.55.55,0,0,0,.19.21,1.1,1.1,0,0,0,.29.12,1.76,1.76,0,0,0,.33,0,1.81,1.81,0,0,0,.65-.1,1.2,1.2,0,0,0,.43-.26.88.88,0,0,0,.25-.34.75.75,0,0,0,.09-.34v-.78a1,1,0,0,1-.38.16Z" style="fill: #894a82"/>
    <path d="M99,0H1A1,1,0,0,0,0,1V92.36a1,1,0,0,0,1,1H99a1,1,0,0,0,1-1V1A1,1,0,0,0,99,0ZM12.7,27.24H23.39A7.57,7.57,0,0,1,29,29.14a7.18,7.18,0,0,1,1.9,5.31A7.26,7.26,0,0,1,29,39.78a7.48,7.48,0,0,1-5.59,1.88H16v10H12.7Zm4.2,36.44-.69-1.91h-2.7l-.71,1.91h-.87l2.48-6.37h.94l2.49,6.37Zm5,0h-.76V60.56a1,1,0,0,0-.25-.68,1,1,0,0,0-.69-.25,1.57,1.57,0,0,0-.6.11,1.19,1.19,0,0,0-.43.3,1.46,1.46,0,0,0-.25.46,1.81,1.81,0,0,0-.08.58v2.6h-.76V59.07h.71v.73h0a1.59,1.59,0,0,1,1.5-.84,1.92,1.92,0,0,1,.76.13,1.22,1.22,0,0,1,.75.88,2.82,2.82,0,0,1,.08.68Zm4.89,0a1.07,1.07,0,0,1-.55.12.67.67,0,0,1-.47-.16.74.74,0,0,1-.17-.54,1.81,1.81,0,0,1-.73.54,2.58,2.58,0,0,1-1.49.09,1.33,1.33,0,0,1-.48-.22,1.08,1.08,0,0,1-.33-.4,1.32,1.32,0,0,1-.12-.59,1.39,1.39,0,0,1,.13-.65,1.16,1.16,0,0,1,.36-.4,1.55,1.55,0,0,1,.5-.24,4.76,4.76,0,0,1,.57-.13l.59-.1a3,3,0,0,0,.5-.09.77.77,0,0,0,.34-.16.45.45,0,0,0,.12-.33.76.76,0,0,0-.09-.4.59.59,0,0,0-.24-.23.92.92,0,0,0-.33-.11l-.36,0a1.57,1.57,0,0,0-.81.19.76.76,0,0,0-.34.69h-.76a1.6,1.6,0,0,1,.18-.73,1.36,1.36,0,0,1,.42-.47,2,2,0,0,1,.62-.27,3.4,3.4,0,0,1,.73-.08,4.21,4.21,0,0,1,.62,0,1.67,1.67,0,0,1,.56.18,1,1,0,0,1,.4.39,1.23,1.23,0,0,1,.15.65V62.6a1.28,1.28,0,0,0,0,.39q0,.12.21.12a.74.74,0,0,0,.23,0Zm1.17,0h-.76V57.31H28Zm2.76.62a3.92,3.92,0,0,1-.26.57,1.46,1.46,0,0,1-.29.38.88.88,0,0,1-.34.21,1.25,1.25,0,0,1-.45.07,1.76,1.76,0,0,1-.52-.08v-.7l.22.08.22,0a.63.63,0,0,0,.63-.43l.31-.77-1.83-4.59h.86l1.34,3.78h0L32,59.07h.8Zm.52-17.83a14.41,14.41,0,0,1-.6-3.72,10.66,10.66,0,0,1,.62-3.69A8.75,8.75,0,0,1,33,36.16a7.94,7.94,0,0,1,2.63-1.92A8.09,8.09,0,0,1,39,33.56a7.22,7.22,0,0,1,3.91,1A7.79,7.79,0,0,1,45.38,37a10,10,0,0,1,1.3,3.28A14.31,14.31,0,0,1,47,43.67H33.75A6.71,6.71,0,0,0,34,45.88a4.83,4.83,0,0,0,1,1.84A4.75,4.75,0,0,0,36.75,49a6,6,0,0,0,2.5.48,5,5,0,0,0,3-.85A4.16,4.16,0,0,0,43.82,46h2.87a7.06,7.06,0,0,1-2.56,4.48,8,8,0,0,1-5,1.5,9.17,9.17,0,0,1-3.67-.68,7.21,7.21,0,0,1-2.61-1.92A8,8,0,0,1,31.27,46.47Zm4.24,13.27h-.92V62.6a1.27,1.27,0,0,0,0,.22.22.22,0,0,0,.09.12.38.38,0,0,0,.17.06h.64v.67h-.58a2.51,2.51,0,0,1-.51,0,.62.62,0,0,1-.53-.45,1.78,1.78,0,0,1-.06-.51V59.74H33v-.67h.79V57.69h.76v1.38h.92Zm1.3,3.94h-.76V59.07h.76Zm0-5.44h-.76v-.93h.76ZM41,63.32a2,2,0,0,1-1.4.46,2.27,2.27,0,0,1-.93-.17,1.75,1.75,0,0,1-.68-.48,2.14,2.14,0,0,1-.41-.74,3.21,3.21,0,0,1-.14-1,3.73,3.73,0,0,1,.13-1,2.28,2.28,0,0,1,.41-.79,2,2,0,0,1,.68-.53,2.38,2.38,0,0,1,1-.19,2.43,2.43,0,0,1,.73.1,1.72,1.72,0,0,1,.61.29,1.45,1.45,0,0,1,.43.49,1.74,1.74,0,0,1,.22.71h-.79a1.05,1.05,0,0,0-1.14-.92,1.47,1.47,0,0,0-.69.15,1.33,1.33,0,0,0-.44.41,1.46,1.46,0,0,0-.23.57,3,3,0,0,0-.08.68,2.57,2.57,0,0,0,.08.62,1.65,1.65,0,0,0,.24.54,1.11,1.11,0,0,0,.42.38,1.28,1.28,0,0,0,.61.14,1.26,1.26,0,0,0,.88-.29,1.38,1.38,0,0,0,.39-.83h.77A2.11,2.11,0,0,1,41,63.32Zm5.23.34a1,1,0,0,1-.54.12.64.64,0,0,1-.47-.16.7.7,0,0,1-.18-.54,1.78,1.78,0,0,1-.72.54,2.44,2.44,0,0,1-.9.16,2.22,2.22,0,0,1-.59-.07,1.47,1.47,0,0,1-.49-.22,1.08,1.08,0,0,1-.33-.4,1.32,1.32,0,0,1-.12-.59,1.39,1.39,0,0,1,.14-.65,1.13,1.13,0,0,1,.35-.4,1.65,1.65,0,0,1,.5-.24,5.43,5.43,0,0,1,.58-.13L44,61a2.87,2.87,0,0,0,.49-.09.72.72,0,0,0,.34-.16A.42.42,0,0,0,45,60.4a.68.68,0,0,0-.1-.4.59.59,0,0,0-.24-.23.86.86,0,0,0-.33-.11l-.36,0a1.51,1.51,0,0,0-.8.19.76.76,0,0,0-.35.69H42a1.6,1.6,0,0,1,.18-.73,1.39,1.39,0,0,1,.43-.47,2,2,0,0,1,.61-.27A3.43,3.43,0,0,1,44,59a4.44,4.44,0,0,1,.62,0,1.62,1.62,0,0,1,.55.18,1.09,1.09,0,0,1,.41.39,1.23,1.23,0,0,1,.15.65V62.6a1.85,1.85,0,0,0,0,.39q0,.12.21.12a.74.74,0,0,0,.23,0Zm1.17,0H46.6V57.31h.76Zm1.23-17.21a14.41,14.41,0,0,1-.6-3.72,10.66,10.66,0,0,1,.62-3.69,8.75,8.75,0,0,1,1.72-2.9A7.94,7.94,0,0,1,53,34.24a8.13,8.13,0,0,1,3.33-.68,7.22,7.22,0,0,1,3.91,1A7.79,7.79,0,0,1,62.7,37,10,10,0,0,1,64,40.29a14.31,14.31,0,0,1,.29,3.38H51.07a6.71,6.71,0,0,0,.27,2.21,4.83,4.83,0,0,0,1,1.84A4.93,4.93,0,0,0,54.07,49a6,6,0,0,0,2.5.48,5,5,0,0,0,3-.85A4.12,4.12,0,0,0,61.14,46H64a7.06,7.06,0,0,1-2.56,4.48,8,8,0,0,1-5,1.5,9.17,9.17,0,0,1-3.67-.68,7.21,7.21,0,0,1-2.61-1.92A8,8,0,0,1,48.59,46.47ZM55.1,63.16a2.73,2.73,0,0,1-1.93.67,3,3,0,0,1-1.29-.26,2.48,2.48,0,0,1-.92-.7,2.93,2.93,0,0,1-.55-1,4.46,4.46,0,0,1,0-2.61A3.08,3.08,0,0,1,51,58.14a2.71,2.71,0,0,1,.94-.72,3.14,3.14,0,0,1,1.3-.26,3.69,3.69,0,0,1,.95.13,2.45,2.45,0,0,1,.79.4,2.22,2.22,0,0,1,.58.64,2.34,2.34,0,0,1,.3.9H55a1.64,1.64,0,0,0-.63-1,2,2,0,0,0-1.16-.34,2.12,2.12,0,0,0-1,.22,1.82,1.82,0,0,0-.66.57,2.44,2.44,0,0,0-.39.83,3.42,3.42,0,0,0-.13,1,3.77,3.77,0,0,0,.13,1,2.29,2.29,0,0,0,.39.85,1.89,1.89,0,0,0,.67.58,2.12,2.12,0,0,0,1,.21,1.76,1.76,0,0,0,1.31-.52,1.75,1.75,0,0,0,.37-.58,2.5,2.5,0,0,0,.16-.74h.85A2.94,2.94,0,0,1,55.1,63.16Zm5.13.52h-.76V60.56a.91.91,0,0,0-.25-.68,1,1,0,0,0-.69-.25,1.57,1.57,0,0,0-.6.11,1.08,1.08,0,0,0-.42.3,1.31,1.31,0,0,0-.26.46,1.81,1.81,0,0,0-.08.58v2.6h-.76V57.31h.76v2.44h0a1.16,1.16,0,0,1,.25-.36,1.31,1.31,0,0,1,.37-.24,1.53,1.53,0,0,1,.41-.14,2.18,2.18,0,0,1,.43,0,1.88,1.88,0,0,1,.76.13,1.22,1.22,0,0,1,.75.88,2.82,2.82,0,0,1,.08.68Zm1.32-1.5a1.25,1.25,0,0,0,.26.48,1.41,1.41,0,0,0,.45.34,1.64,1.64,0,0,0,.65.12,1.28,1.28,0,0,0,.79-.22,1.1,1.1,0,0,0,.41-.68h.75a1.81,1.81,0,0,1-.67,1.17,2.11,2.11,0,0,1-1.3.39,2.35,2.35,0,0,1-1-.18,1.8,1.8,0,0,1-.68-.5,2,2,0,0,1-.42-.76,4.27,4.27,0,0,1-.16-1,2.93,2.93,0,0,1,.16-1,2.34,2.34,0,0,1,.46-.76A2,2,0,0,1,62.84,59a1.88,1.88,0,0,1,1,.26,2.12,2.12,0,0,1,.66.64,2.65,2.65,0,0,1,.33.86,3.43,3.43,0,0,1,.08.88H61.48A1.81,1.81,0,0,0,61.55,62.18Zm10.28,1.5h-.76v-3a2.5,2.5,0,0,0,0-.4.82.82,0,0,0-.14-.33.67.67,0,0,0-.27-.22,1.17,1.17,0,0,0-.45-.08,1.23,1.23,0,0,0-.89.32,1.19,1.19,0,0,0-.32.86v2.87h-.76v-3a1.73,1.73,0,0,0,0-.41.82.82,0,0,0-.13-.33.71.71,0,0,0-.27-.21,1,1,0,0,0-.42-.08,1.15,1.15,0,0,0-.57.14,1.32,1.32,0,0,0-.38.32,1.26,1.26,0,0,0-.22.39,1.16,1.16,0,0,0-.06.33v2.87h-.76V59.07h.71v.68h0A1.69,1.69,0,0,1,67.58,59a1.66,1.66,0,0,1,.78.18,1,1,0,0,1,.49.61,1.62,1.62,0,0,1,.61-.58,1.68,1.68,0,0,1,.83-.21,2.35,2.35,0,0,1,.63.08,1.32,1.32,0,0,1,.49.24,1.09,1.09,0,0,1,.31.41,1.58,1.58,0,0,1,.11.61ZM70,38.51a5.86,5.86,0,0,0-1.09,2.24,12,12,0,0,0-.34,3v7.85H65.65V34h2.74v3.72h.06a7.93,7.93,0,0,1,2.6-3.17,6.46,6.46,0,0,1,3.9-1v3.07a8.2,8.2,0,0,0-3,.48A4.73,4.73,0,0,0,70,38.51Zm3.25,25.17h-.76V59.07h.76Zm0-5.44h-.76v-.93h.76ZM77.46,63a1.21,1.21,0,0,1-.45.45,2.17,2.17,0,0,1-.63.24,4.23,4.23,0,0,1-.7.06,3,3,0,0,1-.74-.08,1.76,1.76,0,0,1-.61-.26A1.33,1.33,0,0,1,73.9,63a1.6,1.6,0,0,1-.18-.73h.76a.77.77,0,0,0,.12.42.75.75,0,0,0,.28.28,1.13,1.13,0,0,0,.39.15,2.28,2.28,0,0,0,.45,0l.37,0a1.81,1.81,0,0,0,.37-.1.71.71,0,0,0,.27-.21.59.59,0,0,0,.11-.36.5.5,0,0,0-.23-.44,2.09,2.09,0,0,0-.56-.25c-.22-.06-.46-.12-.72-.17a3.89,3.89,0,0,1-.73-.21A1.49,1.49,0,0,1,74,61,1.2,1.2,0,0,1,74,59.68a1.12,1.12,0,0,1,.4-.41,1.82,1.82,0,0,1,.55-.23,2.62,2.62,0,0,1,.61-.08,4,4,0,0,1,.72.07,1.62,1.62,0,0,1,.59.23,1.17,1.17,0,0,1,.4.45,1.48,1.48,0,0,1,.18.7h-.76a.81.81,0,0,0-.11-.37.82.82,0,0,0-.25-.24,1.15,1.15,0,0,0-.34-.13,2.21,2.21,0,0,0-.37,0l-.34,0a1.5,1.5,0,0,0-.32.09.84.84,0,0,0-.23.18.48.48,0,0,0,.05.62,1.09,1.09,0,0,0,.35.21,2.43,2.43,0,0,0,.48.14l.54.12.56.16a1.78,1.78,0,0,1,.48.23,1.2,1.2,0,0,1,.34.37,1.08,1.08,0,0,1,.13.56A1.22,1.22,0,0,1,77.46,63Zm2.72-3.29h-.92V62.6a.69.69,0,0,0,0,.22.2.2,0,0,0,.08.12.38.38,0,0,0,.17.06h.64v.67H79.6a2.47,2.47,0,0,1-.5,0,.66.66,0,0,1-.34-.14.61.61,0,0,1-.19-.31,1.74,1.74,0,0,1-.07-.51V59.74h-.78v-.67h.78V57.69h.76v1.38h.92Zm-2.81-8.06a5.34,5.34,0,0,1-2-1.38,5.49,5.49,0,0,1-1.14-2.1,9.28,9.28,0,0,1-.36-2.65V44.08h.68v1.47A6.13,6.13,0,0,0,76,50a5.82,5.82,0,0,0,4.34,1.49,8.72,8.72,0,0,0,2.58-.34,4.34,4.34,0,0,0,1.88-1.13A5,5,0,0,0,86,48a11.32,11.32,0,0,0,.4-3.21V27.24H87v18a10.21,10.21,0,0,1-.36,2.8,5.87,5.87,0,0,1-1.14,2.19,5.15,5.15,0,0,1-2.07,1.41,8.74,8.74,0,0,1-3.13.5A8,8,0,0,1,77.37,51.68Zm5.8,8.09a2.18,2.18,0,0,0-.77.12,1.18,1.18,0,0,0-.52.37,1.51,1.51,0,0,0-.29.58,3.12,3.12,0,0,0-.09.79v2h-.76V59.07h.72v1h0a2.11,2.11,0,0,1,.67-.83,1.72,1.72,0,0,1,1-.25Zm2.56,4.53a3.92,3.92,0,0,1-.26.57,1.46,1.46,0,0,1-.29.38.88.88,0,0,1-.34.21,1.25,1.25,0,0,1-.45.07,1.18,1.18,0,0,1-.26,0,1.1,1.1,0,0,1-.26-.06v-.7a1,1,0,0,0,.23.08l.21,0a.67.67,0,0,0,.39-.11.61.61,0,0,0,.24-.32l.31-.77-1.83-4.59h.86l1.35,3.78h0l1.3-3.78h.8Z" style="fill: #894a82"/>
    <path d="M60.75,39.16a5,5,0,0,0-1.06-1.59,5,5,0,0,0-1.57-1,4.83,4.83,0,0,0-2-.4,4.9,4.9,0,0,0-3.59,1.47,5.28,5.28,0,0,0-1,1.59,5.91,5.91,0,0,0-.44,1.93H61.21A5.91,5.91,0,0,0,60.75,39.16Z" style="fill: #894a82"/>
    <path d="M44.1,61.53l-.51.07a2,2,0,0,0-.47.13.76.76,0,0,0-.33.25.69.69,0,0,0-.13.45.61.61,0,0,0,.07.32.58.58,0,0,0,.2.21,1,1,0,0,0,.28.12,1.87,1.87,0,0,0,.34,0,1.76,1.76,0,0,0,.64-.1,1.25,1.25,0,0,0,.44-.26,1,1,0,0,0,.25-.34.88.88,0,0,0,.08-.34v-.78a1,1,0,0,1-.38.16Z" style="fill: #894a82"/>
    <path d="M63.73,60a1.49,1.49,0,0,0-.41-.28,1.46,1.46,0,0,0-.52-.1,1.43,1.43,0,0,0-.53.1,1.22,1.22,0,0,0-.41.29,1.46,1.46,0,0,0-.27.41,1.72,1.72,0,0,0-.11.51h2.65a1.46,1.46,0,0,0-.12-.51A1.34,1.34,0,0,0,63.73,60Z" style="fill: #894a82"/>
    <path d="M43.43,39.16a5,5,0,0,0-1.06-1.59,5,5,0,0,0-1.57-1,4.83,4.83,0,0,0-2-.4,4.9,4.9,0,0,0-3.59,1.47,5.28,5.28,0,0,0-1,1.59,5.91,5.91,0,0,0-.44,1.93H43.89A5.91,5.91,0,0,0,43.43,39.16Z" style="fill: #894a82"/>
    <path d="M26.35,37.8a4.31,4.31,0,0,0,1.28-3.35,4.24,4.24,0,0,0-1.28-3.33A6,6,0,0,0,22.3,30H16v9H22.3A5.8,5.8,0,0,0,26.35,37.8Z" style="fill: #894a82"/>
    <polygon points="14.86 58.08 13.78 61.05 15.94 61.05 14.88 58.08 14.86 58.08" style="fill: #894a82"/>
  </g>
</svg>
