<svg id="Layer_1" data-name="Layer 1" xmlns="http://www.w3.org/2000/svg" width="100" height="93.36" viewBox="0 0 100 93.36">
  <g>
    <path d="M15.35,57.31l2.49,6.37H16.9l-.69-1.91h-2.7l-.71,1.91h-.87l2.48-6.37Zm.59,3.74-1.06-3h0l-1.08,3Z"/>
    <path d="M18.82,59.07v.73h0a1.59,1.59,0,0,1,1.5-.84,1.92,1.92,0,0,1,.76.13,1.22,1.22,0,0,1,.75.88,2.82,2.82,0,0,1,.08.68v3h-.76V60.56a1,1,0,0,0-.25-.68,1,1,0,0,0-.69-.25,1.57,1.57,0,0,0-.6.11,1.19,1.19,0,0,0-.43.3,1.46,1.46,0,0,0-.25.46,1.81,1.81,0,0,0-.08.58v2.6h-.76V59.07Z"/>
    <path d="M26.82,63.66a1.07,1.07,0,0,1-.55.12.67.67,0,0,1-.47-.16.74.74,0,0,1-.17-.54,1.81,1.81,0,0,1-.73.54,2.58,2.58,0,0,1-1.49.09,1.33,1.33,0,0,1-.48-.22,1.08,1.08,0,0,1-.33-.4,1.32,1.32,0,0,1-.12-.59,1.39,1.39,0,0,1,.13-.65,1.16,1.16,0,0,1,.36-.4,1.55,1.55,0,0,1,.5-.24,4.76,4.76,0,0,1,.57-.13l.59-.1a4.79,4.79,0,0,0,.5-.08.9.9,0,0,0,.34-.17.45.45,0,0,0,.12-.33.76.76,0,0,0-.09-.4.59.59,0,0,0-.24-.23.92.92,0,0,0-.33-.11l-.36,0a1.57,1.57,0,0,0-.81.19.76.76,0,0,0-.34.69h-.76a1.6,1.6,0,0,1,.18-.73,1.36,1.36,0,0,1,.42-.47,2,2,0,0,1,.62-.27,3.4,3.4,0,0,1,.73-.08,4.21,4.21,0,0,1,.62,0,1.67,1.67,0,0,1,.56.18,1,1,0,0,1,.4.39,1.23,1.23,0,0,1,.15.65V62.6a1.28,1.28,0,0,0,0,.39q0,.12.21.12a.74.74,0,0,0,.23,0Zm-1.23-2.37a1,1,0,0,1-.38.16l-.49.08-.51.07a1.92,1.92,0,0,0-.46.13.86.86,0,0,0-.34.25.75.75,0,0,0-.13.45.61.61,0,0,0,.08.32.55.55,0,0,0,.19.21,1.1,1.1,0,0,0,.29.12,1.76,1.76,0,0,0,.33,0,1.81,1.81,0,0,0,.65-.1,1.2,1.2,0,0,0,.43-.26.88.88,0,0,0,.25-.34.75.75,0,0,0,.09-.34Z"/>
    <path d="M28,57.31v6.37h-.76V57.31Z"/>
    <path d="M30.75,64.3a3.92,3.92,0,0,1-.26.57,1.46,1.46,0,0,1-.29.38.88.88,0,0,1-.34.21,1.25,1.25,0,0,1-.45.07,1.76,1.76,0,0,1-.52-.08v-.7l.22.08.22,0a.63.63,0,0,0,.63-.43l.31-.77-1.83-4.59h.86l1.34,3.78h0L32,59.07h.8Z"/>
    <path d="M35.51,59.07v.67h-.92V62.6a1.27,1.27,0,0,0,0,.22.22.22,0,0,0,.09.12.38.38,0,0,0,.17.06h.64v.67h-.58a2.51,2.51,0,0,1-.51,0,.62.62,0,0,1-.53-.45,1.78,1.78,0,0,1-.06-.51V59.74h-.78v-.67h.78V57.69h.76v1.38Z"/>
    <path d="M36.05,58.24v-.93h.76v.93Zm.76.83v4.61h-.76V59.07Z"/>
    <path d="M40.41,59.87a1.16,1.16,0,0,0-.77-.24,1.47,1.47,0,0,0-.69.15,1.33,1.33,0,0,0-.44.41,1.46,1.46,0,0,0-.23.57,3,3,0,0,0-.08.68,2.57,2.57,0,0,0,.08.62,1.65,1.65,0,0,0,.24.54,1.11,1.11,0,0,0,.42.38,1.28,1.28,0,0,0,.61.14,1.26,1.26,0,0,0,.88-.29,1.38,1.38,0,0,0,.39-.83h.77A2.11,2.11,0,0,1,41,63.32a2,2,0,0,1-1.4.46,2.27,2.27,0,0,1-.93-.17,1.75,1.75,0,0,1-.68-.48,2.14,2.14,0,0,1-.41-.74,3.21,3.21,0,0,1-.14-1,3.73,3.73,0,0,1,.13-1,2.28,2.28,0,0,1,.41-.79,2,2,0,0,1,.68-.53,2.38,2.38,0,0,1,1-.19,2.43,2.43,0,0,1,.73.1,1.72,1.72,0,0,1,.61.29,1.45,1.45,0,0,1,.43.49,1.74,1.74,0,0,1,.22.71h-.79A1.16,1.16,0,0,0,40.41,59.87Z"/>
    <path d="M46.19,63.66a1,1,0,0,1-.54.12.64.64,0,0,1-.47-.16.7.7,0,0,1-.18-.54,1.78,1.78,0,0,1-.72.54,2.44,2.44,0,0,1-.9.16,2.22,2.22,0,0,1-.59-.07,1.47,1.47,0,0,1-.49-.22,1.08,1.08,0,0,1-.33-.4,1.32,1.32,0,0,1-.12-.59,1.39,1.39,0,0,1,.14-.65,1.13,1.13,0,0,1,.35-.4,1.65,1.65,0,0,1,.5-.24,5.43,5.43,0,0,1,.58-.13L44,61a4.56,4.56,0,0,0,.49-.08.83.83,0,0,0,.34-.17A.42.42,0,0,0,45,60.4a.68.68,0,0,0-.1-.4.59.59,0,0,0-.24-.23.86.86,0,0,0-.33-.11l-.36,0a1.51,1.51,0,0,0-.8.19.76.76,0,0,0-.35.69H42a1.6,1.6,0,0,1,.18-.73,1.39,1.39,0,0,1,.43-.47,2,2,0,0,1,.61-.27A3.43,3.43,0,0,1,44,59a4.44,4.44,0,0,1,.62,0,1.62,1.62,0,0,1,.55.18,1.09,1.09,0,0,1,.41.39,1.23,1.23,0,0,1,.15.65V62.6a1.85,1.85,0,0,0,0,.39q0,.12.21.12a.74.74,0,0,0,.23,0ZM45,61.29a1,1,0,0,1-.38.16l-.48.08-.51.07a2,2,0,0,0-.47.13.76.76,0,0,0-.33.25.69.69,0,0,0-.13.45.61.61,0,0,0,.07.32.58.58,0,0,0,.2.21,1,1,0,0,0,.28.12,1.87,1.87,0,0,0,.34,0,1.76,1.76,0,0,0,.64-.1,1.25,1.25,0,0,0,.44-.26,1,1,0,0,0,.25-.34.88.88,0,0,0,.08-.34Z"/>
    <path d="M47.36,57.31v6.37H46.6V57.31Z"/>
    <path d="M54.39,58.21a2,2,0,0,0-1.16-.34,2.12,2.12,0,0,0-1,.22,1.82,1.82,0,0,0-.66.57,2.44,2.44,0,0,0-.39.83,3.42,3.42,0,0,0-.13,1,3.77,3.77,0,0,0,.13,1,2.29,2.29,0,0,0,.39.85,1.89,1.89,0,0,0,.67.58,2.12,2.12,0,0,0,1,.21,1.76,1.76,0,0,0,1.31-.52,1.75,1.75,0,0,0,.37-.58,2.5,2.5,0,0,0,.16-.74h.85a2.94,2.94,0,0,1-.83,1.88,2.73,2.73,0,0,1-1.93.67,3,3,0,0,1-1.29-.26,2.48,2.48,0,0,1-.92-.7,2.93,2.93,0,0,1-.55-1,4.46,4.46,0,0,1,0-2.61A3.08,3.08,0,0,1,51,58.14a2.71,2.71,0,0,1,.94-.72,3.14,3.14,0,0,1,1.3-.26,3.69,3.69,0,0,1,.95.13,2.45,2.45,0,0,1,.79.4,2.22,2.22,0,0,1,.58.64,2.34,2.34,0,0,1,.3.9H55A1.64,1.64,0,0,0,54.39,58.21Z"/>
    <path d="M57.17,57.31v2.44h0a1.16,1.16,0,0,1,.25-.36,1.31,1.31,0,0,1,.37-.24,1.53,1.53,0,0,1,.41-.14,2.18,2.18,0,0,1,.43,0,1.88,1.88,0,0,1,.76.13,1.22,1.22,0,0,1,.75.88,2.82,2.82,0,0,1,.08.68v3h-.76V60.56a.91.91,0,0,0-.25-.68,1,1,0,0,0-.69-.25,1.57,1.57,0,0,0-.6.11,1.08,1.08,0,0,0-.42.3,1.31,1.31,0,0,0-.26.46,1.81,1.81,0,0,0-.08.58v2.6h-.76V57.31Z"/>
    <path d="M64.19,63.39a2.11,2.11,0,0,1-1.3.39,2.35,2.35,0,0,1-1-.18,1.8,1.8,0,0,1-.68-.5,2,2,0,0,1-.42-.76,4.27,4.27,0,0,1-.16-1,2.93,2.93,0,0,1,.16-1,2.34,2.34,0,0,1,.46-.76A2,2,0,0,1,62.84,59a1.88,1.88,0,0,1,1,.26,2.12,2.12,0,0,1,.66.64,2.65,2.65,0,0,1,.33.86,3.43,3.43,0,0,1,.08.88H61.48a1.81,1.81,0,0,0,.07.58,1.25,1.25,0,0,0,.26.48,1.41,1.41,0,0,0,.45.34,1.64,1.64,0,0,0,.65.12,1.28,1.28,0,0,0,.79-.22,1.1,1.1,0,0,0,.41-.68h.75A1.81,1.81,0,0,1,64.19,63.39Zm-.18-3a1.34,1.34,0,0,0-.28-.42,1.49,1.49,0,0,0-.41-.28,1.46,1.46,0,0,0-.52-.1,1.43,1.43,0,0,0-.53.1,1.22,1.22,0,0,0-.41.29,1.46,1.46,0,0,0-.27.41,1.72,1.72,0,0,0-.11.51h2.65A1.46,1.46,0,0,0,64,60.43Z"/>
    <path d="M66.07,59.07v.68h0A1.69,1.69,0,0,1,67.58,59a1.66,1.66,0,0,1,.78.18,1,1,0,0,1,.49.61,1.62,1.62,0,0,1,.61-.58,1.68,1.68,0,0,1,.83-.21,2.35,2.35,0,0,1,.63.08,1.32,1.32,0,0,1,.49.24,1.09,1.09,0,0,1,.31.41,1.58,1.58,0,0,1,.11.61v3.38h-.76v-3a2.5,2.5,0,0,0,0-.4.82.82,0,0,0-.14-.33.67.67,0,0,0-.27-.22,1.17,1.17,0,0,0-.45-.08,1.19,1.19,0,0,0-.88.32,1.15,1.15,0,0,0-.33.86v2.87h-.76v-3a1.73,1.73,0,0,0,0-.41.82.82,0,0,0-.13-.33.71.71,0,0,0-.27-.21,1,1,0,0,0-.42-.08,1.15,1.15,0,0,0-.57.14,1.32,1.32,0,0,0-.38.32,1.26,1.26,0,0,0-.22.39,1.16,1.16,0,0,0-.06.33v2.87h-.76V59.07Z"/>
    <path d="M72.48,58.24v-.93h.76v.93Zm.76.83v4.61h-.76V59.07Z"/>
    <path d="M74.6,62.65a.75.75,0,0,0,.28.28,1.13,1.13,0,0,0,.39.15,2.28,2.28,0,0,0,.45,0l.37,0a1.81,1.81,0,0,0,.37-.1.71.71,0,0,0,.27-.21.59.59,0,0,0,.11-.36.5.5,0,0,0-.23-.44,2.09,2.09,0,0,0-.56-.25c-.22-.06-.46-.12-.72-.17a3.89,3.89,0,0,1-.73-.21A1.49,1.49,0,0,1,74,61,1.2,1.2,0,0,1,74,59.68a1.21,1.21,0,0,1,.4-.41,1.82,1.82,0,0,1,.55-.23,2.62,2.62,0,0,1,.61-.08,4,4,0,0,1,.72.07,1.62,1.62,0,0,1,.59.23,1.17,1.17,0,0,1,.4.45,1.48,1.48,0,0,1,.18.7h-.76a.81.81,0,0,0-.11-.37.82.82,0,0,0-.25-.24,1.15,1.15,0,0,0-.34-.13,2.21,2.21,0,0,0-.37,0l-.34,0a1.5,1.5,0,0,0-.32.09.84.84,0,0,0-.23.18.48.48,0,0,0,.05.62,1.09,1.09,0,0,0,.35.21,2.43,2.43,0,0,0,.48.14l.54.12.56.16a1.78,1.78,0,0,1,.48.23,1.2,1.2,0,0,1,.34.37,1.08,1.08,0,0,1,.13.56A1.29,1.29,0,0,1,77,63.48a2.17,2.17,0,0,1-.63.24,4.23,4.23,0,0,1-.7.06,3,3,0,0,1-.74-.08,1.76,1.76,0,0,1-.61-.26A1.33,1.33,0,0,1,73.9,63a1.6,1.6,0,0,1-.18-.73h.76A.77.77,0,0,0,74.6,62.65Z"/>
    <path d="M80.18,59.07v.67h-.92V62.6a.69.69,0,0,0,0,.22.2.2,0,0,0,.08.12.38.38,0,0,0,.17.06h.64v.67H79.6a2.47,2.47,0,0,1-.5,0,.66.66,0,0,1-.34-.14.61.61,0,0,1-.19-.31,1.74,1.74,0,0,1-.07-.51V59.74h-.78v-.67h.78V57.69h.76v1.38Z"/>
    <path d="M81.46,59.07v1h0a2.11,2.11,0,0,1,.67-.83,1.72,1.72,0,0,1,1-.25v.81a2.18,2.18,0,0,0-.77.12,1.18,1.18,0,0,0-.52.37,1.51,1.51,0,0,0-.29.58,3.12,3.12,0,0,0-.09.79v2h-.76V59.07Z"/>
    <path d="M85.73,64.3a3.92,3.92,0,0,1-.26.57,1.46,1.46,0,0,1-.29.38.88.88,0,0,1-.34.21,1.25,1.25,0,0,1-.45.07,1.18,1.18,0,0,1-.26,0,1.1,1.1,0,0,1-.26-.06v-.7a1,1,0,0,0,.23.08l.21,0a.67.67,0,0,0,.39-.11.61.61,0,0,0,.24-.32l.31-.77-1.83-4.59h.86l1.35,3.78h0l1.3-3.78h.8Z"/>
  </g>
</svg>
