<svg id="Layer_1" data-name="Layer 1" xmlns="http://www.w3.org/2000/svg" width="100" height="93.36" viewBox="0 0 100 93.36">
  <g>
    <path d="M23.36,27.33A7.61,7.61,0,0,1,29,29.22a7.21,7.21,0,0,1,1.89,5.31A7.24,7.24,0,0,1,29,39.86a7.4,7.4,0,0,1-5.59,1.88H15.92v10H12.67V27.33ZM22.27,39a5.8,5.8,0,0,0,4.05-1.13,4.3,4.3,0,0,0,1.28-3.35,4.27,4.27,0,0,0-1.28-3.33,6,6,0,0,0-4.05-1.14H15.92v9Z"/>
    <path d="M44.1,50.59a8,8,0,0,1-5,1.5,9,9,0,0,1-3.67-.68,7.07,7.07,0,0,1-2.61-1.91,8,8,0,0,1-1.59-2.94,13.66,13.66,0,0,1-.6-3.72,10.58,10.58,0,0,1,.61-3.69A8.82,8.82,0,0,1,33,36.24a7.85,7.85,0,0,1,6-2.59,7.22,7.22,0,0,1,3.91,1,7.7,7.7,0,0,1,2.5,2.48,9.88,9.88,0,0,1,1.3,3.28,14.81,14.81,0,0,1,.29,3.38H33.71A6.92,6.92,0,0,0,34,46a4.82,4.82,0,0,0,2.73,3.13,6,6,0,0,0,2.49.48,5.05,5.05,0,0,0,3-.86,4.14,4.14,0,0,0,1.55-2.59h2.87A7.06,7.06,0,0,1,44.1,50.59Zm-.7-11.34a4.92,4.92,0,0,0-1.06-1.59,5.05,5.05,0,0,0-1.57-1.06,5,5,0,0,0-2-.39,5.07,5.07,0,0,0-2,.39,4.64,4.64,0,0,0-1.56,1.08,5,5,0,0,0-1,1.59,6.12,6.12,0,0,0-.45,1.93H43.86A6,6,0,0,0,43.4,39.25Z"/>
    <path d="M61.42,50.59a8,8,0,0,1-5,1.5,9,9,0,0,1-3.67-.68,7.07,7.07,0,0,1-2.61-1.91,8,8,0,0,1-1.59-2.94,14.48,14.48,0,0,1-.6-3.72,10.58,10.58,0,0,1,.62-3.69,8.8,8.8,0,0,1,1.72-2.91,7.85,7.85,0,0,1,6-2.59,7.22,7.22,0,0,1,3.91,1,7.7,7.7,0,0,1,2.5,2.48A9.88,9.88,0,0,1,64,40.38a14.27,14.27,0,0,1,.29,3.38H51a6.65,6.65,0,0,0,.27,2.2,4.87,4.87,0,0,0,1,1.85A5,5,0,0,0,54,49.09a6,6,0,0,0,2.5.48,5,5,0,0,0,3-.86,4.14,4.14,0,0,0,1.55-2.59H64A7,7,0,0,1,61.42,50.59Zm-.7-11.34a4.77,4.77,0,0,0-1.06-1.59,5.05,5.05,0,0,0-1.57-1.06,5,5,0,0,0-2-.39,5.07,5.07,0,0,0-2,.39,4.74,4.74,0,0,0-1.56,1.08,5,5,0,0,0-1,1.59A5.85,5.85,0,0,0,51,41.2H61.18A5.8,5.8,0,0,0,60.72,39.25Z"/>
    <path d="M68.36,34.06v3.72h.06A8,8,0,0,1,71,34.6a6.51,6.51,0,0,1,3.9-1v3.07a8.2,8.2,0,0,0-3,.48,4.73,4.73,0,0,0-2,1.4,5.79,5.79,0,0,0-1.09,2.24,11.9,11.9,0,0,0-.34,3v7.86H65.62V34.06Z"/>
    <path d="M87,27.33v18a10.29,10.29,0,0,1-.36,2.81,5.63,5.63,0,0,1-1.15,2.18,5,5,0,0,1-2.06,1.42,8.74,8.74,0,0,1-3.13.5,8,8,0,0,1-3-.5,5.34,5.34,0,0,1-2-1.38,5.64,5.64,0,0,1-1.14-2.1,9.33,9.33,0,0,1-.36-2.65V44.17h.68v1.47A6.15,6.15,0,0,0,76,50.13a5.86,5.86,0,0,0,4.34,1.49,8.7,8.7,0,0,0,2.58-.35,4.32,4.32,0,0,0,1.88-1.12,5,5,0,0,0,1.16-2.09,11.22,11.22,0,0,0,.4-3.21V27.33Z"/>
  </g>
  <g>
    <path d="M13.85,57.25v6h3.61v.76H12.94V57.25Z"/>
    <path d="M17.88,58.24v-1h.81v1Zm.81.89v4.93h-.81V59.13Z"/>
    <path d="M19.17,59.84v-.71H20v-.74a1.13,1.13,0,0,1,.35-.91,1.45,1.45,0,0,1,1-.31l.27,0a1.1,1.1,0,0,1,.26.06V58l-.23-.05-.23,0A.76.76,0,0,0,21,58a.5.5,0,0,0-.16.44v.69h1v.71h-1v4.22H20V59.84Z"/>
    <path d="M25.7,63.75a2.26,2.26,0,0,1-1.4.42,2.65,2.65,0,0,1-1-.19,2,2,0,0,1-.73-.54,2.25,2.25,0,0,1-.45-.82,3.78,3.78,0,0,1-.16-1,2.82,2.82,0,0,1,.17-1,2.35,2.35,0,0,1,.48-.81,2.28,2.28,0,0,1,.73-.54,2.41,2.41,0,0,1,.93-.19,2.06,2.06,0,0,1,1.1.27A2.1,2.1,0,0,1,26,60a2.69,2.69,0,0,1,.37.91,4.52,4.52,0,0,1,.08,1h-3.7a2,2,0,0,0,.08.61,1.38,1.38,0,0,0,.28.52,1.35,1.35,0,0,0,.48.36,1.68,1.68,0,0,0,.7.13,1.42,1.42,0,0,0,.85-.24,1.15,1.15,0,0,0,.43-.72h.8A2,2,0,0,1,25.7,63.75Zm-.2-3.17a1.51,1.51,0,0,0-.29-.45,1.6,1.6,0,0,0-.44-.29,1.3,1.3,0,0,0-.56-.11,1.32,1.32,0,0,0-.57.11,1.19,1.19,0,0,0-.43.3,1.3,1.3,0,0,0-.29.44,1.94,1.94,0,0,0-.13.54h2.84A1.64,1.64,0,0,0,25.5,60.58Z"/>
    <path d="M32.48,63.93a2.62,2.62,0,0,1-1.09.24A2.5,2.5,0,0,1,30.28,64a1.8,1.8,0,0,1-.65-.51,1.65,1.65,0,0,1-.3-.61,2.27,2.27,0,0,1-.07-.53,1.71,1.71,0,0,1,.13-.7,1.82,1.82,0,0,1,.34-.55,2.45,2.45,0,0,1,.51-.44,7,7,0,0,1,.61-.37l-.28-.38c-.08-.12-.17-.24-.24-.37a1.71,1.71,0,0,1-.17-.39,1.65,1.65,0,0,1-.06-.46,1.35,1.35,0,0,1,.1-.53,1.2,1.2,0,0,1,.29-.45,1.42,1.42,0,0,1,.49-.31,1.67,1.67,0,0,1,.65-.11,2.15,2.15,0,0,1,.62.08,1.75,1.75,0,0,1,.53.26,1.58,1.58,0,0,1,.37.44,1.34,1.34,0,0,1,.14.61,1.56,1.56,0,0,1-.11.57,1.71,1.71,0,0,1-.29.48,2.22,2.22,0,0,1-.41.4l-.47.32,1.23,1.49a3.65,3.65,0,0,0,.22-1.06h.77c0,.21,0,.38-.06.52a2.15,2.15,0,0,1-.09.4,2.6,2.6,0,0,1-.13.36l-.18.4,1.33,1.54H34l-.73-.85A1.88,1.88,0,0,1,32.48,63.93ZM30.85,61a2,2,0,0,0-.38.33,1.59,1.59,0,0,0-.26.41,1.35,1.35,0,0,0-.09.52,1,1,0,0,0,.11.48,1.12,1.12,0,0,0,.29.36,1.27,1.27,0,0,0,.41.23,1.37,1.37,0,0,0,.49.09,1.56,1.56,0,0,0,.83-.22,1.94,1.94,0,0,0,.62-.59L31.3,60.77Zm1-1.38a1.87,1.87,0,0,0,.3-.26,1.21,1.21,0,0,0,.22-.32.83.83,0,0,0,.08-.39.69.69,0,0,0-.21-.51.74.74,0,0,0-.57-.22.87.87,0,0,0-.53.18.62.62,0,0,0-.25.55A.8.8,0,0,0,31,59a1.46,1.46,0,0,0,.16.3,1.94,1.94,0,0,0,.21.29c.08.1.15.2.23.29Z"/>
    <path d="M42.63,57.25V58h-3.8v2.17h3.54v.76H38.83V63.3h3.83v.76H37.92V57.25Z"/>
    <path d="M44.05,59.13v.78h0a1.71,1.71,0,0,1,1.61-.9,2.14,2.14,0,0,1,.81.14,1.24,1.24,0,0,1,.52.37,1.27,1.27,0,0,1,.28.57,2.7,2.7,0,0,1,.09.73v3.24h-.82V60.72A1,1,0,0,0,46.3,60a1,1,0,0,0-.74-.27,1.75,1.75,0,0,0-.64.11,1.28,1.28,0,0,0-.73.82,2,2,0,0,0-.09.61v2.79h-.81V59.13Z"/>
    <path d="M49.57,64.06l-1.83-4.93h.91L50,63.24h0l1.34-4.11h.85l-1.8,4.93Z"/>
    <path d="M52.75,58.24v-1h.81v1Zm.81.89v4.93h-.81V59.13Z"/>
    <path d="M55.27,59.13v1h0a2.21,2.21,0,0,1,.73-.89A1.81,1.81,0,0,1,57.1,59v.86a2.54,2.54,0,0,0-.83.13,1.25,1.25,0,0,0-.55.4,1.72,1.72,0,0,0-.31.62,3.63,3.63,0,0,0-.09.85v2.19h-.81V59.13Z"/>
    <path d="M57.31,60.58a2.53,2.53,0,0,1,.46-.82,2.25,2.25,0,0,1,.76-.55,2.75,2.75,0,0,1,2.06,0,2.21,2.21,0,0,1,.75.55,2.36,2.36,0,0,1,.46.82,3.4,3.4,0,0,1,.15,1,3.29,3.29,0,0,1-.15,1,2.45,2.45,0,0,1-.46.82,2.07,2.07,0,0,1-.75.54,2.75,2.75,0,0,1-2.06,0,2.1,2.1,0,0,1-.76-.54,2.63,2.63,0,0,1-.46-.82,3.29,3.29,0,0,1-.15-1A3.4,3.4,0,0,1,57.31,60.58Zm.83,1.82a1.72,1.72,0,0,0,.33.58,1.6,1.6,0,0,0,.49.36,1.53,1.53,0,0,0,.6.12,1.48,1.48,0,0,0,.59-.12,1.6,1.6,0,0,0,.49-.36A1.72,1.72,0,0,0,61,62.4a2.49,2.49,0,0,0,.12-.8,2.45,2.45,0,0,0-.12-.8,1.77,1.77,0,0,0-.33-.59,1.45,1.45,0,0,0-.49-.36,1.48,1.48,0,0,0-.59-.12,1.53,1.53,0,0,0-.6.12,1.45,1.45,0,0,0-.49.36,1.77,1.77,0,0,0-.33.59,2.45,2.45,0,0,0-.12.8A2.49,2.49,0,0,0,58.14,62.4Z"/>
    <path d="M63.29,59.13v.78h0a1.71,1.71,0,0,1,1.6-.9,2.07,2.07,0,0,1,.81.14,1.27,1.27,0,0,1,.53.37,1.39,1.39,0,0,1,.28.57,3.2,3.2,0,0,1,.08.73v3.24H65.8V60.72a1,1,0,0,0-.27-.72,1,1,0,0,0-.73-.27,1.8,1.8,0,0,0-.65.11,1.25,1.25,0,0,0-.45.33,1.37,1.37,0,0,0-.27.49,2,2,0,0,0-.09.61v2.79h-.81V59.13Z"/>
    <path d="M68.12,59.13v.72h0A1.79,1.79,0,0,1,69.73,59a1.85,1.85,0,0,1,.83.19,1.09,1.09,0,0,1,.53.65,1.68,1.68,0,0,1,.65-.62,1.81,1.81,0,0,1,.89-.22,2.82,2.82,0,0,1,.68.08,1.37,1.37,0,0,1,.51.26,1.07,1.07,0,0,1,.34.44,1.6,1.6,0,0,1,.12.65v3.62h-.81V60.83a2.74,2.74,0,0,0,0-.43.93.93,0,0,0-.15-.35.7.7,0,0,0-.29-.24,1.26,1.26,0,0,0-.48-.08A1.19,1.19,0,0,0,71.22,61v3.07h-.81V60.83a2,2,0,0,0,0-.44.93.93,0,0,0-.15-.35.63.63,0,0,0-.28-.23,1,1,0,0,0-.46-.08,1.27,1.27,0,0,0-.6.14,1.4,1.4,0,0,0-.41.34,1.46,1.46,0,0,0-.23.42,1.08,1.08,0,0,0-.07.36v3.07h-.81V59.13Z"/>
    <path d="M78.61,63.75a2.23,2.23,0,0,1-1.39.42,2.67,2.67,0,0,1-1-.19,2.08,2.08,0,0,1-.73-.54,2.23,2.23,0,0,1-.44-.82,3.77,3.77,0,0,1-.17-1,3,3,0,0,1,.17-1,2.72,2.72,0,0,1,.48-.81,2.31,2.31,0,0,1,.74-.54,2.34,2.34,0,0,1,.93-.19,2,2,0,0,1,1.09.27,2.23,2.23,0,0,1,.7.7,2.67,2.67,0,0,1,.36.91,3.49,3.49,0,0,1,.08,1H75.71a1.77,1.77,0,0,0,.08.61,1.23,1.23,0,0,0,.27.52,1.39,1.39,0,0,0,.49.36,1.68,1.68,0,0,0,.7.13,1.39,1.39,0,0,0,.84-.24,1.16,1.16,0,0,0,.44-.72h.8A2,2,0,0,1,78.61,63.75Zm-.19-3.17a1.77,1.77,0,0,0-.3-.45,1.35,1.35,0,0,0-.44-.29,1.27,1.27,0,0,0-.56-.11,1.32,1.32,0,0,0-.57.11,1.19,1.19,0,0,0-.43.3,1.46,1.46,0,0,0-.29.44,1.63,1.63,0,0,0-.12.54h2.83A1.63,1.63,0,0,0,78.42,60.58Z"/>
    <path d="M80.72,59.13v.78h0a1.71,1.71,0,0,1,1.6-.9,2.16,2.16,0,0,1,.82.14,1.24,1.24,0,0,1,.52.37,1.39,1.39,0,0,1,.28.57,2.72,2.72,0,0,1,.08.73v3.24h-.81V60.72a.93.93,0,0,0-1-1,1.75,1.75,0,0,0-.64.11,1.21,1.21,0,0,0-.46.33,1.37,1.37,0,0,0-.27.49,2,2,0,0,0-.09.61v2.79H80V59.13Z"/>
    <path d="M87.09,59.13v.71h-1v3.07a.75.75,0,0,0,0,.23.2.2,0,0,0,.09.13.43.43,0,0,0,.19.06l.31,0h.37v.71h-.62a2.83,2.83,0,0,1-.54,0,.75.75,0,0,1-.36-.16.57.57,0,0,1-.21-.32,2.07,2.07,0,0,1-.07-.56V59.84h-.84v-.71h.84V57.65h.81v1.48Z"/>
  </g>
</svg>
