<svg id="Layer_1" data-name="Layer 1" xmlns="http://www.w3.org/2000/svg" width="100" height="93.36" viewBox="0 0 100 93.36">
  <g>
    <path d="M26.32,37.8a4.31,4.31,0,0,0,1.28-3.35,4.24,4.24,0,0,0-1.28-3.33A6,6,0,0,0,22.27,30H15.91v9h6.36A5.8,5.8,0,0,0,26.32,37.8Z"/>
    <path d="M61.89,60.21a1.3,1.3,0,0,0-.43-.29,1.38,1.38,0,0,0-.55-.11,1.47,1.47,0,0,0-.56.11,1.25,1.25,0,0,0-.42.3,1.39,1.39,0,0,0-.28.43,1.63,1.63,0,0,0-.12.53h2.78a1.65,1.65,0,0,0-.13-.53A1.35,1.35,0,0,0,61.89,60.21Z"/>
    <path d="M40.74,61.81l-.54.07a2.34,2.34,0,0,0-.49.14.85.85,0,0,0-.35.27.73.73,0,0,0-.13.47.58.58,0,0,0,.08.33.61.61,0,0,0,.2.22.79.79,0,0,0,.3.12,1.37,1.37,0,0,0,.36,0,1.71,1.71,0,0,0,.67-.11,1.36,1.36,0,0,0,.46-.27,1,1,0,0,0,.26-.35.87.87,0,0,0,.09-.37v-.81a1,1,0,0,1-.4.16A3.86,3.86,0,0,1,40.74,61.81Z"/>
    <path d="M42.34,37.57a5,5,0,0,0-1.57-1,4.83,4.83,0,0,0-2-.4,4.9,4.9,0,0,0-2,.4,4.76,4.76,0,0,0-1.56,1.07,5.28,5.28,0,0,0-1,1.59,6.19,6.19,0,0,0-.45,1.93H43.86a6.17,6.17,0,0,0-.46-2A5.15,5.15,0,0,0,42.34,37.57Z"/>
    <path d="M60.72,39.16a5.15,5.15,0,0,0-1.06-1.59,5,5,0,0,0-1.57-1,4.83,4.83,0,0,0-2-.4,4.9,4.9,0,0,0-2,.4,4.76,4.76,0,0,0-1.56,1.07,5.28,5.28,0,0,0-1,1.59A6.19,6.19,0,0,0,51,41.11H61.18A6.17,6.17,0,0,0,60.72,39.16Z"/>
    <path d="M99,0H1A1,1,0,0,0,0,1V92.36a1,1,0,0,0,1,1H99a1,1,0,0,0,1-1V1A1,1,0,0,0,99,0ZM80.31,51.53a8.72,8.72,0,0,0,2.58-.34,4.34,4.34,0,0,0,1.88-1.13A5,5,0,0,0,85.93,48a11.35,11.35,0,0,0,.39-3.21V27.24H87v18a10.21,10.21,0,0,1-.36,2.8,5.75,5.75,0,0,1-1.15,2.19,5,5,0,0,1-2.06,1.41,8.74,8.74,0,0,1-3.13.5,8,8,0,0,1-3-.5,5.34,5.34,0,0,1-2-1.38,5.49,5.49,0,0,1-1.14-2.1,9.28,9.28,0,0,1-.36-2.65V44.08h.68v1.47A6.13,6.13,0,0,0,76,50,5.82,5.82,0,0,0,80.31,51.53ZM65.62,34h2.73v3.72h.07A7.85,7.85,0,0,1,71,34.52a6.43,6.43,0,0,1,3.89-1v3.07a8.18,8.18,0,0,0-3,.48,4.73,4.73,0,0,0-2,1.4,5.79,5.79,0,0,0-1.09,2.24,12,12,0,0,0-.34,3v7.85H65.62ZM48.57,39.06a8.88,8.88,0,0,1,1.73-2.9,7.94,7.94,0,0,1,2.63-1.92,8.09,8.09,0,0,1,3.33-.68,7.22,7.22,0,0,1,3.91,1A7.79,7.79,0,0,1,62.67,37,9.74,9.74,0,0,1,64,40.29a14.3,14.3,0,0,1,.3,3.38H51a7,7,0,0,0,.28,2.21,4.83,4.83,0,0,0,1,1.84A4.75,4.75,0,0,0,54,49a6,6,0,0,0,2.49.48,5.05,5.05,0,0,0,3-.85A4.16,4.16,0,0,0,61.11,46H64a7.11,7.11,0,0,1-2.56,4.48,8,8,0,0,1-5,1.5,9.17,9.17,0,0,1-3.67-.68,7.21,7.21,0,0,1-2.61-1.92,8,8,0,0,1-1.59-2.94,13.6,13.6,0,0,1-.6-3.72A10.66,10.66,0,0,1,48.57,39.06ZM12.67,27.24H23.36A7.57,7.57,0,0,1,29,29.14a7.18,7.18,0,0,1,1.89,5.31A7.26,7.26,0,0,1,29,39.78a7.48,7.48,0,0,1-5.59,1.88H15.91v10H12.67Zm4.48,33.58a2,2,0,0,1-1.53.51h-2v2.74h-.9V57.38h2.94a2.07,2.07,0,0,1,1.53.52,2,2,0,0,1,.52,1.46A2,2,0,0,1,17.15,60.82Zm5.21,3.25h-.8V60.79a.93.93,0,0,0-.26-.71,1,1,0,0,0-.72-.27,1.51,1.51,0,0,0-.63.12,1.12,1.12,0,0,0-.45.32,1.25,1.25,0,0,0-.27.48,1.93,1.93,0,0,0-.09.6v2.74h-.79V57.38h.79v2.56h0a1.05,1.05,0,0,1,.27-.38,1.37,1.37,0,0,1,.37-.26,2.35,2.35,0,0,1,.45-.14,2.29,2.29,0,0,1,1.24.08,1.32,1.32,0,0,1,.79.93,3.08,3.08,0,0,1,.08.71Zm2.82.65a4.37,4.37,0,0,1-.27.6,2.77,2.77,0,0,1-.3.4,1.17,1.17,0,0,1-.37.22,1.31,1.31,0,0,1-.46.07,1.42,1.42,0,0,1-.29,0,1.31,1.31,0,0,1-.27-.06V65.2l.24.08.23,0a.69.69,0,0,0,.41-.12.76.76,0,0,0,.25-.33l.33-.82-1.93-4.82h.9l1.42,4h0l1.36-4h.84Zm6.13-1.33a1.44,1.44,0,0,1-.48.47,2.08,2.08,0,0,1-.66.24,3.78,3.78,0,0,1-.74.07,3.25,3.25,0,0,1-.77-.08,2,2,0,0,1-.65-.28,1.46,1.46,0,0,1-.45-.5,1.78,1.78,0,0,1-.18-.77h.79a.88.88,0,0,0,.13.45.81.81,0,0,0,.29.29,1.34,1.34,0,0,0,.41.15,2.52,2.52,0,0,0,.48,0l.39,0a1.51,1.51,0,0,0,.38-.1.7.7,0,0,0,.29-.22.62.62,0,0,0,.11-.37.53.53,0,0,0-.24-.47,2,2,0,0,0-.58-.26l-.77-.18a3.54,3.54,0,0,1-.76-.22,1.65,1.65,0,0,1-.59-.41,1.08,1.08,0,0,1-.23-.73,1.18,1.18,0,0,1,.16-.63,1.36,1.36,0,0,1,.43-.43,2,2,0,0,1,.58-.24,2.8,2.8,0,0,1,.64-.08,3.64,3.64,0,0,1,.76.07,1.74,1.74,0,0,1,.61.25,1.27,1.27,0,0,1,.43.46,1.79,1.79,0,0,1,.19.74h-.8a.75.75,0,0,0-.12-.39A1,1,0,0,0,30.1,60a1.11,1.11,0,0,0-.36-.13,1.6,1.6,0,0,0-.39,0l-.36,0a1.15,1.15,0,0,0-.33.1.65.65,0,0,0-.24.19.44.44,0,0,0-.1.3.45.45,0,0,0,.15.35,1.21,1.21,0,0,0,.37.22,3.09,3.09,0,0,0,.51.15l.56.13a3.83,3.83,0,0,1,.58.16,1.73,1.73,0,0,1,.51.25,1.19,1.19,0,0,1,.36.38,1.17,1.17,0,0,1,.13.59A1.39,1.39,0,0,1,31.31,63.39Zm1.63.68h-.8V59.22h.8Zm0-5.72h-.8v-1h.8Zm4.43,5.34a2.13,2.13,0,0,1-1.47.48,2.49,2.49,0,0,1-1-.17,1.85,1.85,0,0,1-.71-.51,2.29,2.29,0,0,1-.44-.78,3.55,3.55,0,0,1-.14-1,3.75,3.75,0,0,1,.14-1,2.3,2.3,0,0,1,.43-.82,2.06,2.06,0,0,1,.71-.56,2.46,2.46,0,0,1,1-.2,2.76,2.76,0,0,1,.77.1,2.22,2.22,0,0,1,.64.3A1.84,1.84,0,0,1,38,60.78h-.83a1.18,1.18,0,0,0-.39-.71,1.21,1.21,0,0,0-.81-.26,1.56,1.56,0,0,0-.72.16,1.27,1.27,0,0,0-.46.43,1.62,1.62,0,0,0-.25.6,3.29,3.29,0,0,0-.08.71,3,3,0,0,0,.08.66,1.91,1.91,0,0,0,.25.56,1.21,1.21,0,0,0,.44.4,1.33,1.33,0,0,0,.65.15,1.28,1.28,0,0,0,.92-.31,1.43,1.43,0,0,0,.41-.87H38A2.26,2.26,0,0,1,37.37,63.69Zm5.57.36a1.15,1.15,0,0,1-.57.12.65.65,0,0,1-.49-.17.71.71,0,0,1-.19-.57,1.8,1.8,0,0,1-.76.57,2.45,2.45,0,0,1-.94.17,2.59,2.59,0,0,1-.63-.07,1.69,1.69,0,0,1-.51-.23,1.17,1.17,0,0,1-.34-.42,1.47,1.47,0,0,1-.13-.63,1.45,1.45,0,0,1,.14-.67,1.3,1.3,0,0,1,.37-.43,1.85,1.85,0,0,1,.53-.25l.6-.14.63-.09c.19,0,.37-.06.52-.1a.77.77,0,0,0,.35-.18.43.43,0,0,0,.14-.34.87.87,0,0,0-.1-.42A.6.6,0,0,0,41.3,60a.92.92,0,0,0-.34-.12l-.38,0a1.7,1.7,0,0,0-.85.2.81.81,0,0,0-.36.72h-.8a1.74,1.74,0,0,1,.19-.76,1.44,1.44,0,0,1,.45-.5,1.74,1.74,0,0,1,.64-.27,3.19,3.19,0,0,1,.77-.09,4.89,4.89,0,0,1,.66,0,1.59,1.59,0,0,1,.58.19,1,1,0,0,1,.42.41,1.25,1.25,0,0,1,.16.68v2.49a1.39,1.39,0,0,0,0,.41c0,.09.09.13.22.13a.6.6,0,0,0,.24,0Zm1.3,0h-.79V57.38h.79ZM34,45.88a4.83,4.83,0,0,0,1,1.84A4.75,4.75,0,0,0,36.72,49a6,6,0,0,0,2.49.48,5.05,5.05,0,0,0,3-.85A4.16,4.16,0,0,0,43.79,46h2.87a7.11,7.11,0,0,1-2.56,4.48,8,8,0,0,1-5,1.5,9.17,9.17,0,0,1-3.67-.68,7.21,7.21,0,0,1-2.61-1.92,8,8,0,0,1-1.59-2.94,13.6,13.6,0,0,1-.6-3.72,10.66,10.66,0,0,1,.61-3.69A8.88,8.88,0,0,1,33,36.16a7.94,7.94,0,0,1,2.63-1.92,8.09,8.09,0,0,1,3.33-.68,7.22,7.22,0,0,1,3.91,1A7.79,7.79,0,0,1,45.35,37a9.74,9.74,0,0,1,1.29,3.28,14.3,14.3,0,0,1,.3,3.38H33.71A7,7,0,0,0,34,45.88ZM52.45,63.52a2.83,2.83,0,0,1-2,.7A3.2,3.2,0,0,1,49.06,64a2.51,2.51,0,0,1-1-.73,3.09,3.09,0,0,1-.58-1.11,4.63,4.63,0,0,1-.19-1.37,4.68,4.68,0,0,1,.2-1.37,3.28,3.28,0,0,1,.61-1.12,2.79,2.79,0,0,1,1-.76,3.28,3.28,0,0,1,1.37-.27,3.2,3.2,0,0,1,1,.14,2.58,2.58,0,0,1,.83.41,2.21,2.21,0,0,1,.61.68,2.38,2.38,0,0,1,.32.94h-.89a1.68,1.68,0,0,0-.66-1.07A2.1,2.1,0,0,0,50.49,58a2.18,2.18,0,0,0-1,.22,2,2,0,0,0-.7.61,2.5,2.5,0,0,0-.41.87,3.73,3.73,0,0,0-.13,1,4.21,4.21,0,0,0,.13,1.08,2.51,2.51,0,0,0,.41.89,2.06,2.06,0,0,0,.7.61,2.25,2.25,0,0,0,1,.22,1.94,1.94,0,0,0,.78-.15,1.71,1.71,0,0,0,.59-.4,1.68,1.68,0,0,0,.39-.61,2.78,2.78,0,0,0,.17-.77h.89A3.09,3.09,0,0,1,52.45,63.52Zm5.58.55h-.8V60.79a1,1,0,0,0-.26-.71,1,1,0,0,0-.73-.27,1.54,1.54,0,0,0-.63.12,1,1,0,0,0-.44.32,1.25,1.25,0,0,0-.27.48,1.93,1.93,0,0,0-.09.6v2.74H54V57.38h.8v2.56h0a1,1,0,0,1,.26-.38,1.42,1.42,0,0,1,.38-.26,2.25,2.25,0,0,1,.44-.14,2.3,2.3,0,0,1,.45,0,2.25,2.25,0,0,1,.79.13,1.26,1.26,0,0,1,.52.37,1.41,1.41,0,0,1,.28.56,3.08,3.08,0,0,1,.08.71Zm1.57-1.58a1.3,1.3,0,0,0,.75.86,1.59,1.59,0,0,0,.68.13,1.41,1.41,0,0,0,.83-.23,1.15,1.15,0,0,0,.43-.72h.79a1.94,1.94,0,0,1-.7,1.23,2.19,2.19,0,0,1-1.37.41A2.57,2.57,0,0,1,60,64a1.93,1.93,0,0,1-.72-.53,2.13,2.13,0,0,1-.43-.8,3.76,3.76,0,0,1-.17-1,3,3,0,0,1,.17-1,2.45,2.45,0,0,1,.47-.8,2.22,2.22,0,0,1,.73-.52,2.09,2.09,0,0,1,.91-.19,2,2,0,0,1,1.07.27,2,2,0,0,1,.69.68,2.52,2.52,0,0,1,.35.9,3.32,3.32,0,0,1,.08.93H59.53A1.71,1.71,0,0,0,59.6,62.49Zm10.89,1.58H69.7V60.89a2.72,2.72,0,0,0,0-.42.94.94,0,0,0-.14-.34.68.68,0,0,0-.29-.23,1.06,1.06,0,0,0-.47-.09,1.29,1.29,0,0,0-.93.34,1.25,1.25,0,0,0-.34.9v3H66.7V60.89a2.86,2.86,0,0,0,0-.43,1,1,0,0,0-.15-.34.71.71,0,0,0-.28-.23,1.08,1.08,0,0,0-.44-.08,1.16,1.16,0,0,0-.6.15,1.31,1.31,0,0,0-.4.33,1.53,1.53,0,0,0-.23.41,1.43,1.43,0,0,0-.07.35v3H63.7V59.22h.75v.72h0A1.76,1.76,0,0,1,66,59.11a1.74,1.74,0,0,1,.82.19,1,1,0,0,1,.51.64,1.7,1.7,0,0,1,.64-.61,1.77,1.77,0,0,1,.88-.22,2.59,2.59,0,0,1,.66.08,1.35,1.35,0,0,1,.51.25,1.14,1.14,0,0,1,.33.44,1.53,1.53,0,0,1,.11.64Zm1.77,0h-.8V59.22h.8Zm0-5.72h-.8v-1h.8Zm4.58,5a1.54,1.54,0,0,1-.48.47,2.05,2.05,0,0,1-.67.24,3.61,3.61,0,0,1-.73.07,3.19,3.19,0,0,1-.77-.08,1.91,1.91,0,0,1-.65-.28,1.28,1.28,0,0,1-.45-.5,1.94,1.94,0,0,1-.19-.77h.8a1,1,0,0,0,.12.45.92.92,0,0,0,.3.29,1.34,1.34,0,0,0,.41.15,2.42,2.42,0,0,0,.47,0l.4,0a1.51,1.51,0,0,0,.38-.1.67.67,0,0,0,.28-.22.57.57,0,0,0,.12-.37.53.53,0,0,0-.24-.47,2,2,0,0,0-.58-.26l-.77-.18a3.54,3.54,0,0,1-.76-.22,1.57,1.57,0,0,1-.59-.41,1.08,1.08,0,0,1-.23-.73,1.18,1.18,0,0,1,.16-.63,1.44,1.44,0,0,1,.42-.43,2.15,2.15,0,0,1,.58-.24,2.89,2.89,0,0,1,.65-.08,3.7,3.7,0,0,1,.76.07,1.74,1.74,0,0,1,.61.25,1.27,1.27,0,0,1,.43.46,1.79,1.79,0,0,1,.18.74H76a.86.86,0,0,0-.12-.39.93.93,0,0,0-.27-.25,1,1,0,0,0-.35-.13,1.74,1.74,0,0,0-.39,0,2.19,2.19,0,0,0-.36,0,1.15,1.15,0,0,0-.33.1.79.79,0,0,0-.25.19.49.49,0,0,0-.09.3.45.45,0,0,0,.15.35,1.1,1.1,0,0,0,.37.22,3.27,3.27,0,0,0,.5.15l.57.13a3.83,3.83,0,0,1,.58.16,1.73,1.73,0,0,1,.51.25,1.27,1.27,0,0,1,.35.38,1.17,1.17,0,0,1,.14.59A1.39,1.39,0,0,1,76.84,63.39Zm2.85-3.46h-1v3a.68.68,0,0,0,0,.22.21.21,0,0,0,.09.13.38.38,0,0,0,.18.06l.31,0h.36v.7h-.61a2.79,2.79,0,0,1-.53,0,.76.76,0,0,1-.35-.16.71.71,0,0,1-.21-.31,2,2,0,0,1-.06-.55V59.93H77.1v-.71h.83V57.77h.8v1.45h1Zm3.12,0a2.18,2.18,0,0,0-.81.13,1.21,1.21,0,0,0-.55.38,1.83,1.83,0,0,0-.3.61,3.55,3.55,0,0,0-.09.84v2.15h-.8V59.22H81v1h0a2.15,2.15,0,0,1,.72-.88,1.84,1.84,0,0,1,1.06-.26Zm2.69,4.76a4.37,4.37,0,0,1-.27.6,1.82,1.82,0,0,1-.3.4,1.07,1.07,0,0,1-.37.22,1.31,1.31,0,0,1-.46.07,1.27,1.27,0,0,1-.28,0,1.07,1.07,0,0,1-.27-.06V65.2l.23.08.23,0a.66.66,0,0,0,.41-.12.76.76,0,0,0,.25-.33L85,64l-1.92-4.82H84l1.41,4h0l1.36-4h.84Z"/>
    <path d="M15.32,58.13H13.58v2.45h1.74a1.52,1.52,0,0,0,1.11-.31,1.37,1.37,0,0,0,0-1.83A1.62,1.62,0,0,0,15.32,58.13Z"/>
  </g>
</svg>
